M48
; DRILL file {KiCad (5.1.8-0-10_14)} date Saturday, March 26, 2022 at 07:03:00 PM
; FORMAT={3:3/ absolute / metric / suppress trailing zeros}
; #@! TF.CreationDate,2022-03-26T19:03:00+09:00
; #@! TF.GenerationSoftware,Kicad,Pcbnew,(5.1.8-0-10_14)
; #@! TF.FileFunction,Plated,1,2,PTH
FMAT,2
METRIC,LZ
T1C0.750
T2C0.800
T3C0.900
T4C1.000
T5C1.100
T6C1.200
T7C1.220
T8C2.000
%
G90
G05
T1
X14224Y-10668
X14351Y-10668
X14478Y-10668
T2
X14478Y-1016
X14732Y-1016
X09144Y-11684
X09398Y-11684
X11938Y-092075
X12192Y-092075
X09144Y-0889
X09398Y-0889
X09398Y-13589
X09652Y-13589
X1524Y-13212
X1524Y-13462
X09144Y-10414
X09398Y-10414
X11938Y-106045
X12192Y-106045
X09906Y-13589
X1016Y-13589
X1397Y-0762
X1397Y-08382
X14224Y-0762
X14224Y-08382
X14478Y-0762
X14478Y-08382
X14732Y-0762
X14732Y-08382
X14986Y-0762
X14986Y-08382
X1524Y-0762
X1524Y-08382
X15494Y-0762
X15494Y-08382
X15748Y-0762
X15748Y-08382
X13462Y-05334
X13716Y-05334
X116205Y-05334
X116205Y-05588
X13081Y-11176
X13081Y-127
X13335Y-11176
X13335Y-127
X13589Y-11176
X13589Y-127
X13843Y-11176
X13843Y-127
X14097Y-11176
X14097Y-127
X14351Y-11176
X14351Y-127
X14605Y-11176
X14605Y-127
X14859Y-11176
X14859Y-127
X15113Y-11176
X15113Y-127
X15367Y-11176
X15367Y-127
X15621Y-11176
X15621Y-127
X15875Y-11176
X15875Y-127
X1524Y-13974
X1524Y-14224
X09144Y-0762
X09398Y-0762
X14732Y-07366
X14986Y-07366
X13335Y-13081
X13589Y-13081
X14732Y-05588
X14986Y-05588
X14998Y-0889
X15748Y-0889
X13462Y-06858
X13716Y-06858
X10414Y-0635
X10668Y-0635
X10922Y-12192
X10922Y-12942
X10414Y-106045
X10668Y-106045
X10922Y-11684
X10922Y-11938
X13462Y-07112
X13716Y-07112
X142875Y-08648
X142875Y-09398
X14732Y-06985
X14986Y-06985
X10922Y-13716
X10922Y-14466
X13462Y-05588
X13716Y-05588
X11938Y-07366
X12192Y-07366
X10668Y-09144
X10922Y-09144
X10922Y-13208
X10922Y-13462
X1524Y-05842
X1524Y-06592
X14732Y-05334
X14986Y-05334
X14732Y-10668
X14986Y-10668
X11938Y-086995
X12192Y-086995
X10414Y-078105
X10668Y-078105
X1397Y-1016
X14224Y-1016
X10668Y-05842
X10922Y-05842
X13462Y-05842
X13462Y-06604
X13716Y-05842
X13716Y-06604
X1397Y-05842
X1397Y-06604
X14224Y-05842
X14224Y-06604
X14478Y-05842
X14478Y-06604
X14732Y-05842
X14732Y-06604
X14986Y-05842
X14986Y-06604
T3
X11938Y-09652
X12192Y-09652
X10668Y-08255
X10922Y-08255
X11938Y-08255
X12192Y-08255
X10668Y-09652
X10922Y-09652
X10668Y-05334
X10922Y-05334
X11938Y-06858
X12192Y-06858
X10668Y-11049
X10922Y-11049
X11938Y-05334
X12192Y-05334
X11938Y-11049
X12192Y-11049
X10668Y-06858
X10922Y-06858
T4
X09652Y-13335
X09902Y-13335
X10152Y-13335
X13208Y-07747
X13208Y-08001
X13208Y-08255
X13208Y-08509
X13208Y-08763
X13208Y-09017
X13208Y-09271
X13208Y-09525
X13208Y-09779
X13462Y-07747
X13462Y-08001
X13462Y-08255
X13462Y-08509
X13462Y-08763
X13462Y-09017
X13462Y-09271
X13462Y-09525
X13462Y-09779
X106045Y-144145
X106045Y-146685
X16002Y-13208
X16002Y-13462
X16002Y-13716
X16002Y-1397
X16002Y-14224
X16256Y-13208
X16256Y-13462
X16256Y-13716
X16256Y-1397
X16256Y-14224
X11303Y-07747
X11303Y-08001
X11303Y-08255
X11303Y-08509
X11303Y-08763
X11303Y-09017
X11303Y-09271
X11303Y-09525
X11303Y-09779
X11557Y-07747
X11557Y-08001
X11557Y-08255
X11557Y-08509
X11557Y-08763
X11557Y-09017
X11557Y-09271
X11557Y-09525
X11557Y-09779
T5
X12954Y-13589
X12954Y-14039
X13604Y-13589
X13604Y-14039
T7
X103Y-05337
X103Y-06861
X103Y-11052
X103Y-08258
X103Y-09655
T3
G00X11779Y-1397
M15
G01X11589Y-1397
M16
G05
G00X11779Y-14478
M15
G01X11589Y-14478
M16
G05
G00X11779Y-12319
M15
G01X11589Y-12319
M16
G05
G00X11779Y-12827
M15
G01X11589Y-12827
M16
G05
T6
G00X0916Y-05377
M15
G01X0916Y-05297
M16
G05
G00X0999Y-05377
M15
G01X0999Y-05297
M16
G05
G00X0916Y-06901
M15
G01X0916Y-06821
M16
G05
G00X0999Y-06901
M15
G01X0999Y-06821
M16
G05
G00X0916Y-11092
M15
G01X0916Y-11012
M16
G05
G00X0999Y-11092
M15
G01X0999Y-11012
M16
G05
G00X0916Y-08298
M15
G01X0916Y-08218
M16
G05
G00X0999Y-08298
M15
G01X0999Y-08218
M16
G05
G00X0916Y-09695
M15
G01X0916Y-09615
M16
G05
G00X0999Y-09695
M15
G01X0999Y-09615
M16
G05
T8
G00X09342Y-1261
M15
G01X09342Y-1256
M16
G05
G00X10462Y-1261
M15
G01X10462Y-1256
M16
G05
T0
M30
