G04 #@! TF.GenerationSoftware,KiCad,Pcbnew,(5.1.8-0-10_14)*
G04 #@! TF.CreationDate,2022-03-26T19:02:53+09:00*
G04 #@! TF.ProjectId,ButtonSequencer,42757474-6f6e-4536-9571-75656e636572,rev?*
G04 #@! TF.SameCoordinates,Original*
G04 #@! TF.FileFunction,Soldermask,Top*
G04 #@! TF.FilePolarity,Negative*
%FSLAX46Y46*%
G04 Gerber Fmt 4.6, Leading zero omitted, Abs format (unit mm)*
G04 Created by KiCad (PCBNEW (5.1.8-0-10_14)) date 2022-03-26 19:02:53*
%MOMM*%
%LPD*%
G01*
G04 APERTURE LIST*
%ADD10C,9.000000*%
%ADD11O,1.600000X1.600000*%
%ADD12C,1.600000*%
%ADD13R,1.800000X1.800000*%
%ADD14C,1.800000*%
%ADD15O,2.130000X2.500000*%
%ADD16R,1.830000X1.930000*%
%ADD17R,1.700000X1.700000*%
%ADD18O,1.700000X1.700000*%
%ADD19R,2.500000X3.000000*%
%ADD20C,2.000000*%
%ADD21R,2.000000X2.000000*%
%ADD22O,3.300000X1.524000*%
%ADD23R,1.600000X1.600000*%
%ADD24O,1.050000X1.500000*%
%ADD25R,1.050000X1.500000*%
%ADD26O,1.200000X2.000000*%
G04 APERTURE END LIST*
D10*
X99060000Y-142240000D03*
D11*
X109220000Y-144660000D03*
D12*
X109220000Y-137160000D03*
X109220000Y-121920000D03*
D11*
X109220000Y-129420000D03*
D13*
X106680000Y-53340000D03*
D14*
X109220000Y-53340000D03*
D13*
X119380000Y-53340000D03*
D14*
X121920000Y-53340000D03*
D13*
X119380000Y-110490000D03*
D14*
X121920000Y-110490000D03*
X121920000Y-96520000D03*
D13*
X119380000Y-96520000D03*
X119380000Y-82550000D03*
D14*
X121920000Y-82550000D03*
X121920000Y-68580000D03*
D13*
X119380000Y-68580000D03*
D14*
X109220000Y-68580000D03*
D13*
X106680000Y-68580000D03*
D14*
X109220000Y-82550000D03*
D13*
X106680000Y-82550000D03*
D14*
X109220000Y-96520000D03*
D13*
X106680000Y-96520000D03*
X106680000Y-110490000D03*
D14*
X109220000Y-110490000D03*
D15*
X99900000Y-53370000D03*
X91600000Y-53370000D03*
D16*
X103000000Y-53370000D03*
D15*
X99900000Y-68610000D03*
X91600000Y-68610000D03*
D16*
X103000000Y-68610000D03*
X103000000Y-82580000D03*
D15*
X91600000Y-82580000D03*
X99900000Y-82580000D03*
X99900000Y-96550000D03*
X91600000Y-96550000D03*
D16*
X103000000Y-96550000D03*
X103000000Y-110520000D03*
D15*
X91600000Y-110520000D03*
X99900000Y-110520000D03*
D17*
X113030000Y-77470000D03*
D18*
X115570000Y-77470000D03*
X113030000Y-80010000D03*
X115570000Y-80010000D03*
X113030000Y-82550000D03*
X115570000Y-82550000D03*
X113030000Y-85090000D03*
X115570000Y-85090000D03*
X113030000Y-87630000D03*
X115570000Y-87630000D03*
X113030000Y-90170000D03*
X115570000Y-90170000D03*
X113030000Y-92710000D03*
X115570000Y-92710000D03*
X113030000Y-95250000D03*
X115570000Y-95250000D03*
X113030000Y-97790000D03*
X115570000Y-97790000D03*
D12*
X99060000Y-135890000D03*
D11*
X101600000Y-135890000D03*
X96520000Y-135890000D03*
D12*
X93980000Y-135890000D03*
X106680000Y-58420000D03*
D11*
X109220000Y-58420000D03*
X109220000Y-134620000D03*
D12*
X109220000Y-132080000D03*
D11*
X109220000Y-119380000D03*
D12*
X109220000Y-116840000D03*
X116205000Y-55880000D03*
D11*
X116205000Y-53340000D03*
D12*
X119380000Y-106045000D03*
D11*
X121920000Y-106045000D03*
X121920000Y-92075000D03*
D12*
X119380000Y-92075000D03*
X119380000Y-86995000D03*
D11*
X121920000Y-86995000D03*
X121920000Y-73660000D03*
D12*
X119380000Y-73660000D03*
X106680000Y-63500000D03*
D11*
X104140000Y-63500000D03*
D12*
X106680000Y-78105000D03*
D11*
X104140000Y-78105000D03*
X109220000Y-91440000D03*
D12*
X106680000Y-91440000D03*
X106680000Y-106045000D03*
D11*
X104140000Y-106045000D03*
X93980000Y-76200000D03*
D12*
X91440000Y-76200000D03*
D11*
X93980000Y-88900000D03*
D12*
X91440000Y-88900000D03*
D11*
X93980000Y-104140000D03*
D12*
X91440000Y-104140000D03*
X91440000Y-116840000D03*
D11*
X93980000Y-116840000D03*
D19*
X104620000Y-125850000D03*
X93420000Y-125850000D03*
D20*
X101520000Y-133350000D03*
X99020000Y-133350000D03*
D21*
X96520000Y-133350000D03*
D22*
X116840000Y-144780000D03*
X116840000Y-139700000D03*
X116840000Y-128270000D03*
X116840000Y-123190000D03*
D18*
X106045000Y-144145000D03*
D17*
X106045000Y-146685000D03*
D23*
X152400000Y-142240000D03*
D12*
X152400000Y-139740000D03*
X152400000Y-132120000D03*
D23*
X152400000Y-134620000D03*
D12*
X152400000Y-58420000D03*
D11*
X152400000Y-65920000D03*
X142875000Y-86480000D03*
D12*
X142875000Y-93980000D03*
X157480000Y-88900000D03*
D11*
X149980000Y-88900000D03*
D17*
X160020000Y-132080000D03*
D18*
X162560000Y-132080000D03*
X160020000Y-134620000D03*
X162560000Y-134620000D03*
X160020000Y-137160000D03*
X162560000Y-137160000D03*
X160020000Y-139700000D03*
X162560000Y-139700000D03*
X160020000Y-142240000D03*
X162560000Y-142240000D03*
D17*
X132080000Y-77470000D03*
D18*
X134620000Y-77470000D03*
X132080000Y-80010000D03*
X134620000Y-80010000D03*
X132080000Y-82550000D03*
X134620000Y-82550000D03*
X132080000Y-85090000D03*
X134620000Y-85090000D03*
X132080000Y-87630000D03*
X134620000Y-87630000D03*
X132080000Y-90170000D03*
X134620000Y-90170000D03*
X132080000Y-92710000D03*
X134620000Y-92710000D03*
X132080000Y-95250000D03*
X134620000Y-95250000D03*
X132080000Y-97790000D03*
X134620000Y-97790000D03*
D24*
X143510000Y-106680000D03*
X142240000Y-106680000D03*
D25*
X144780000Y-106680000D03*
D12*
X142240000Y-101600000D03*
D11*
X139700000Y-101600000D03*
X144780000Y-101600000D03*
D12*
X147320000Y-101600000D03*
X149860000Y-106680000D03*
D11*
X147320000Y-106680000D03*
X135890000Y-130810000D03*
D12*
X133350000Y-130810000D03*
X134620000Y-53340000D03*
D11*
X137160000Y-53340000D03*
D12*
X134620000Y-71120000D03*
D11*
X137160000Y-71120000D03*
D12*
X149860000Y-73660000D03*
D11*
X147320000Y-73660000D03*
D12*
X149860000Y-53340000D03*
D11*
X147320000Y-53340000D03*
X134620000Y-55880000D03*
D12*
X137160000Y-55880000D03*
D11*
X134620000Y-68580000D03*
D12*
X137160000Y-68580000D03*
D11*
X149860000Y-69850000D03*
D12*
X147320000Y-69850000D03*
D11*
X149860000Y-55880000D03*
D12*
X147320000Y-55880000D03*
D20*
X129540000Y-140390000D03*
X129540000Y-135890000D03*
X136040000Y-140390000D03*
X136040000Y-135890000D03*
D23*
X149860000Y-58420000D03*
D11*
X134620000Y-66040000D03*
X147320000Y-58420000D03*
X137160000Y-66040000D03*
X144780000Y-58420000D03*
X139700000Y-66040000D03*
X142240000Y-58420000D03*
X142240000Y-66040000D03*
X139700000Y-58420000D03*
X144780000Y-66040000D03*
X137160000Y-58420000D03*
X147320000Y-66040000D03*
X134620000Y-58420000D03*
X149860000Y-66040000D03*
D26*
X158750000Y-127000000D03*
X158750000Y-111760000D03*
X156210000Y-127000000D03*
X156210000Y-111760000D03*
X153670000Y-127000000D03*
X153670000Y-111760000D03*
X151130000Y-127000000D03*
X151130000Y-111760000D03*
X148590000Y-127000000D03*
X148590000Y-111760000D03*
X146050000Y-127000000D03*
X146050000Y-111760000D03*
X143510000Y-127000000D03*
X143510000Y-111760000D03*
X140970000Y-127000000D03*
X140970000Y-111760000D03*
X138430000Y-127000000D03*
X138430000Y-111760000D03*
X135890000Y-127000000D03*
X135890000Y-111760000D03*
X133350000Y-127000000D03*
X133350000Y-111760000D03*
X130810000Y-127000000D03*
X130810000Y-111760000D03*
D23*
X157480000Y-76200000D03*
D11*
X139700000Y-83820000D03*
X154940000Y-76200000D03*
X142240000Y-83820000D03*
X152400000Y-76200000D03*
X144780000Y-83820000D03*
X149860000Y-76200000D03*
X147320000Y-83820000D03*
X147320000Y-76200000D03*
X149860000Y-83820000D03*
X144780000Y-76200000D03*
X152400000Y-83820000D03*
X142240000Y-76200000D03*
X154940000Y-83820000D03*
X139700000Y-76200000D03*
X157480000Y-83820000D03*
M02*
