G04 #@! TF.GenerationSoftware,KiCad,Pcbnew,(5.1.8-0-10_14)*
G04 #@! TF.CreationDate,2023-03-10T16:16:57+09:00*
G04 #@! TF.ProjectId,ButtonSequencer,42757474-6f6e-4536-9571-75656e636572,rev?*
G04 #@! TF.SameCoordinates,Original*
G04 #@! TF.FileFunction,Legend,Top*
G04 #@! TF.FilePolarity,Positive*
%FSLAX46Y46*%
G04 Gerber Fmt 4.6, Leading zero omitted, Abs format (unit mm)*
G04 Created by KiCad (PCBNEW (5.1.8-0-10_14)) date 2023-03-10 16:16:57*
%MOMM*%
%LPD*%
G01*
G04 APERTURE LIST*
%ADD10C,0.150000*%
%ADD11C,0.120000*%
%ADD12C,3.200000*%
%ADD13C,9.000000*%
%ADD14R,1.800000X1.800000*%
%ADD15C,1.800000*%
%ADD16O,2.130000X2.500000*%
%ADD17R,1.830000X1.930000*%
%ADD18O,2.500000X2.130000*%
%ADD19R,1.930000X1.830000*%
%ADD20C,1.600000*%
%ADD21O,1.600000X1.600000*%
%ADD22R,2.500000X3.000000*%
%ADD23C,2.000000*%
%ADD24R,2.000000X2.000000*%
%ADD25O,1.700000X1.700000*%
%ADD26R,1.700000X1.700000*%
%ADD27C,1.524000*%
%ADD28O,3.300000X1.524000*%
%ADD29R,1.600000X1.600000*%
%ADD30O,2.000000X1.200000*%
%ADD31R,2.240000X2.240000*%
%ADD32O,2.240000X2.240000*%
%ADD33C,1.500000*%
%ADD34R,1.500000X1.500000*%
G04 APERTURE END LIST*
D10*
X90622380Y-108218809D02*
X89622380Y-108218809D01*
X90003333Y-108218809D02*
X89955714Y-108123571D01*
X89955714Y-107933095D01*
X90003333Y-107837857D01*
X90050952Y-107790238D01*
X90146190Y-107742619D01*
X90431904Y-107742619D01*
X90527142Y-107790238D01*
X90574761Y-107837857D01*
X90622380Y-107933095D01*
X90622380Y-108123571D01*
X90574761Y-108218809D01*
X89955714Y-106885476D02*
X90622380Y-106885476D01*
X89955714Y-107314047D02*
X90479523Y-107314047D01*
X90574761Y-107266428D01*
X90622380Y-107171190D01*
X90622380Y-107028333D01*
X90574761Y-106933095D01*
X90527142Y-106885476D01*
X89955714Y-106552142D02*
X89955714Y-106171190D01*
X89622380Y-106409285D02*
X90479523Y-106409285D01*
X90574761Y-106361666D01*
X90622380Y-106266428D01*
X90622380Y-106171190D01*
X89955714Y-105980714D02*
X89955714Y-105599761D01*
X89622380Y-105837857D02*
X90479523Y-105837857D01*
X90574761Y-105790238D01*
X90622380Y-105695000D01*
X90622380Y-105599761D01*
X90622380Y-105123571D02*
X90574761Y-105218809D01*
X90527142Y-105266428D01*
X90431904Y-105314047D01*
X90146190Y-105314047D01*
X90050952Y-105266428D01*
X90003333Y-105218809D01*
X89955714Y-105123571D01*
X89955714Y-104980714D01*
X90003333Y-104885476D01*
X90050952Y-104837857D01*
X90146190Y-104790238D01*
X90431904Y-104790238D01*
X90527142Y-104837857D01*
X90574761Y-104885476D01*
X90622380Y-104980714D01*
X90622380Y-105123571D01*
X89955714Y-104361666D02*
X90622380Y-104361666D01*
X90050952Y-104361666D02*
X90003333Y-104314047D01*
X89955714Y-104218809D01*
X89955714Y-104075952D01*
X90003333Y-103980714D01*
X90098571Y-103933095D01*
X90622380Y-103933095D01*
X90574761Y-102742619D02*
X90622380Y-102647380D01*
X90622380Y-102456904D01*
X90574761Y-102361666D01*
X90479523Y-102314047D01*
X90431904Y-102314047D01*
X90336666Y-102361666D01*
X90289047Y-102456904D01*
X90289047Y-102599761D01*
X90241428Y-102695000D01*
X90146190Y-102742619D01*
X90098571Y-102742619D01*
X90003333Y-102695000D01*
X89955714Y-102599761D01*
X89955714Y-102456904D01*
X90003333Y-102361666D01*
X90574761Y-101504523D02*
X90622380Y-101599761D01*
X90622380Y-101790238D01*
X90574761Y-101885476D01*
X90479523Y-101933095D01*
X90098571Y-101933095D01*
X90003333Y-101885476D01*
X89955714Y-101790238D01*
X89955714Y-101599761D01*
X90003333Y-101504523D01*
X90098571Y-101456904D01*
X90193809Y-101456904D01*
X90289047Y-101933095D01*
X89955714Y-100599761D02*
X90955714Y-100599761D01*
X90574761Y-100599761D02*
X90622380Y-100695000D01*
X90622380Y-100885476D01*
X90574761Y-100980714D01*
X90527142Y-101028333D01*
X90431904Y-101075952D01*
X90146190Y-101075952D01*
X90050952Y-101028333D01*
X90003333Y-100980714D01*
X89955714Y-100885476D01*
X89955714Y-100695000D01*
X90003333Y-100599761D01*
X89955714Y-99695000D02*
X90622380Y-99695000D01*
X89955714Y-100123571D02*
X90479523Y-100123571D01*
X90574761Y-100075952D01*
X90622380Y-99980714D01*
X90622380Y-99837857D01*
X90574761Y-99742619D01*
X90527142Y-99695000D01*
X90574761Y-98837857D02*
X90622380Y-98933095D01*
X90622380Y-99123571D01*
X90574761Y-99218809D01*
X90479523Y-99266428D01*
X90098571Y-99266428D01*
X90003333Y-99218809D01*
X89955714Y-99123571D01*
X89955714Y-98933095D01*
X90003333Y-98837857D01*
X90098571Y-98790238D01*
X90193809Y-98790238D01*
X90289047Y-99266428D01*
X89955714Y-98361666D02*
X90622380Y-98361666D01*
X90050952Y-98361666D02*
X90003333Y-98314047D01*
X89955714Y-98218809D01*
X89955714Y-98075952D01*
X90003333Y-97980714D01*
X90098571Y-97933095D01*
X90622380Y-97933095D01*
X90574761Y-97028333D02*
X90622380Y-97123571D01*
X90622380Y-97314047D01*
X90574761Y-97409285D01*
X90527142Y-97456904D01*
X90431904Y-97504523D01*
X90146190Y-97504523D01*
X90050952Y-97456904D01*
X90003333Y-97409285D01*
X89955714Y-97314047D01*
X89955714Y-97123571D01*
X90003333Y-97028333D01*
X90574761Y-96218809D02*
X90622380Y-96314047D01*
X90622380Y-96504523D01*
X90574761Y-96599761D01*
X90479523Y-96647380D01*
X90098571Y-96647380D01*
X90003333Y-96599761D01*
X89955714Y-96504523D01*
X89955714Y-96314047D01*
X90003333Y-96218809D01*
X90098571Y-96171190D01*
X90193809Y-96171190D01*
X90289047Y-96647380D01*
X90622380Y-95742619D02*
X89955714Y-95742619D01*
X90146190Y-95742619D02*
X90050952Y-95695000D01*
X90003333Y-95647380D01*
X89955714Y-95552142D01*
X89955714Y-95456904D01*
X89955714Y-94456904D02*
X90622380Y-94218809D01*
X89955714Y-93980714D01*
X90574761Y-93218809D02*
X90622380Y-93314047D01*
X90622380Y-93504523D01*
X90574761Y-93599761D01*
X90479523Y-93647380D01*
X90098571Y-93647380D01*
X90003333Y-93599761D01*
X89955714Y-93504523D01*
X89955714Y-93314047D01*
X90003333Y-93218809D01*
X90098571Y-93171190D01*
X90193809Y-93171190D01*
X90289047Y-93647380D01*
X90622380Y-92742619D02*
X89955714Y-92742619D01*
X90146190Y-92742619D02*
X90050952Y-92695000D01*
X90003333Y-92647380D01*
X89955714Y-92552142D01*
X89955714Y-92456904D01*
X90527142Y-92123571D02*
X90574761Y-92075952D01*
X90622380Y-92123571D01*
X90574761Y-92171190D01*
X90527142Y-92123571D01*
X90622380Y-92123571D01*
X89717619Y-91695000D02*
X89670000Y-91647380D01*
X89622380Y-91552142D01*
X89622380Y-91314047D01*
X89670000Y-91218809D01*
X89717619Y-91171190D01*
X89812857Y-91123571D01*
X89908095Y-91123571D01*
X90050952Y-91171190D01*
X90622380Y-91742619D01*
X90622380Y-91123571D01*
X113610476Y-140263571D02*
X113753333Y-140311190D01*
X113800952Y-140358809D01*
X113848571Y-140454047D01*
X113848571Y-140596904D01*
X113800952Y-140692142D01*
X113753333Y-140739761D01*
X113658095Y-140787380D01*
X113277142Y-140787380D01*
X113277142Y-139787380D01*
X113610476Y-139787380D01*
X113705714Y-139835000D01*
X113753333Y-139882619D01*
X113800952Y-139977857D01*
X113800952Y-140073095D01*
X113753333Y-140168333D01*
X113705714Y-140215952D01*
X113610476Y-140263571D01*
X113277142Y-140263571D01*
X114705714Y-140120714D02*
X114705714Y-140787380D01*
X114277142Y-140120714D02*
X114277142Y-140644523D01*
X114324761Y-140739761D01*
X114420000Y-140787380D01*
X114562857Y-140787380D01*
X114658095Y-140739761D01*
X114705714Y-140692142D01*
X115039047Y-140120714D02*
X115420000Y-140120714D01*
X115181904Y-139787380D02*
X115181904Y-140644523D01*
X115229523Y-140739761D01*
X115324761Y-140787380D01*
X115420000Y-140787380D01*
X115610476Y-140120714D02*
X115991428Y-140120714D01*
X115753333Y-139787380D02*
X115753333Y-140644523D01*
X115800952Y-140739761D01*
X115896190Y-140787380D01*
X115991428Y-140787380D01*
X116467619Y-140787380D02*
X116372380Y-140739761D01*
X116324761Y-140692142D01*
X116277142Y-140596904D01*
X116277142Y-140311190D01*
X116324761Y-140215952D01*
X116372380Y-140168333D01*
X116467619Y-140120714D01*
X116610476Y-140120714D01*
X116705714Y-140168333D01*
X116753333Y-140215952D01*
X116800952Y-140311190D01*
X116800952Y-140596904D01*
X116753333Y-140692142D01*
X116705714Y-140739761D01*
X116610476Y-140787380D01*
X116467619Y-140787380D01*
X117229523Y-140120714D02*
X117229523Y-140787380D01*
X117229523Y-140215952D02*
X117277142Y-140168333D01*
X117372380Y-140120714D01*
X117515238Y-140120714D01*
X117610476Y-140168333D01*
X117658095Y-140263571D01*
X117658095Y-140787380D01*
X118848571Y-140739761D02*
X118991428Y-140787380D01*
X119229523Y-140787380D01*
X119324761Y-140739761D01*
X119372380Y-140692142D01*
X119420000Y-140596904D01*
X119420000Y-140501666D01*
X119372380Y-140406428D01*
X119324761Y-140358809D01*
X119229523Y-140311190D01*
X119039047Y-140263571D01*
X118943809Y-140215952D01*
X118896190Y-140168333D01*
X118848571Y-140073095D01*
X118848571Y-139977857D01*
X118896190Y-139882619D01*
X118943809Y-139835000D01*
X119039047Y-139787380D01*
X119277142Y-139787380D01*
X119420000Y-139835000D01*
X120229523Y-140739761D02*
X120134285Y-140787380D01*
X119943809Y-140787380D01*
X119848571Y-140739761D01*
X119800952Y-140644523D01*
X119800952Y-140263571D01*
X119848571Y-140168333D01*
X119943809Y-140120714D01*
X120134285Y-140120714D01*
X120229523Y-140168333D01*
X120277142Y-140263571D01*
X120277142Y-140358809D01*
X119800952Y-140454047D01*
X121134285Y-140120714D02*
X121134285Y-141120714D01*
X121134285Y-140739761D02*
X121039047Y-140787380D01*
X120848571Y-140787380D01*
X120753333Y-140739761D01*
X120705714Y-140692142D01*
X120658095Y-140596904D01*
X120658095Y-140311190D01*
X120705714Y-140215952D01*
X120753333Y-140168333D01*
X120848571Y-140120714D01*
X121039047Y-140120714D01*
X121134285Y-140168333D01*
X122039047Y-140120714D02*
X122039047Y-140787380D01*
X121610476Y-140120714D02*
X121610476Y-140644523D01*
X121658095Y-140739761D01*
X121753333Y-140787380D01*
X121896190Y-140787380D01*
X121991428Y-140739761D01*
X122039047Y-140692142D01*
X122896190Y-140739761D02*
X122800952Y-140787380D01*
X122610476Y-140787380D01*
X122515238Y-140739761D01*
X122467619Y-140644523D01*
X122467619Y-140263571D01*
X122515238Y-140168333D01*
X122610476Y-140120714D01*
X122800952Y-140120714D01*
X122896190Y-140168333D01*
X122943809Y-140263571D01*
X122943809Y-140358809D01*
X122467619Y-140454047D01*
X123372380Y-140120714D02*
X123372380Y-140787380D01*
X123372380Y-140215952D02*
X123419999Y-140168333D01*
X123515238Y-140120714D01*
X123658095Y-140120714D01*
X123753333Y-140168333D01*
X123800952Y-140263571D01*
X123800952Y-140787380D01*
X124705714Y-140739761D02*
X124610476Y-140787380D01*
X124419999Y-140787380D01*
X124324761Y-140739761D01*
X124277142Y-140692142D01*
X124229523Y-140596904D01*
X124229523Y-140311190D01*
X124277142Y-140215952D01*
X124324761Y-140168333D01*
X124419999Y-140120714D01*
X124610476Y-140120714D01*
X124705714Y-140168333D01*
X125515238Y-140739761D02*
X125419999Y-140787380D01*
X125229523Y-140787380D01*
X125134285Y-140739761D01*
X125086666Y-140644523D01*
X125086666Y-140263571D01*
X125134285Y-140168333D01*
X125229523Y-140120714D01*
X125419999Y-140120714D01*
X125515238Y-140168333D01*
X125562857Y-140263571D01*
X125562857Y-140358809D01*
X125086666Y-140454047D01*
X125991428Y-140787380D02*
X125991428Y-140120714D01*
X125991428Y-140311190D02*
X126039047Y-140215952D01*
X126086666Y-140168333D01*
X126181904Y-140120714D01*
X126277142Y-140120714D01*
X127277142Y-140120714D02*
X127515238Y-140787380D01*
X127753333Y-140120714D01*
X128515238Y-140739761D02*
X128419999Y-140787380D01*
X128229523Y-140787380D01*
X128134285Y-140739761D01*
X128086666Y-140644523D01*
X128086666Y-140263571D01*
X128134285Y-140168333D01*
X128229523Y-140120714D01*
X128419999Y-140120714D01*
X128515238Y-140168333D01*
X128562857Y-140263571D01*
X128562857Y-140358809D01*
X128086666Y-140454047D01*
X128991428Y-140787380D02*
X128991428Y-140120714D01*
X128991428Y-140311190D02*
X129039047Y-140215952D01*
X129086666Y-140168333D01*
X129181904Y-140120714D01*
X129277142Y-140120714D01*
X129610476Y-140692142D02*
X129658095Y-140739761D01*
X129610476Y-140787380D01*
X129562857Y-140739761D01*
X129610476Y-140692142D01*
X129610476Y-140787380D01*
X130039047Y-139882619D02*
X130086666Y-139835000D01*
X130181904Y-139787380D01*
X130419999Y-139787380D01*
X130515238Y-139835000D01*
X130562857Y-139882619D01*
X130610476Y-139977857D01*
X130610476Y-140073095D01*
X130562857Y-140215952D01*
X129991428Y-140787380D01*
X130610476Y-140787380D01*
D11*
X81760000Y-64006000D02*
X81760000Y-64325000D01*
X81760000Y-66485000D02*
X81760000Y-66804000D01*
X86063242Y-64324276D02*
G75*
G03*
X81760000Y-64006251I-2243242J-1080724D01*
G01*
X86063242Y-66485724D02*
G75*
G02*
X81760000Y-66803749I-2243242J1080724D01*
G01*
X85502713Y-64324039D02*
G75*
G03*
X82136670Y-64325000I-1682713J-1080961D01*
G01*
X85502713Y-66485961D02*
G75*
G02*
X82136670Y-66485000I-1682713J1080961D01*
G01*
X94460000Y-64006000D02*
X94460000Y-64325000D01*
X94460000Y-66485000D02*
X94460000Y-66804000D01*
X98763242Y-64324276D02*
G75*
G03*
X94460000Y-64006251I-2243242J-1080724D01*
G01*
X98763242Y-66485724D02*
G75*
G02*
X94460000Y-66803749I-2243242J1080724D01*
G01*
X98202713Y-64324039D02*
G75*
G03*
X94836670Y-64325000I-1682713J-1080961D01*
G01*
X98202713Y-66485961D02*
G75*
G02*
X94836670Y-66485000I-1682713J1080961D01*
G01*
X94460000Y-121156000D02*
X94460000Y-121475000D01*
X94460000Y-123635000D02*
X94460000Y-123954000D01*
X98763242Y-121474276D02*
G75*
G03*
X94460000Y-121156251I-2243242J-1080724D01*
G01*
X98763242Y-123635724D02*
G75*
G02*
X94460000Y-123953749I-2243242J1080724D01*
G01*
X98202713Y-121474039D02*
G75*
G03*
X94836670Y-121475000I-1682713J-1080961D01*
G01*
X98202713Y-123635961D02*
G75*
G02*
X94836670Y-123635000I-1682713J1080961D01*
G01*
X94460000Y-109665000D02*
X94460000Y-109984000D01*
X94460000Y-107186000D02*
X94460000Y-107505000D01*
X98202713Y-109665961D02*
G75*
G02*
X94836670Y-109665000I-1682713J1080961D01*
G01*
X98202713Y-107504039D02*
G75*
G03*
X94836670Y-107505000I-1682713J-1080961D01*
G01*
X98763242Y-109665724D02*
G75*
G02*
X94460000Y-109983749I-2243242J1080724D01*
G01*
X98763242Y-107504276D02*
G75*
G03*
X94460000Y-107186251I-2243242J-1080724D01*
G01*
X94460000Y-93216000D02*
X94460000Y-93535000D01*
X94460000Y-95695000D02*
X94460000Y-96014000D01*
X98763242Y-93534276D02*
G75*
G03*
X94460000Y-93216251I-2243242J-1080724D01*
G01*
X98763242Y-95695724D02*
G75*
G02*
X94460000Y-96013749I-2243242J1080724D01*
G01*
X98202713Y-93534039D02*
G75*
G03*
X94836670Y-93535000I-1682713J-1080961D01*
G01*
X98202713Y-95695961D02*
G75*
G02*
X94836670Y-95695000I-1682713J1080961D01*
G01*
X94460000Y-81725000D02*
X94460000Y-82044000D01*
X94460000Y-79246000D02*
X94460000Y-79565000D01*
X98202713Y-81725961D02*
G75*
G02*
X94836670Y-81725000I-1682713J1080961D01*
G01*
X98202713Y-79564039D02*
G75*
G03*
X94836670Y-79565000I-1682713J-1080961D01*
G01*
X98763242Y-81725724D02*
G75*
G02*
X94460000Y-82043749I-2243242J1080724D01*
G01*
X98763242Y-79564276D02*
G75*
G03*
X94460000Y-79246251I-2243242J-1080724D01*
G01*
X81760000Y-81725000D02*
X81760000Y-82044000D01*
X81760000Y-79246000D02*
X81760000Y-79565000D01*
X85502713Y-81725961D02*
G75*
G02*
X82136670Y-81725000I-1682713J1080961D01*
G01*
X85502713Y-79564039D02*
G75*
G03*
X82136670Y-79565000I-1682713J-1080961D01*
G01*
X86063242Y-81725724D02*
G75*
G02*
X81760000Y-82043749I-2243242J1080724D01*
G01*
X86063242Y-79564276D02*
G75*
G03*
X81760000Y-79246251I-2243242J-1080724D01*
G01*
X81760000Y-95695000D02*
X81760000Y-96014000D01*
X81760000Y-93216000D02*
X81760000Y-93535000D01*
X85502713Y-95695961D02*
G75*
G02*
X82136670Y-95695000I-1682713J1080961D01*
G01*
X85502713Y-93534039D02*
G75*
G03*
X82136670Y-93535000I-1682713J-1080961D01*
G01*
X86063242Y-95695724D02*
G75*
G02*
X81760000Y-96013749I-2243242J1080724D01*
G01*
X86063242Y-93534276D02*
G75*
G03*
X81760000Y-93216251I-2243242J-1080724D01*
G01*
X81760000Y-109665000D02*
X81760000Y-109984000D01*
X81760000Y-107186000D02*
X81760000Y-107505000D01*
X85502713Y-109665961D02*
G75*
G02*
X82136670Y-109665000I-1682713J1080961D01*
G01*
X85502713Y-107504039D02*
G75*
G03*
X82136670Y-107505000I-1682713J-1080961D01*
G01*
X86063242Y-109665724D02*
G75*
G02*
X81760000Y-109983749I-2243242J1080724D01*
G01*
X86063242Y-107504276D02*
G75*
G03*
X81760000Y-107186251I-2243242J-1080724D01*
G01*
X81760000Y-121156000D02*
X81760000Y-121475000D01*
X81760000Y-123635000D02*
X81760000Y-123954000D01*
X86063242Y-121474276D02*
G75*
G03*
X81760000Y-121156251I-2243242J-1080724D01*
G01*
X86063242Y-123635724D02*
G75*
G02*
X81760000Y-123953749I-2243242J1080724D01*
G01*
X85502713Y-121474039D02*
G75*
G03*
X82136670Y-121475000I-1682713J-1080961D01*
G01*
X85502713Y-123635961D02*
G75*
G02*
X82136670Y-123635000I-1682713J1080961D01*
G01*
X79870000Y-64375000D02*
X79870000Y-65235000D01*
X66390000Y-64935000D02*
X66390000Y-60935000D01*
X76890000Y-60935000D02*
X66390000Y-60935000D01*
X76890000Y-69935000D02*
X66390000Y-69935000D01*
X66390000Y-69935000D02*
X66390000Y-65935000D01*
X74190000Y-65435000D02*
G75*
G03*
X74190000Y-65435000I-1800000J0D01*
G01*
X79870000Y-64375000D02*
X79070000Y-64375000D01*
X76890000Y-65085000D02*
X76890000Y-60935000D01*
X76890000Y-69935000D02*
X76890000Y-65785000D01*
X71360000Y-73165000D02*
X72220000Y-73165000D01*
X71920000Y-86645000D02*
X67920000Y-86645000D01*
X67920000Y-76145000D02*
X67920000Y-86645000D01*
X76920000Y-76145000D02*
X76920000Y-86645000D01*
X76920000Y-86645000D02*
X72920000Y-86645000D01*
X74220000Y-80645000D02*
G75*
G03*
X74220000Y-80645000I-1800000J0D01*
G01*
X71360000Y-73165000D02*
X71360000Y-73965000D01*
X72070000Y-76145000D02*
X67920000Y-76145000D01*
X76920000Y-76145000D02*
X72770000Y-76145000D01*
X76920000Y-90115000D02*
X72770000Y-90115000D01*
X72070000Y-90115000D02*
X67920000Y-90115000D01*
X71360000Y-87135000D02*
X71360000Y-87935000D01*
X74220000Y-94615000D02*
G75*
G03*
X74220000Y-94615000I-1800000J0D01*
G01*
X76920000Y-100615000D02*
X72920000Y-100615000D01*
X76920000Y-90115000D02*
X76920000Y-100615000D01*
X67920000Y-90115000D02*
X67920000Y-100615000D01*
X71920000Y-100615000D02*
X67920000Y-100615000D01*
X71360000Y-87135000D02*
X72220000Y-87135000D01*
X71360000Y-101105000D02*
X72220000Y-101105000D01*
X71920000Y-114585000D02*
X67920000Y-114585000D01*
X67920000Y-104085000D02*
X67920000Y-114585000D01*
X76920000Y-104085000D02*
X76920000Y-114585000D01*
X76920000Y-114585000D02*
X72920000Y-114585000D01*
X74220000Y-108585000D02*
G75*
G03*
X74220000Y-108585000I-1800000J0D01*
G01*
X71360000Y-101105000D02*
X71360000Y-101905000D01*
X72070000Y-104085000D02*
X67920000Y-104085000D01*
X76920000Y-104085000D02*
X72770000Y-104085000D01*
X76920000Y-118055000D02*
X72770000Y-118055000D01*
X72070000Y-118055000D02*
X67920000Y-118055000D01*
X71360000Y-115075000D02*
X71360000Y-115875000D01*
X74220000Y-122555000D02*
G75*
G03*
X74220000Y-122555000I-1800000J0D01*
G01*
X76920000Y-128555000D02*
X72920000Y-128555000D01*
X76920000Y-118055000D02*
X76920000Y-128555000D01*
X67920000Y-118055000D02*
X67920000Y-128555000D01*
X71920000Y-128555000D02*
X67920000Y-128555000D01*
X71360000Y-115075000D02*
X72220000Y-115075000D01*
X89000000Y-144145000D02*
G75*
G03*
X89000000Y-144145000I-1370000J0D01*
G01*
X87630000Y-145515000D02*
X87630000Y-145585000D01*
X86260000Y-136525000D02*
X86190000Y-136525000D01*
X89000000Y-136525000D02*
G75*
G03*
X89000000Y-136525000I-1370000J0D01*
G01*
X83920000Y-70485000D02*
G75*
G03*
X83920000Y-70485000I-1370000J0D01*
G01*
X83920000Y-70485000D02*
X83990000Y-70485000D01*
X85090000Y-145515000D02*
X85090000Y-145585000D01*
X86460000Y-144145000D02*
G75*
G03*
X86460000Y-144145000I-1370000J0D01*
G01*
X66040000Y-144245000D02*
X66040000Y-144315000D01*
X67410000Y-142875000D02*
G75*
G03*
X67410000Y-142875000I-1370000J0D01*
G01*
X93445000Y-67945000D02*
G75*
G03*
X93445000Y-67945000I-1370000J0D01*
G01*
X92075000Y-66575000D02*
X92075000Y-66505000D01*
X96620000Y-118110000D02*
G75*
G03*
X96620000Y-118110000I-1370000J0D01*
G01*
X96620000Y-118110000D02*
X96690000Y-118110000D01*
X96620000Y-104140000D02*
X96690000Y-104140000D01*
X96620000Y-104140000D02*
G75*
G03*
X96620000Y-104140000I-1370000J0D01*
G01*
X96620000Y-99060000D02*
G75*
G03*
X96620000Y-99060000I-1370000J0D01*
G01*
X96620000Y-99060000D02*
X96690000Y-99060000D01*
X96620000Y-85725000D02*
X96690000Y-85725000D01*
X96620000Y-85725000D02*
G75*
G03*
X96620000Y-85725000I-1370000J0D01*
G01*
X83920000Y-75565000D02*
G75*
G03*
X83920000Y-75565000I-1370000J0D01*
G01*
X81180000Y-75565000D02*
X81110000Y-75565000D01*
X83920000Y-90170000D02*
G75*
G03*
X83920000Y-90170000I-1370000J0D01*
G01*
X81180000Y-90170000D02*
X81110000Y-90170000D01*
X83920000Y-103505000D02*
X83990000Y-103505000D01*
X83920000Y-103505000D02*
G75*
G03*
X83920000Y-103505000I-1370000J0D01*
G01*
X83920000Y-118110000D02*
G75*
G03*
X83920000Y-118110000I-1370000J0D01*
G01*
X81180000Y-118110000D02*
X81110000Y-118110000D01*
X78740000Y-84355000D02*
X78740000Y-84285000D01*
X80110000Y-85725000D02*
G75*
G03*
X80110000Y-85725000I-1370000J0D01*
G01*
X78740000Y-98325000D02*
X78740000Y-98255000D01*
X80110000Y-99695000D02*
G75*
G03*
X80110000Y-99695000I-1370000J0D01*
G01*
X78740000Y-112295000D02*
X78740000Y-112225000D01*
X80110000Y-113665000D02*
G75*
G03*
X80110000Y-113665000I-1370000J0D01*
G01*
X80110000Y-127635000D02*
G75*
G03*
X80110000Y-127635000I-1370000J0D01*
G01*
X78740000Y-126265000D02*
X78740000Y-126195000D01*
X74890000Y-138415000D02*
X74890000Y-137415000D01*
X74390000Y-137915000D02*
X75390000Y-137915000D01*
X70790000Y-145115000D02*
X71090000Y-145415000D01*
X70790000Y-145715000D02*
X70790000Y-145115000D01*
X71090000Y-145415000D02*
X70790000Y-145715000D01*
X68590000Y-144615000D02*
X71090000Y-144615000D01*
X68590000Y-139815000D02*
X68590000Y-144615000D01*
X81190000Y-144615000D02*
X78390000Y-144615000D01*
X81190000Y-139715000D02*
X81190000Y-144615000D01*
X81190000Y-131215000D02*
X81190000Y-136115000D01*
X68590000Y-131215000D02*
X81190000Y-131215000D01*
X68590000Y-136115000D02*
X68590000Y-131215000D01*
X77890000Y-137915000D02*
G75*
G03*
X77890000Y-137915000I-3000000J0D01*
G01*
X83245000Y-154880000D02*
X80585000Y-154880000D01*
X83245000Y-157480000D02*
X83245000Y-154880000D01*
X80585000Y-157480000D02*
X80585000Y-154880000D01*
X83245000Y-157480000D02*
X80585000Y-157480000D01*
X83245000Y-158750000D02*
X83245000Y-160080000D01*
X83245000Y-160080000D02*
X81915000Y-160080000D01*
X84060000Y-142805000D02*
X86060000Y-142805000D01*
X86060000Y-142805000D02*
X86060000Y-137965000D01*
X86060000Y-137965000D02*
X84060000Y-137965000D01*
X84060000Y-137965000D02*
X84060000Y-142805000D01*
X65010000Y-136695000D02*
X65010000Y-141535000D01*
X67010000Y-136695000D02*
X65010000Y-136695000D01*
X67010000Y-141535000D02*
X67010000Y-136695000D01*
X65010000Y-141535000D02*
X67010000Y-141535000D01*
X64710000Y-107375000D02*
X67370000Y-107375000D01*
X64710000Y-84455000D02*
X64710000Y-107375000D01*
X67370000Y-84455000D02*
X67370000Y-107375000D01*
X64710000Y-84455000D02*
X67370000Y-84455000D01*
X64710000Y-83185000D02*
X64710000Y-81855000D01*
X64710000Y-81855000D02*
X66040000Y-81855000D01*
X97730000Y-130115000D02*
X99060000Y-130115000D01*
X97730000Y-131445000D02*
X97730000Y-130115000D01*
X97730000Y-132715000D02*
X100390000Y-132715000D01*
X100390000Y-132715000D02*
X100390000Y-155635000D01*
X97730000Y-132715000D02*
X97730000Y-155635000D01*
X97730000Y-155635000D02*
X100390000Y-155635000D01*
X96660000Y-154305000D02*
G75*
G03*
X96660000Y-154305000I-3950000J0D01*
G01*
X96660000Y-137795000D02*
G75*
G03*
X96660000Y-137795000I-3950000J0D01*
G01*
X112970000Y-122445000D02*
X112970000Y-124095000D01*
X130870000Y-122445000D02*
X112970000Y-122445000D01*
X130870000Y-127745000D02*
X130870000Y-122445000D01*
X112970000Y-127745000D02*
X130870000Y-127745000D01*
X112970000Y-126095000D02*
X112970000Y-127745000D01*
X112970000Y-124095000D02*
G75*
G02*
X112970000Y-126095000I0J-1000000D01*
G01*
X135285241Y-158999000D02*
X135285241Y-158369000D01*
X135600241Y-158684000D02*
X134970241Y-158684000D01*
X128859000Y-157247000D02*
X128859000Y-156443000D01*
X128899000Y-157478000D02*
X128899000Y-156212000D01*
X128939000Y-157647000D02*
X128939000Y-156043000D01*
X128979000Y-157785000D02*
X128979000Y-155905000D01*
X129019000Y-157904000D02*
X129019000Y-155786000D01*
X129059000Y-158010000D02*
X129059000Y-155680000D01*
X129099000Y-158107000D02*
X129099000Y-155583000D01*
X129139000Y-158195000D02*
X129139000Y-155495000D01*
X129179000Y-158277000D02*
X129179000Y-155413000D01*
X129219000Y-158354000D02*
X129219000Y-155336000D01*
X129259000Y-158426000D02*
X129259000Y-155264000D01*
X129299000Y-158495000D02*
X129299000Y-155195000D01*
X129339000Y-158559000D02*
X129339000Y-155131000D01*
X129379000Y-158621000D02*
X129379000Y-155069000D01*
X129419000Y-158679000D02*
X129419000Y-155011000D01*
X129459000Y-158735000D02*
X129459000Y-154955000D01*
X129499000Y-158789000D02*
X129499000Y-154901000D01*
X129539000Y-158840000D02*
X129539000Y-154850000D01*
X129579000Y-158889000D02*
X129579000Y-154801000D01*
X129619000Y-158937000D02*
X129619000Y-154753000D01*
X129659000Y-158982000D02*
X129659000Y-154708000D01*
X129699000Y-159027000D02*
X129699000Y-154663000D01*
X129739000Y-159069000D02*
X129739000Y-154621000D01*
X129779000Y-159110000D02*
X129779000Y-154580000D01*
X129819000Y-155805000D02*
X129819000Y-154540000D01*
X129819000Y-159150000D02*
X129819000Y-157885000D01*
X129859000Y-155805000D02*
X129859000Y-154502000D01*
X129859000Y-159188000D02*
X129859000Y-157885000D01*
X129899000Y-155805000D02*
X129899000Y-154465000D01*
X129899000Y-159225000D02*
X129899000Y-157885000D01*
X129939000Y-155805000D02*
X129939000Y-154429000D01*
X129939000Y-159261000D02*
X129939000Y-157885000D01*
X129979000Y-155805000D02*
X129979000Y-154395000D01*
X129979000Y-159295000D02*
X129979000Y-157885000D01*
X130019000Y-155805000D02*
X130019000Y-154361000D01*
X130019000Y-159329000D02*
X130019000Y-157885000D01*
X130059000Y-155805000D02*
X130059000Y-154329000D01*
X130059000Y-159361000D02*
X130059000Y-157885000D01*
X130099000Y-155805000D02*
X130099000Y-154297000D01*
X130099000Y-159393000D02*
X130099000Y-157885000D01*
X130139000Y-155805000D02*
X130139000Y-154267000D01*
X130139000Y-159423000D02*
X130139000Y-157885000D01*
X130179000Y-155805000D02*
X130179000Y-154238000D01*
X130179000Y-159452000D02*
X130179000Y-157885000D01*
X130219000Y-155805000D02*
X130219000Y-154209000D01*
X130219000Y-159481000D02*
X130219000Y-157885000D01*
X130259000Y-155805000D02*
X130259000Y-154181000D01*
X130259000Y-159509000D02*
X130259000Y-157885000D01*
X130299000Y-155805000D02*
X130299000Y-154155000D01*
X130299000Y-159535000D02*
X130299000Y-157885000D01*
X130339000Y-155805000D02*
X130339000Y-154129000D01*
X130339000Y-159561000D02*
X130339000Y-157885000D01*
X130379000Y-155805000D02*
X130379000Y-154103000D01*
X130379000Y-159587000D02*
X130379000Y-157885000D01*
X130419000Y-155805000D02*
X130419000Y-154079000D01*
X130419000Y-159611000D02*
X130419000Y-157885000D01*
X130459000Y-155805000D02*
X130459000Y-154055000D01*
X130459000Y-159635000D02*
X130459000Y-157885000D01*
X130499000Y-155805000D02*
X130499000Y-154033000D01*
X130499000Y-159657000D02*
X130499000Y-157885000D01*
X130539000Y-155805000D02*
X130539000Y-154011000D01*
X130539000Y-159679000D02*
X130539000Y-157885000D01*
X130579000Y-155805000D02*
X130579000Y-153989000D01*
X130579000Y-159701000D02*
X130579000Y-157885000D01*
X130619000Y-155805000D02*
X130619000Y-153969000D01*
X130619000Y-159721000D02*
X130619000Y-157885000D01*
X130659000Y-155805000D02*
X130659000Y-153949000D01*
X130659000Y-159741000D02*
X130659000Y-157885000D01*
X130699000Y-155805000D02*
X130699000Y-153929000D01*
X130699000Y-159761000D02*
X130699000Y-157885000D01*
X130739000Y-155805000D02*
X130739000Y-153911000D01*
X130739000Y-159779000D02*
X130739000Y-157885000D01*
X130779000Y-155805000D02*
X130779000Y-153893000D01*
X130779000Y-159797000D02*
X130779000Y-157885000D01*
X130819000Y-155805000D02*
X130819000Y-153875000D01*
X130819000Y-159815000D02*
X130819000Y-157885000D01*
X130859000Y-155805000D02*
X130859000Y-153859000D01*
X130859000Y-159831000D02*
X130859000Y-157885000D01*
X130899000Y-155805000D02*
X130899000Y-153843000D01*
X130899000Y-159847000D02*
X130899000Y-157885000D01*
X130939000Y-155805000D02*
X130939000Y-153827000D01*
X130939000Y-159863000D02*
X130939000Y-157885000D01*
X130979000Y-155805000D02*
X130979000Y-153812000D01*
X130979000Y-159878000D02*
X130979000Y-157885000D01*
X131019000Y-155805000D02*
X131019000Y-153798000D01*
X131019000Y-159892000D02*
X131019000Y-157885000D01*
X131059000Y-155805000D02*
X131059000Y-153784000D01*
X131059000Y-159906000D02*
X131059000Y-157885000D01*
X131099000Y-155805000D02*
X131099000Y-153771000D01*
X131099000Y-159919000D02*
X131099000Y-157885000D01*
X131139000Y-155805000D02*
X131139000Y-153759000D01*
X131139000Y-159931000D02*
X131139000Y-157885000D01*
X131179000Y-155805000D02*
X131179000Y-153747000D01*
X131179000Y-159943000D02*
X131179000Y-157885000D01*
X131219000Y-155805000D02*
X131219000Y-153735000D01*
X131219000Y-159955000D02*
X131219000Y-157885000D01*
X131259000Y-155805000D02*
X131259000Y-153724000D01*
X131259000Y-159966000D02*
X131259000Y-157885000D01*
X131299000Y-155805000D02*
X131299000Y-153714000D01*
X131299000Y-159976000D02*
X131299000Y-157885000D01*
X131339000Y-155805000D02*
X131339000Y-153704000D01*
X131339000Y-159986000D02*
X131339000Y-157885000D01*
X131379000Y-155805000D02*
X131379000Y-153695000D01*
X131379000Y-159995000D02*
X131379000Y-157885000D01*
X131420000Y-155805000D02*
X131420000Y-153686000D01*
X131420000Y-160004000D02*
X131420000Y-157885000D01*
X131460000Y-155805000D02*
X131460000Y-153678000D01*
X131460000Y-160012000D02*
X131460000Y-157885000D01*
X131500000Y-155805000D02*
X131500000Y-153670000D01*
X131500000Y-160020000D02*
X131500000Y-157885000D01*
X131540000Y-155805000D02*
X131540000Y-153663000D01*
X131540000Y-160027000D02*
X131540000Y-157885000D01*
X131580000Y-155805000D02*
X131580000Y-153656000D01*
X131580000Y-160034000D02*
X131580000Y-157885000D01*
X131620000Y-155805000D02*
X131620000Y-153650000D01*
X131620000Y-160040000D02*
X131620000Y-157885000D01*
X131660000Y-155805000D02*
X131660000Y-153644000D01*
X131660000Y-160046000D02*
X131660000Y-157885000D01*
X131700000Y-155805000D02*
X131700000Y-153639000D01*
X131700000Y-160051000D02*
X131700000Y-157885000D01*
X131740000Y-155805000D02*
X131740000Y-153634000D01*
X131740000Y-160056000D02*
X131740000Y-157885000D01*
X131780000Y-155805000D02*
X131780000Y-153630000D01*
X131780000Y-160060000D02*
X131780000Y-157885000D01*
X131820000Y-155805000D02*
X131820000Y-153627000D01*
X131820000Y-160063000D02*
X131820000Y-157885000D01*
X131860000Y-155805000D02*
X131860000Y-153623000D01*
X131860000Y-160067000D02*
X131860000Y-157885000D01*
X131900000Y-160069000D02*
X131900000Y-153621000D01*
X131940000Y-160072000D02*
X131940000Y-153618000D01*
X131980000Y-160073000D02*
X131980000Y-153617000D01*
X132020000Y-160075000D02*
X132020000Y-153615000D01*
X132060000Y-160075000D02*
X132060000Y-153615000D01*
X132100000Y-160075000D02*
X132100000Y-153615000D01*
X135370000Y-156845000D02*
G75*
G03*
X135370000Y-156845000I-3270000J0D01*
G01*
X127750000Y-156845000D02*
G75*
G03*
X127750000Y-156845000I-3270000J0D01*
G01*
X124480000Y-160075000D02*
X124480000Y-153615000D01*
X124440000Y-160075000D02*
X124440000Y-153615000D01*
X124400000Y-160075000D02*
X124400000Y-153615000D01*
X124360000Y-160073000D02*
X124360000Y-153617000D01*
X124320000Y-160072000D02*
X124320000Y-153618000D01*
X124280000Y-160069000D02*
X124280000Y-153621000D01*
X124240000Y-160067000D02*
X124240000Y-157885000D01*
X124240000Y-155805000D02*
X124240000Y-153623000D01*
X124200000Y-160063000D02*
X124200000Y-157885000D01*
X124200000Y-155805000D02*
X124200000Y-153627000D01*
X124160000Y-160060000D02*
X124160000Y-157885000D01*
X124160000Y-155805000D02*
X124160000Y-153630000D01*
X124120000Y-160056000D02*
X124120000Y-157885000D01*
X124120000Y-155805000D02*
X124120000Y-153634000D01*
X124080000Y-160051000D02*
X124080000Y-157885000D01*
X124080000Y-155805000D02*
X124080000Y-153639000D01*
X124040000Y-160046000D02*
X124040000Y-157885000D01*
X124040000Y-155805000D02*
X124040000Y-153644000D01*
X124000000Y-160040000D02*
X124000000Y-157885000D01*
X124000000Y-155805000D02*
X124000000Y-153650000D01*
X123960000Y-160034000D02*
X123960000Y-157885000D01*
X123960000Y-155805000D02*
X123960000Y-153656000D01*
X123920000Y-160027000D02*
X123920000Y-157885000D01*
X123920000Y-155805000D02*
X123920000Y-153663000D01*
X123880000Y-160020000D02*
X123880000Y-157885000D01*
X123880000Y-155805000D02*
X123880000Y-153670000D01*
X123840000Y-160012000D02*
X123840000Y-157885000D01*
X123840000Y-155805000D02*
X123840000Y-153678000D01*
X123800000Y-160004000D02*
X123800000Y-157885000D01*
X123800000Y-155805000D02*
X123800000Y-153686000D01*
X123759000Y-159995000D02*
X123759000Y-157885000D01*
X123759000Y-155805000D02*
X123759000Y-153695000D01*
X123719000Y-159986000D02*
X123719000Y-157885000D01*
X123719000Y-155805000D02*
X123719000Y-153704000D01*
X123679000Y-159976000D02*
X123679000Y-157885000D01*
X123679000Y-155805000D02*
X123679000Y-153714000D01*
X123639000Y-159966000D02*
X123639000Y-157885000D01*
X123639000Y-155805000D02*
X123639000Y-153724000D01*
X123599000Y-159955000D02*
X123599000Y-157885000D01*
X123599000Y-155805000D02*
X123599000Y-153735000D01*
X123559000Y-159943000D02*
X123559000Y-157885000D01*
X123559000Y-155805000D02*
X123559000Y-153747000D01*
X123519000Y-159931000D02*
X123519000Y-157885000D01*
X123519000Y-155805000D02*
X123519000Y-153759000D01*
X123479000Y-159919000D02*
X123479000Y-157885000D01*
X123479000Y-155805000D02*
X123479000Y-153771000D01*
X123439000Y-159906000D02*
X123439000Y-157885000D01*
X123439000Y-155805000D02*
X123439000Y-153784000D01*
X123399000Y-159892000D02*
X123399000Y-157885000D01*
X123399000Y-155805000D02*
X123399000Y-153798000D01*
X123359000Y-159878000D02*
X123359000Y-157885000D01*
X123359000Y-155805000D02*
X123359000Y-153812000D01*
X123319000Y-159863000D02*
X123319000Y-157885000D01*
X123319000Y-155805000D02*
X123319000Y-153827000D01*
X123279000Y-159847000D02*
X123279000Y-157885000D01*
X123279000Y-155805000D02*
X123279000Y-153843000D01*
X123239000Y-159831000D02*
X123239000Y-157885000D01*
X123239000Y-155805000D02*
X123239000Y-153859000D01*
X123199000Y-159815000D02*
X123199000Y-157885000D01*
X123199000Y-155805000D02*
X123199000Y-153875000D01*
X123159000Y-159797000D02*
X123159000Y-157885000D01*
X123159000Y-155805000D02*
X123159000Y-153893000D01*
X123119000Y-159779000D02*
X123119000Y-157885000D01*
X123119000Y-155805000D02*
X123119000Y-153911000D01*
X123079000Y-159761000D02*
X123079000Y-157885000D01*
X123079000Y-155805000D02*
X123079000Y-153929000D01*
X123039000Y-159741000D02*
X123039000Y-157885000D01*
X123039000Y-155805000D02*
X123039000Y-153949000D01*
X122999000Y-159721000D02*
X122999000Y-157885000D01*
X122999000Y-155805000D02*
X122999000Y-153969000D01*
X122959000Y-159701000D02*
X122959000Y-157885000D01*
X122959000Y-155805000D02*
X122959000Y-153989000D01*
X122919000Y-159679000D02*
X122919000Y-157885000D01*
X122919000Y-155805000D02*
X122919000Y-154011000D01*
X122879000Y-159657000D02*
X122879000Y-157885000D01*
X122879000Y-155805000D02*
X122879000Y-154033000D01*
X122839000Y-159635000D02*
X122839000Y-157885000D01*
X122839000Y-155805000D02*
X122839000Y-154055000D01*
X122799000Y-159611000D02*
X122799000Y-157885000D01*
X122799000Y-155805000D02*
X122799000Y-154079000D01*
X122759000Y-159587000D02*
X122759000Y-157885000D01*
X122759000Y-155805000D02*
X122759000Y-154103000D01*
X122719000Y-159561000D02*
X122719000Y-157885000D01*
X122719000Y-155805000D02*
X122719000Y-154129000D01*
X122679000Y-159535000D02*
X122679000Y-157885000D01*
X122679000Y-155805000D02*
X122679000Y-154155000D01*
X122639000Y-159509000D02*
X122639000Y-157885000D01*
X122639000Y-155805000D02*
X122639000Y-154181000D01*
X122599000Y-159481000D02*
X122599000Y-157885000D01*
X122599000Y-155805000D02*
X122599000Y-154209000D01*
X122559000Y-159452000D02*
X122559000Y-157885000D01*
X122559000Y-155805000D02*
X122559000Y-154238000D01*
X122519000Y-159423000D02*
X122519000Y-157885000D01*
X122519000Y-155805000D02*
X122519000Y-154267000D01*
X122479000Y-159393000D02*
X122479000Y-157885000D01*
X122479000Y-155805000D02*
X122479000Y-154297000D01*
X122439000Y-159361000D02*
X122439000Y-157885000D01*
X122439000Y-155805000D02*
X122439000Y-154329000D01*
X122399000Y-159329000D02*
X122399000Y-157885000D01*
X122399000Y-155805000D02*
X122399000Y-154361000D01*
X122359000Y-159295000D02*
X122359000Y-157885000D01*
X122359000Y-155805000D02*
X122359000Y-154395000D01*
X122319000Y-159261000D02*
X122319000Y-157885000D01*
X122319000Y-155805000D02*
X122319000Y-154429000D01*
X122279000Y-159225000D02*
X122279000Y-157885000D01*
X122279000Y-155805000D02*
X122279000Y-154465000D01*
X122239000Y-159188000D02*
X122239000Y-157885000D01*
X122239000Y-155805000D02*
X122239000Y-154502000D01*
X122199000Y-159150000D02*
X122199000Y-157885000D01*
X122199000Y-155805000D02*
X122199000Y-154540000D01*
X122159000Y-159110000D02*
X122159000Y-154580000D01*
X122119000Y-159069000D02*
X122119000Y-154621000D01*
X122079000Y-159027000D02*
X122079000Y-154663000D01*
X122039000Y-158982000D02*
X122039000Y-154708000D01*
X121999000Y-158937000D02*
X121999000Y-154753000D01*
X121959000Y-158889000D02*
X121959000Y-154801000D01*
X121919000Y-158840000D02*
X121919000Y-154850000D01*
X121879000Y-158789000D02*
X121879000Y-154901000D01*
X121839000Y-158735000D02*
X121839000Y-154955000D01*
X121799000Y-158679000D02*
X121799000Y-155011000D01*
X121759000Y-158621000D02*
X121759000Y-155069000D01*
X121719000Y-158559000D02*
X121719000Y-155131000D01*
X121679000Y-158495000D02*
X121679000Y-155195000D01*
X121639000Y-158426000D02*
X121639000Y-155264000D01*
X121599000Y-158354000D02*
X121599000Y-155336000D01*
X121559000Y-158277000D02*
X121559000Y-155413000D01*
X121519000Y-158195000D02*
X121519000Y-155495000D01*
X121479000Y-158107000D02*
X121479000Y-155583000D01*
X121439000Y-158010000D02*
X121439000Y-155680000D01*
X121399000Y-157904000D02*
X121399000Y-155786000D01*
X121359000Y-157785000D02*
X121359000Y-155905000D01*
X121319000Y-157647000D02*
X121319000Y-156043000D01*
X121279000Y-157478000D02*
X121279000Y-156212000D01*
X121239000Y-157247000D02*
X121239000Y-156443000D01*
X127980241Y-158684000D02*
X127350241Y-158684000D01*
X127665241Y-158999000D02*
X127665241Y-158369000D01*
X106680000Y-84555000D02*
X106680000Y-84625000D01*
X108050000Y-83185000D02*
G75*
G03*
X108050000Y-83185000I-1370000J0D01*
G01*
X133450000Y-85725000D02*
G75*
G03*
X133450000Y-85725000I-1370000J0D01*
G01*
X132080000Y-84355000D02*
X132080000Y-84285000D01*
X137160000Y-84355000D02*
X137160000Y-84285000D01*
X138530000Y-85725000D02*
G75*
G03*
X138530000Y-85725000I-1370000J0D01*
G01*
X105510000Y-75565000D02*
G75*
G03*
X105510000Y-75565000I-1370000J0D01*
G01*
X105510000Y-75565000D02*
X105580000Y-75565000D01*
X128170000Y-133985000D02*
X128100000Y-133985000D01*
X130910000Y-133985000D02*
G75*
G03*
X130910000Y-133985000I-1370000J0D01*
G01*
X128170000Y-116205000D02*
X128100000Y-116205000D01*
X130910000Y-116205000D02*
G75*
G03*
X130910000Y-116205000I-1370000J0D01*
G01*
X115670000Y-116205000D02*
X115740000Y-116205000D01*
X115670000Y-116205000D02*
G75*
G03*
X115670000Y-116205000I-1370000J0D01*
G01*
X115670000Y-133985000D02*
X115740000Y-133985000D01*
X115670000Y-133985000D02*
G75*
G03*
X115670000Y-133985000I-1370000J0D01*
G01*
X128370000Y-131445000D02*
G75*
G03*
X128370000Y-131445000I-1370000J0D01*
G01*
X128370000Y-131445000D02*
X128440000Y-131445000D01*
X128370000Y-118745000D02*
G75*
G03*
X128370000Y-118745000I-1370000J0D01*
G01*
X128370000Y-118745000D02*
X128440000Y-118745000D01*
X118210000Y-118745000D02*
G75*
G03*
X118210000Y-118745000I-1370000J0D01*
G01*
X115470000Y-118745000D02*
X115400000Y-118745000D01*
X118210000Y-131445000D02*
G75*
G03*
X118210000Y-131445000I-1370000J0D01*
G01*
X115470000Y-131445000D02*
X115400000Y-131445000D01*
X107140000Y-65005000D02*
X105640000Y-65005000D01*
X103140000Y-66255000D02*
X103140000Y-70755000D01*
X105640000Y-72005000D02*
X107140000Y-72005000D01*
X109640000Y-70755000D02*
X109640000Y-66255000D01*
X117640001Y-66635000D02*
G75*
G03*
X117640001Y-66635000I-980816J0D01*
G01*
X112800000Y-64305000D02*
X112800000Y-94445000D01*
X112800000Y-94445000D02*
X131040000Y-94445000D01*
X131040000Y-94445000D02*
X131040000Y-64305000D01*
X131040000Y-64305000D02*
X124960000Y-64305000D01*
X124960000Y-64305000D02*
X124960000Y-64665000D01*
X124960000Y-64665000D02*
X118880001Y-64665000D01*
X118880001Y-64665000D02*
X118880001Y-64305000D01*
X118880001Y-64305000D02*
X112800000Y-64305000D01*
X112970000Y-103395000D02*
X112970000Y-105045000D01*
X133410000Y-103395000D02*
X112970000Y-103395000D01*
X133410000Y-108695000D02*
X133410000Y-103395000D01*
X112970000Y-108695000D02*
X133410000Y-108695000D01*
X112970000Y-107045000D02*
X112970000Y-108695000D01*
X112970000Y-105045000D02*
G75*
G02*
X112970000Y-107045000I0J-1000000D01*
G01*
X110730000Y-127565000D02*
X112730000Y-127565000D01*
X112730000Y-127565000D02*
X112730000Y-122725000D01*
X112730000Y-122725000D02*
X110730000Y-122725000D01*
X110730000Y-122725000D02*
X110730000Y-127565000D01*
X120720000Y-98665000D02*
X120720000Y-100665000D01*
X120720000Y-100665000D02*
X125560000Y-100665000D01*
X125560000Y-100665000D02*
X125560000Y-98665000D01*
X125560000Y-98665000D02*
X120720000Y-98665000D01*
X112790000Y-108415000D02*
X112790000Y-103575000D01*
X110790000Y-108415000D02*
X112790000Y-108415000D01*
X110790000Y-103575000D02*
X110790000Y-108415000D01*
X112790000Y-103575000D02*
X110790000Y-103575000D01*
X104210000Y-150735000D02*
X104210000Y-152735000D01*
X104210000Y-152735000D02*
X109050000Y-152735000D01*
X109050000Y-152735000D02*
X109050000Y-150735000D01*
X109050000Y-150735000D02*
X104210000Y-150735000D01*
X109050000Y-140575000D02*
X104210000Y-140575000D01*
X109050000Y-142575000D02*
X109050000Y-140575000D01*
X104210000Y-142575000D02*
X109050000Y-142575000D01*
X104210000Y-140575000D02*
X104210000Y-142575000D01*
X118185268Y-149411371D02*
G75*
G02*
X120500000Y-149469596I1194732J1456371D01*
G01*
X118185268Y-157031371D02*
G75*
G02*
X120500000Y-157089596I1194732J1456371D01*
G01*
X110430000Y-159445000D02*
X115630000Y-159445000D01*
X110430000Y-149225000D02*
X110430000Y-159445000D01*
X115630000Y-146625000D02*
X115630000Y-159445000D01*
X110430000Y-149225000D02*
X113030000Y-149225000D01*
X113030000Y-149225000D02*
X113030000Y-146625000D01*
X113030000Y-146625000D02*
X115630000Y-146625000D01*
X110430000Y-147955000D02*
X110430000Y-146625000D01*
X110430000Y-146625000D02*
X111760000Y-146625000D01*
X102810000Y-81855000D02*
X104140000Y-81855000D01*
X102810000Y-83185000D02*
X102810000Y-81855000D01*
X102810000Y-84455000D02*
X105470000Y-84455000D01*
X105470000Y-84455000D02*
X105470000Y-107375000D01*
X102810000Y-84455000D02*
X102810000Y-107375000D01*
X102810000Y-107375000D02*
X105470000Y-107375000D01*
X135830000Y-155635000D02*
X138490000Y-155635000D01*
X135830000Y-132715000D02*
X135830000Y-155635000D01*
X138490000Y-132715000D02*
X138490000Y-155635000D01*
X135830000Y-132715000D02*
X138490000Y-132715000D01*
X135830000Y-131445000D02*
X135830000Y-130115000D01*
X135830000Y-130115000D02*
X137160000Y-130115000D01*
X106100000Y-144885000D02*
X106100000Y-148485000D01*
X106827205Y-144360816D02*
G75*
G03*
X106100000Y-144885000I1122795J-2324184D01*
G01*
X109048807Y-144328600D02*
G75*
G02*
X110550000Y-146685000I-1098807J-2356400D01*
G01*
X109048807Y-149041400D02*
G75*
G03*
X110550000Y-146685000I-1098807J2356400D01*
G01*
X106827205Y-149009184D02*
G75*
G02*
X106100000Y-148485000I1122795J2324184D01*
G01*
X136420000Y-76255000D02*
X132820000Y-76255000D01*
X136944184Y-76982205D02*
G75*
G03*
X136420000Y-76255000I-2324184J-1122795D01*
G01*
X136976400Y-79203807D02*
G75*
G02*
X134620000Y-80705000I-2356400J1098807D01*
G01*
X132263600Y-79203807D02*
G75*
G03*
X134620000Y-80705000I2356400J1098807D01*
G01*
X132295816Y-76982205D02*
G75*
G02*
X132820000Y-76255000I2324184J-1122795D01*
G01*
X105410000Y-147898629D02*
X105410000Y-147785000D01*
X106736371Y-149225000D02*
G75*
G03*
X106736371Y-149225000I-1326371J0D01*
G01*
X131050000Y-127565000D02*
X133050000Y-127565000D01*
X133050000Y-127565000D02*
X133050000Y-122725000D01*
X133050000Y-122725000D02*
X131050000Y-122725000D01*
X131050000Y-122725000D02*
X131050000Y-127565000D01*
D10*
X86891904Y-65857380D02*
X86891904Y-64857380D01*
X87130000Y-64857380D01*
X87272857Y-64905000D01*
X87368095Y-65000238D01*
X87415714Y-65095476D01*
X87463333Y-65285952D01*
X87463333Y-65428809D01*
X87415714Y-65619285D01*
X87368095Y-65714523D01*
X87272857Y-65809761D01*
X87130000Y-65857380D01*
X86891904Y-65857380D01*
X88415714Y-65857380D02*
X87844285Y-65857380D01*
X88130000Y-65857380D02*
X88130000Y-64857380D01*
X88034761Y-65000238D01*
X87939523Y-65095476D01*
X87844285Y-65143095D01*
X99591904Y-65857380D02*
X99591904Y-64857380D01*
X99830000Y-64857380D01*
X99972857Y-64905000D01*
X100068095Y-65000238D01*
X100115714Y-65095476D01*
X100163333Y-65285952D01*
X100163333Y-65428809D01*
X100115714Y-65619285D01*
X100068095Y-65714523D01*
X99972857Y-65809761D01*
X99830000Y-65857380D01*
X99591904Y-65857380D01*
X100544285Y-64952619D02*
X100591904Y-64905000D01*
X100687142Y-64857380D01*
X100925238Y-64857380D01*
X101020476Y-64905000D01*
X101068095Y-64952619D01*
X101115714Y-65047857D01*
X101115714Y-65143095D01*
X101068095Y-65285952D01*
X100496666Y-65857380D01*
X101115714Y-65857380D01*
X99591904Y-123007380D02*
X99591904Y-122007380D01*
X99830000Y-122007380D01*
X99972857Y-122055000D01*
X100068095Y-122150238D01*
X100115714Y-122245476D01*
X100163333Y-122435952D01*
X100163333Y-122578809D01*
X100115714Y-122769285D01*
X100068095Y-122864523D01*
X99972857Y-122959761D01*
X99830000Y-123007380D01*
X99591904Y-123007380D01*
X100496666Y-122007380D02*
X101115714Y-122007380D01*
X100782380Y-122388333D01*
X100925238Y-122388333D01*
X101020476Y-122435952D01*
X101068095Y-122483571D01*
X101115714Y-122578809D01*
X101115714Y-122816904D01*
X101068095Y-122912142D01*
X101020476Y-122959761D01*
X100925238Y-123007380D01*
X100639523Y-123007380D01*
X100544285Y-122959761D01*
X100496666Y-122912142D01*
X99591904Y-109037380D02*
X99591904Y-108037380D01*
X99830000Y-108037380D01*
X99972857Y-108085000D01*
X100068095Y-108180238D01*
X100115714Y-108275476D01*
X100163333Y-108465952D01*
X100163333Y-108608809D01*
X100115714Y-108799285D01*
X100068095Y-108894523D01*
X99972857Y-108989761D01*
X99830000Y-109037380D01*
X99591904Y-109037380D01*
X101020476Y-108370714D02*
X101020476Y-109037380D01*
X100782380Y-107989761D02*
X100544285Y-108704047D01*
X101163333Y-108704047D01*
X99591904Y-95067380D02*
X99591904Y-94067380D01*
X99830000Y-94067380D01*
X99972857Y-94115000D01*
X100068095Y-94210238D01*
X100115714Y-94305476D01*
X100163333Y-94495952D01*
X100163333Y-94638809D01*
X100115714Y-94829285D01*
X100068095Y-94924523D01*
X99972857Y-95019761D01*
X99830000Y-95067380D01*
X99591904Y-95067380D01*
X101068095Y-94067380D02*
X100591904Y-94067380D01*
X100544285Y-94543571D01*
X100591904Y-94495952D01*
X100687142Y-94448333D01*
X100925238Y-94448333D01*
X101020476Y-94495952D01*
X101068095Y-94543571D01*
X101115714Y-94638809D01*
X101115714Y-94876904D01*
X101068095Y-94972142D01*
X101020476Y-95019761D01*
X100925238Y-95067380D01*
X100687142Y-95067380D01*
X100591904Y-95019761D01*
X100544285Y-94972142D01*
X91971904Y-81097380D02*
X91971904Y-80097380D01*
X92210000Y-80097380D01*
X92352857Y-80145000D01*
X92448095Y-80240238D01*
X92495714Y-80335476D01*
X92543333Y-80525952D01*
X92543333Y-80668809D01*
X92495714Y-80859285D01*
X92448095Y-80954523D01*
X92352857Y-81049761D01*
X92210000Y-81097380D01*
X91971904Y-81097380D01*
X93400476Y-80097380D02*
X93210000Y-80097380D01*
X93114761Y-80145000D01*
X93067142Y-80192619D01*
X92971904Y-80335476D01*
X92924285Y-80525952D01*
X92924285Y-80906904D01*
X92971904Y-81002142D01*
X93019523Y-81049761D01*
X93114761Y-81097380D01*
X93305238Y-81097380D01*
X93400476Y-81049761D01*
X93448095Y-81002142D01*
X93495714Y-80906904D01*
X93495714Y-80668809D01*
X93448095Y-80573571D01*
X93400476Y-80525952D01*
X93305238Y-80478333D01*
X93114761Y-80478333D01*
X93019523Y-80525952D01*
X92971904Y-80573571D01*
X92924285Y-80668809D01*
X86891904Y-81097380D02*
X86891904Y-80097380D01*
X87130000Y-80097380D01*
X87272857Y-80145000D01*
X87368095Y-80240238D01*
X87415714Y-80335476D01*
X87463333Y-80525952D01*
X87463333Y-80668809D01*
X87415714Y-80859285D01*
X87368095Y-80954523D01*
X87272857Y-81049761D01*
X87130000Y-81097380D01*
X86891904Y-81097380D01*
X87796666Y-80097380D02*
X88463333Y-80097380D01*
X88034761Y-81097380D01*
X84351904Y-91607380D02*
X84351904Y-90607380D01*
X84590000Y-90607380D01*
X84732857Y-90655000D01*
X84828095Y-90750238D01*
X84875714Y-90845476D01*
X84923333Y-91035952D01*
X84923333Y-91178809D01*
X84875714Y-91369285D01*
X84828095Y-91464523D01*
X84732857Y-91559761D01*
X84590000Y-91607380D01*
X84351904Y-91607380D01*
X85494761Y-91035952D02*
X85399523Y-90988333D01*
X85351904Y-90940714D01*
X85304285Y-90845476D01*
X85304285Y-90797857D01*
X85351904Y-90702619D01*
X85399523Y-90655000D01*
X85494761Y-90607380D01*
X85685238Y-90607380D01*
X85780476Y-90655000D01*
X85828095Y-90702619D01*
X85875714Y-90797857D01*
X85875714Y-90845476D01*
X85828095Y-90940714D01*
X85780476Y-90988333D01*
X85685238Y-91035952D01*
X85494761Y-91035952D01*
X85399523Y-91083571D01*
X85351904Y-91131190D01*
X85304285Y-91226428D01*
X85304285Y-91416904D01*
X85351904Y-91512142D01*
X85399523Y-91559761D01*
X85494761Y-91607380D01*
X85685238Y-91607380D01*
X85780476Y-91559761D01*
X85828095Y-91512142D01*
X85875714Y-91416904D01*
X85875714Y-91226428D01*
X85828095Y-91131190D01*
X85780476Y-91083571D01*
X85685238Y-91035952D01*
X83081904Y-112847380D02*
X83081904Y-111847380D01*
X83320000Y-111847380D01*
X83462857Y-111895000D01*
X83558095Y-111990238D01*
X83605714Y-112085476D01*
X83653333Y-112275952D01*
X83653333Y-112418809D01*
X83605714Y-112609285D01*
X83558095Y-112704523D01*
X83462857Y-112799761D01*
X83320000Y-112847380D01*
X83081904Y-112847380D01*
X84129523Y-112847380D02*
X84320000Y-112847380D01*
X84415238Y-112799761D01*
X84462857Y-112752142D01*
X84558095Y-112609285D01*
X84605714Y-112418809D01*
X84605714Y-112037857D01*
X84558095Y-111942619D01*
X84510476Y-111895000D01*
X84415238Y-111847380D01*
X84224761Y-111847380D01*
X84129523Y-111895000D01*
X84081904Y-111942619D01*
X84034285Y-112037857D01*
X84034285Y-112275952D01*
X84081904Y-112371190D01*
X84129523Y-112418809D01*
X84224761Y-112466428D01*
X84415238Y-112466428D01*
X84510476Y-112418809D01*
X84558095Y-112371190D01*
X84605714Y-112275952D01*
X87050714Y-123007380D02*
X87050714Y-122007380D01*
X87288809Y-122007380D01*
X87431666Y-122055000D01*
X87526904Y-122150238D01*
X87574523Y-122245476D01*
X87622142Y-122435952D01*
X87622142Y-122578809D01*
X87574523Y-122769285D01*
X87526904Y-122864523D01*
X87431666Y-122959761D01*
X87288809Y-123007380D01*
X87050714Y-123007380D01*
X88574523Y-123007380D02*
X88003095Y-123007380D01*
X88288809Y-123007380D02*
X88288809Y-122007380D01*
X88193571Y-122150238D01*
X88098333Y-122245476D01*
X88003095Y-122293095D01*
X89193571Y-122007380D02*
X89288809Y-122007380D01*
X89384047Y-122055000D01*
X89431666Y-122102619D01*
X89479285Y-122197857D01*
X89526904Y-122388333D01*
X89526904Y-122626428D01*
X89479285Y-122816904D01*
X89431666Y-122912142D01*
X89384047Y-122959761D01*
X89288809Y-123007380D01*
X89193571Y-123007380D01*
X89098333Y-122959761D01*
X89050714Y-122912142D01*
X89003095Y-122816904D01*
X88955476Y-122626428D01*
X88955476Y-122388333D01*
X89003095Y-122197857D01*
X89050714Y-122102619D01*
X89098333Y-122055000D01*
X89193571Y-122007380D01*
X72056666Y-70572380D02*
X72056666Y-71286666D01*
X72009047Y-71429523D01*
X71913809Y-71524761D01*
X71770952Y-71572380D01*
X71675714Y-71572380D01*
X73056666Y-71572380D02*
X72485238Y-71572380D01*
X72770952Y-71572380D02*
X72770952Y-70572380D01*
X72675714Y-70715238D01*
X72580476Y-70810476D01*
X72485238Y-70858095D01*
X69516666Y-75017380D02*
X69516666Y-75731666D01*
X69469047Y-75874523D01*
X69373809Y-75969761D01*
X69230952Y-76017380D01*
X69135714Y-76017380D01*
X69945238Y-75112619D02*
X69992857Y-75065000D01*
X70088095Y-75017380D01*
X70326190Y-75017380D01*
X70421428Y-75065000D01*
X70469047Y-75112619D01*
X70516666Y-75207857D01*
X70516666Y-75303095D01*
X70469047Y-75445952D01*
X69897619Y-76017380D01*
X70516666Y-76017380D01*
X69516666Y-88987380D02*
X69516666Y-89701666D01*
X69469047Y-89844523D01*
X69373809Y-89939761D01*
X69230952Y-89987380D01*
X69135714Y-89987380D01*
X69897619Y-88987380D02*
X70516666Y-88987380D01*
X70183333Y-89368333D01*
X70326190Y-89368333D01*
X70421428Y-89415952D01*
X70469047Y-89463571D01*
X70516666Y-89558809D01*
X70516666Y-89796904D01*
X70469047Y-89892142D01*
X70421428Y-89939761D01*
X70326190Y-89987380D01*
X70040476Y-89987380D01*
X69945238Y-89939761D01*
X69897619Y-89892142D01*
X69516666Y-102957380D02*
X69516666Y-103671666D01*
X69469047Y-103814523D01*
X69373809Y-103909761D01*
X69230952Y-103957380D01*
X69135714Y-103957380D01*
X70421428Y-103290714D02*
X70421428Y-103957380D01*
X70183333Y-102909761D02*
X69945238Y-103624047D01*
X70564285Y-103624047D01*
X69516666Y-116927380D02*
X69516666Y-117641666D01*
X69469047Y-117784523D01*
X69373809Y-117879761D01*
X69230952Y-117927380D01*
X69135714Y-117927380D01*
X70469047Y-116927380D02*
X69992857Y-116927380D01*
X69945238Y-117403571D01*
X69992857Y-117355952D01*
X70088095Y-117308333D01*
X70326190Y-117308333D01*
X70421428Y-117355952D01*
X70469047Y-117403571D01*
X70516666Y-117498809D01*
X70516666Y-117736904D01*
X70469047Y-117832142D01*
X70421428Y-117879761D01*
X70326190Y-117927380D01*
X70088095Y-117927380D01*
X69992857Y-117879761D01*
X69945238Y-117832142D01*
X88082380Y-149391666D02*
X87606190Y-149725000D01*
X88082380Y-149963095D02*
X87082380Y-149963095D01*
X87082380Y-149582142D01*
X87130000Y-149486904D01*
X87177619Y-149439285D01*
X87272857Y-149391666D01*
X87415714Y-149391666D01*
X87510952Y-149439285D01*
X87558571Y-149486904D01*
X87606190Y-149582142D01*
X87606190Y-149963095D01*
X88082380Y-148439285D02*
X88082380Y-149010714D01*
X88082380Y-148725000D02*
X87082380Y-148725000D01*
X87225238Y-148820238D01*
X87320476Y-148915476D01*
X87368095Y-149010714D01*
X86193333Y-134437380D02*
X85860000Y-133961190D01*
X85621904Y-134437380D02*
X85621904Y-133437380D01*
X86002857Y-133437380D01*
X86098095Y-133485000D01*
X86145714Y-133532619D01*
X86193333Y-133627857D01*
X86193333Y-133770714D01*
X86145714Y-133865952D01*
X86098095Y-133913571D01*
X86002857Y-133961190D01*
X85621904Y-133961190D01*
X86574285Y-133532619D02*
X86621904Y-133485000D01*
X86717142Y-133437380D01*
X86955238Y-133437380D01*
X87050476Y-133485000D01*
X87098095Y-133532619D01*
X87145714Y-133627857D01*
X87145714Y-133723095D01*
X87098095Y-133865952D01*
X86526666Y-134437380D01*
X87145714Y-134437380D01*
X87463333Y-70937380D02*
X87130000Y-70461190D01*
X86891904Y-70937380D02*
X86891904Y-69937380D01*
X87272857Y-69937380D01*
X87368095Y-69985000D01*
X87415714Y-70032619D01*
X87463333Y-70127857D01*
X87463333Y-70270714D01*
X87415714Y-70365952D01*
X87368095Y-70413571D01*
X87272857Y-70461190D01*
X86891904Y-70461190D01*
X87796666Y-69937380D02*
X88415714Y-69937380D01*
X88082380Y-70318333D01*
X88225238Y-70318333D01*
X88320476Y-70365952D01*
X88368095Y-70413571D01*
X88415714Y-70508809D01*
X88415714Y-70746904D01*
X88368095Y-70842142D01*
X88320476Y-70889761D01*
X88225238Y-70937380D01*
X87939523Y-70937380D01*
X87844285Y-70889761D01*
X87796666Y-70842142D01*
X85542380Y-149391666D02*
X85066190Y-149725000D01*
X85542380Y-149963095D02*
X84542380Y-149963095D01*
X84542380Y-149582142D01*
X84590000Y-149486904D01*
X84637619Y-149439285D01*
X84732857Y-149391666D01*
X84875714Y-149391666D01*
X84970952Y-149439285D01*
X85018571Y-149486904D01*
X85066190Y-149582142D01*
X85066190Y-149963095D01*
X84875714Y-148534523D02*
X85542380Y-148534523D01*
X84494761Y-148772619D02*
X85209047Y-149010714D01*
X85209047Y-148391666D01*
X66492380Y-148121666D02*
X66016190Y-148455000D01*
X66492380Y-148693095D02*
X65492380Y-148693095D01*
X65492380Y-148312142D01*
X65540000Y-148216904D01*
X65587619Y-148169285D01*
X65682857Y-148121666D01*
X65825714Y-148121666D01*
X65920952Y-148169285D01*
X65968571Y-148216904D01*
X66016190Y-148312142D01*
X66016190Y-148693095D01*
X65492380Y-147216904D02*
X65492380Y-147693095D01*
X65968571Y-147740714D01*
X65920952Y-147693095D01*
X65873333Y-147597857D01*
X65873333Y-147359761D01*
X65920952Y-147264523D01*
X65968571Y-147216904D01*
X66063809Y-147169285D01*
X66301904Y-147169285D01*
X66397142Y-147216904D01*
X66444761Y-147264523D01*
X66492380Y-147359761D01*
X66492380Y-147597857D01*
X66444761Y-147693095D01*
X66397142Y-147740714D01*
X90157380Y-66841666D02*
X89681190Y-67175000D01*
X90157380Y-67413095D02*
X89157380Y-67413095D01*
X89157380Y-67032142D01*
X89205000Y-66936904D01*
X89252619Y-66889285D01*
X89347857Y-66841666D01*
X89490714Y-66841666D01*
X89585952Y-66889285D01*
X89633571Y-66936904D01*
X89681190Y-67032142D01*
X89681190Y-67413095D01*
X89157380Y-65984523D02*
X89157380Y-66175000D01*
X89205000Y-66270238D01*
X89252619Y-66317857D01*
X89395476Y-66413095D01*
X89585952Y-66460714D01*
X89966904Y-66460714D01*
X90062142Y-66413095D01*
X90109761Y-66365476D01*
X90157380Y-66270238D01*
X90157380Y-66079761D01*
X90109761Y-65984523D01*
X90062142Y-65936904D01*
X89966904Y-65889285D01*
X89728809Y-65889285D01*
X89633571Y-65936904D01*
X89585952Y-65984523D01*
X89538333Y-66079761D01*
X89538333Y-66270238D01*
X89585952Y-66365476D01*
X89633571Y-66413095D01*
X89728809Y-66460714D01*
X99528333Y-118562380D02*
X99195000Y-118086190D01*
X98956904Y-118562380D02*
X98956904Y-117562380D01*
X99337857Y-117562380D01*
X99433095Y-117610000D01*
X99480714Y-117657619D01*
X99528333Y-117752857D01*
X99528333Y-117895714D01*
X99480714Y-117990952D01*
X99433095Y-118038571D01*
X99337857Y-118086190D01*
X98956904Y-118086190D01*
X99861666Y-117562380D02*
X100528333Y-117562380D01*
X100099761Y-118562380D01*
X100163333Y-104592380D02*
X99830000Y-104116190D01*
X99591904Y-104592380D02*
X99591904Y-103592380D01*
X99972857Y-103592380D01*
X100068095Y-103640000D01*
X100115714Y-103687619D01*
X100163333Y-103782857D01*
X100163333Y-103925714D01*
X100115714Y-104020952D01*
X100068095Y-104068571D01*
X99972857Y-104116190D01*
X99591904Y-104116190D01*
X100734761Y-104020952D02*
X100639523Y-103973333D01*
X100591904Y-103925714D01*
X100544285Y-103830476D01*
X100544285Y-103782857D01*
X100591904Y-103687619D01*
X100639523Y-103640000D01*
X100734761Y-103592380D01*
X100925238Y-103592380D01*
X101020476Y-103640000D01*
X101068095Y-103687619D01*
X101115714Y-103782857D01*
X101115714Y-103830476D01*
X101068095Y-103925714D01*
X101020476Y-103973333D01*
X100925238Y-104020952D01*
X100734761Y-104020952D01*
X100639523Y-104068571D01*
X100591904Y-104116190D01*
X100544285Y-104211428D01*
X100544285Y-104401904D01*
X100591904Y-104497142D01*
X100639523Y-104544761D01*
X100734761Y-104592380D01*
X100925238Y-104592380D01*
X101020476Y-104544761D01*
X101068095Y-104497142D01*
X101115714Y-104401904D01*
X101115714Y-104211428D01*
X101068095Y-104116190D01*
X101020476Y-104068571D01*
X100925238Y-104020952D01*
X100163333Y-99512380D02*
X99830000Y-99036190D01*
X99591904Y-99512380D02*
X99591904Y-98512380D01*
X99972857Y-98512380D01*
X100068095Y-98560000D01*
X100115714Y-98607619D01*
X100163333Y-98702857D01*
X100163333Y-98845714D01*
X100115714Y-98940952D01*
X100068095Y-98988571D01*
X99972857Y-99036190D01*
X99591904Y-99036190D01*
X100639523Y-99512380D02*
X100830000Y-99512380D01*
X100925238Y-99464761D01*
X100972857Y-99417142D01*
X101068095Y-99274285D01*
X101115714Y-99083809D01*
X101115714Y-98702857D01*
X101068095Y-98607619D01*
X101020476Y-98560000D01*
X100925238Y-98512380D01*
X100734761Y-98512380D01*
X100639523Y-98560000D01*
X100591904Y-98607619D01*
X100544285Y-98702857D01*
X100544285Y-98940952D01*
X100591904Y-99036190D01*
X100639523Y-99083809D01*
X100734761Y-99131428D01*
X100925238Y-99131428D01*
X101020476Y-99083809D01*
X101068095Y-99036190D01*
X101115714Y-98940952D01*
X92067142Y-86177380D02*
X91733809Y-85701190D01*
X91495714Y-86177380D02*
X91495714Y-85177380D01*
X91876666Y-85177380D01*
X91971904Y-85225000D01*
X92019523Y-85272619D01*
X92067142Y-85367857D01*
X92067142Y-85510714D01*
X92019523Y-85605952D01*
X91971904Y-85653571D01*
X91876666Y-85701190D01*
X91495714Y-85701190D01*
X93019523Y-86177380D02*
X92448095Y-86177380D01*
X92733809Y-86177380D02*
X92733809Y-85177380D01*
X92638571Y-85320238D01*
X92543333Y-85415476D01*
X92448095Y-85463095D01*
X93638571Y-85177380D02*
X93733809Y-85177380D01*
X93829047Y-85225000D01*
X93876666Y-85272619D01*
X93924285Y-85367857D01*
X93971904Y-85558333D01*
X93971904Y-85796428D01*
X93924285Y-85986904D01*
X93876666Y-86082142D01*
X93829047Y-86129761D01*
X93733809Y-86177380D01*
X93638571Y-86177380D01*
X93543333Y-86129761D01*
X93495714Y-86082142D01*
X93448095Y-85986904D01*
X93400476Y-85796428D01*
X93400476Y-85558333D01*
X93448095Y-85367857D01*
X93495714Y-85272619D01*
X93543333Y-85225000D01*
X93638571Y-85177380D01*
X85082142Y-76017380D02*
X84748809Y-75541190D01*
X84510714Y-76017380D02*
X84510714Y-75017380D01*
X84891666Y-75017380D01*
X84986904Y-75065000D01*
X85034523Y-75112619D01*
X85082142Y-75207857D01*
X85082142Y-75350714D01*
X85034523Y-75445952D01*
X84986904Y-75493571D01*
X84891666Y-75541190D01*
X84510714Y-75541190D01*
X86034523Y-76017380D02*
X85463095Y-76017380D01*
X85748809Y-76017380D02*
X85748809Y-75017380D01*
X85653571Y-75160238D01*
X85558333Y-75255476D01*
X85463095Y-75303095D01*
X86986904Y-76017380D02*
X86415476Y-76017380D01*
X86701190Y-76017380D02*
X86701190Y-75017380D01*
X86605952Y-75160238D01*
X86510714Y-75255476D01*
X86415476Y-75303095D01*
X80637142Y-88082380D02*
X80303809Y-87606190D01*
X80065714Y-88082380D02*
X80065714Y-87082380D01*
X80446666Y-87082380D01*
X80541904Y-87130000D01*
X80589523Y-87177619D01*
X80637142Y-87272857D01*
X80637142Y-87415714D01*
X80589523Y-87510952D01*
X80541904Y-87558571D01*
X80446666Y-87606190D01*
X80065714Y-87606190D01*
X81589523Y-88082380D02*
X81018095Y-88082380D01*
X81303809Y-88082380D02*
X81303809Y-87082380D01*
X81208571Y-87225238D01*
X81113333Y-87320476D01*
X81018095Y-87368095D01*
X81970476Y-87177619D02*
X82018095Y-87130000D01*
X82113333Y-87082380D01*
X82351428Y-87082380D01*
X82446666Y-87130000D01*
X82494285Y-87177619D01*
X82541904Y-87272857D01*
X82541904Y-87368095D01*
X82494285Y-87510952D01*
X81922857Y-88082380D01*
X82541904Y-88082380D01*
X83177142Y-101587380D02*
X82843809Y-101111190D01*
X82605714Y-101587380D02*
X82605714Y-100587380D01*
X82986666Y-100587380D01*
X83081904Y-100635000D01*
X83129523Y-100682619D01*
X83177142Y-100777857D01*
X83177142Y-100920714D01*
X83129523Y-101015952D01*
X83081904Y-101063571D01*
X82986666Y-101111190D01*
X82605714Y-101111190D01*
X84129523Y-101587380D02*
X83558095Y-101587380D01*
X83843809Y-101587380D02*
X83843809Y-100587380D01*
X83748571Y-100730238D01*
X83653333Y-100825476D01*
X83558095Y-100873095D01*
X84462857Y-100587380D02*
X85081904Y-100587380D01*
X84748571Y-100968333D01*
X84891428Y-100968333D01*
X84986666Y-101015952D01*
X85034285Y-101063571D01*
X85081904Y-101158809D01*
X85081904Y-101396904D01*
X85034285Y-101492142D01*
X84986666Y-101539761D01*
X84891428Y-101587380D01*
X84605714Y-101587380D01*
X84510476Y-101539761D01*
X84462857Y-101492142D01*
X85082142Y-118562380D02*
X84748809Y-118086190D01*
X84510714Y-118562380D02*
X84510714Y-117562380D01*
X84891666Y-117562380D01*
X84986904Y-117610000D01*
X85034523Y-117657619D01*
X85082142Y-117752857D01*
X85082142Y-117895714D01*
X85034523Y-117990952D01*
X84986904Y-118038571D01*
X84891666Y-118086190D01*
X84510714Y-118086190D01*
X86034523Y-118562380D02*
X85463095Y-118562380D01*
X85748809Y-118562380D02*
X85748809Y-117562380D01*
X85653571Y-117705238D01*
X85558333Y-117800476D01*
X85463095Y-117848095D01*
X86891666Y-117895714D02*
X86891666Y-118562380D01*
X86653571Y-117514761D02*
X86415476Y-118229047D01*
X87034523Y-118229047D01*
X79192380Y-81287857D02*
X78716190Y-81621190D01*
X79192380Y-81859285D02*
X78192380Y-81859285D01*
X78192380Y-81478333D01*
X78240000Y-81383095D01*
X78287619Y-81335476D01*
X78382857Y-81287857D01*
X78525714Y-81287857D01*
X78620952Y-81335476D01*
X78668571Y-81383095D01*
X78716190Y-81478333D01*
X78716190Y-81859285D01*
X79192380Y-80335476D02*
X79192380Y-80906904D01*
X79192380Y-80621190D02*
X78192380Y-80621190D01*
X78335238Y-80716428D01*
X78430476Y-80811666D01*
X78478095Y-80906904D01*
X78192380Y-79430714D02*
X78192380Y-79906904D01*
X78668571Y-79954523D01*
X78620952Y-79906904D01*
X78573333Y-79811666D01*
X78573333Y-79573571D01*
X78620952Y-79478333D01*
X78668571Y-79430714D01*
X78763809Y-79383095D01*
X79001904Y-79383095D01*
X79097142Y-79430714D01*
X79144761Y-79478333D01*
X79192380Y-79573571D01*
X79192380Y-79811666D01*
X79144761Y-79906904D01*
X79097142Y-79954523D01*
X79192380Y-95257857D02*
X78716190Y-95591190D01*
X79192380Y-95829285D02*
X78192380Y-95829285D01*
X78192380Y-95448333D01*
X78240000Y-95353095D01*
X78287619Y-95305476D01*
X78382857Y-95257857D01*
X78525714Y-95257857D01*
X78620952Y-95305476D01*
X78668571Y-95353095D01*
X78716190Y-95448333D01*
X78716190Y-95829285D01*
X79192380Y-94305476D02*
X79192380Y-94876904D01*
X79192380Y-94591190D02*
X78192380Y-94591190D01*
X78335238Y-94686428D01*
X78430476Y-94781666D01*
X78478095Y-94876904D01*
X78192380Y-93448333D02*
X78192380Y-93638809D01*
X78240000Y-93734047D01*
X78287619Y-93781666D01*
X78430476Y-93876904D01*
X78620952Y-93924523D01*
X79001904Y-93924523D01*
X79097142Y-93876904D01*
X79144761Y-93829285D01*
X79192380Y-93734047D01*
X79192380Y-93543571D01*
X79144761Y-93448333D01*
X79097142Y-93400714D01*
X79001904Y-93353095D01*
X78763809Y-93353095D01*
X78668571Y-93400714D01*
X78620952Y-93448333D01*
X78573333Y-93543571D01*
X78573333Y-93734047D01*
X78620952Y-93829285D01*
X78668571Y-93876904D01*
X78763809Y-93924523D01*
X79192380Y-109227857D02*
X78716190Y-109561190D01*
X79192380Y-109799285D02*
X78192380Y-109799285D01*
X78192380Y-109418333D01*
X78240000Y-109323095D01*
X78287619Y-109275476D01*
X78382857Y-109227857D01*
X78525714Y-109227857D01*
X78620952Y-109275476D01*
X78668571Y-109323095D01*
X78716190Y-109418333D01*
X78716190Y-109799285D01*
X79192380Y-108275476D02*
X79192380Y-108846904D01*
X79192380Y-108561190D02*
X78192380Y-108561190D01*
X78335238Y-108656428D01*
X78430476Y-108751666D01*
X78478095Y-108846904D01*
X78192380Y-107942142D02*
X78192380Y-107275476D01*
X79192380Y-107704047D01*
X79192380Y-123197857D02*
X78716190Y-123531190D01*
X79192380Y-123769285D02*
X78192380Y-123769285D01*
X78192380Y-123388333D01*
X78240000Y-123293095D01*
X78287619Y-123245476D01*
X78382857Y-123197857D01*
X78525714Y-123197857D01*
X78620952Y-123245476D01*
X78668571Y-123293095D01*
X78716190Y-123388333D01*
X78716190Y-123769285D01*
X79192380Y-122245476D02*
X79192380Y-122816904D01*
X79192380Y-122531190D02*
X78192380Y-122531190D01*
X78335238Y-122626428D01*
X78430476Y-122721666D01*
X78478095Y-122816904D01*
X78620952Y-121674047D02*
X78573333Y-121769285D01*
X78525714Y-121816904D01*
X78430476Y-121864523D01*
X78382857Y-121864523D01*
X78287619Y-121816904D01*
X78240000Y-121769285D01*
X78192380Y-121674047D01*
X78192380Y-121483571D01*
X78240000Y-121388333D01*
X78287619Y-121340714D01*
X78382857Y-121293095D01*
X78430476Y-121293095D01*
X78525714Y-121340714D01*
X78573333Y-121388333D01*
X78620952Y-121483571D01*
X78620952Y-121674047D01*
X78668571Y-121769285D01*
X78716190Y-121816904D01*
X78811428Y-121864523D01*
X79001904Y-121864523D01*
X79097142Y-121816904D01*
X79144761Y-121769285D01*
X79192380Y-121674047D01*
X79192380Y-121483571D01*
X79144761Y-121388333D01*
X79097142Y-121340714D01*
X79001904Y-121293095D01*
X78811428Y-121293095D01*
X78716190Y-121340714D01*
X78668571Y-121388333D01*
X78620952Y-121483571D01*
X69786666Y-133119761D02*
X69929523Y-133167380D01*
X70167619Y-133167380D01*
X70262857Y-133119761D01*
X70310476Y-133072142D01*
X70358095Y-132976904D01*
X70358095Y-132881666D01*
X70310476Y-132786428D01*
X70262857Y-132738809D01*
X70167619Y-132691190D01*
X69977142Y-132643571D01*
X69881904Y-132595952D01*
X69834285Y-132548333D01*
X69786666Y-132453095D01*
X69786666Y-132357857D01*
X69834285Y-132262619D01*
X69881904Y-132215000D01*
X69977142Y-132167380D01*
X70215238Y-132167380D01*
X70358095Y-132215000D01*
X70691428Y-132167380D02*
X70929523Y-133167380D01*
X71120000Y-132453095D01*
X71310476Y-133167380D01*
X71548571Y-132167380D01*
X72453333Y-133167380D02*
X71881904Y-133167380D01*
X72167619Y-133167380D02*
X72167619Y-132167380D01*
X72072380Y-132310238D01*
X71977142Y-132405476D01*
X71881904Y-132453095D01*
X83756666Y-159789761D02*
X83899523Y-159837380D01*
X84137619Y-159837380D01*
X84232857Y-159789761D01*
X84280476Y-159742142D01*
X84328095Y-159646904D01*
X84328095Y-159551666D01*
X84280476Y-159456428D01*
X84232857Y-159408809D01*
X84137619Y-159361190D01*
X83947142Y-159313571D01*
X83851904Y-159265952D01*
X83804285Y-159218333D01*
X83756666Y-159123095D01*
X83756666Y-159027857D01*
X83804285Y-158932619D01*
X83851904Y-158885000D01*
X83947142Y-158837380D01*
X84185238Y-158837380D01*
X84328095Y-158885000D01*
X84661428Y-158837380D02*
X84899523Y-159837380D01*
X85090000Y-159123095D01*
X85280476Y-159837380D01*
X85518571Y-158837380D01*
X85851904Y-158932619D02*
X85899523Y-158885000D01*
X85994761Y-158837380D01*
X86232857Y-158837380D01*
X86328095Y-158885000D01*
X86375714Y-158932619D01*
X86423333Y-159027857D01*
X86423333Y-159123095D01*
X86375714Y-159265952D01*
X85804285Y-159837380D01*
X86423333Y-159837380D01*
X84177142Y-140501666D02*
X84224761Y-140549285D01*
X84272380Y-140692142D01*
X84272380Y-140787380D01*
X84224761Y-140930238D01*
X84129523Y-141025476D01*
X84034285Y-141073095D01*
X83843809Y-141120714D01*
X83700952Y-141120714D01*
X83510476Y-141073095D01*
X83415238Y-141025476D01*
X83320000Y-140930238D01*
X83272380Y-140787380D01*
X83272380Y-140692142D01*
X83320000Y-140549285D01*
X83367619Y-140501666D01*
X84272380Y-139549285D02*
X84272380Y-140120714D01*
X84272380Y-139835000D02*
X83272380Y-139835000D01*
X83415238Y-139930238D01*
X83510476Y-140025476D01*
X83558095Y-140120714D01*
X66397142Y-135421666D02*
X66444761Y-135469285D01*
X66492380Y-135612142D01*
X66492380Y-135707380D01*
X66444761Y-135850238D01*
X66349523Y-135945476D01*
X66254285Y-135993095D01*
X66063809Y-136040714D01*
X65920952Y-136040714D01*
X65730476Y-135993095D01*
X65635238Y-135945476D01*
X65540000Y-135850238D01*
X65492380Y-135707380D01*
X65492380Y-135612142D01*
X65540000Y-135469285D01*
X65587619Y-135421666D01*
X65587619Y-135040714D02*
X65540000Y-134993095D01*
X65492380Y-134897857D01*
X65492380Y-134659761D01*
X65540000Y-134564523D01*
X65587619Y-134516904D01*
X65682857Y-134469285D01*
X65778095Y-134469285D01*
X65920952Y-134516904D01*
X66492380Y-135088333D01*
X66492380Y-134469285D01*
X65706666Y-80307380D02*
X65706666Y-81021666D01*
X65659047Y-81164523D01*
X65563809Y-81259761D01*
X65420952Y-81307380D01*
X65325714Y-81307380D01*
X66087619Y-80307380D02*
X66754285Y-80307380D01*
X66325714Y-81307380D01*
X98726666Y-128567380D02*
X98726666Y-129281666D01*
X98679047Y-129424523D01*
X98583809Y-129519761D01*
X98440952Y-129567380D01*
X98345714Y-129567380D01*
X99345714Y-128995952D02*
X99250476Y-128948333D01*
X99202857Y-128900714D01*
X99155238Y-128805476D01*
X99155238Y-128757857D01*
X99202857Y-128662619D01*
X99250476Y-128615000D01*
X99345714Y-128567380D01*
X99536190Y-128567380D01*
X99631428Y-128615000D01*
X99679047Y-128662619D01*
X99726666Y-128757857D01*
X99726666Y-128805476D01*
X99679047Y-128900714D01*
X99631428Y-128948333D01*
X99536190Y-128995952D01*
X99345714Y-128995952D01*
X99250476Y-129043571D01*
X99202857Y-129091190D01*
X99155238Y-129186428D01*
X99155238Y-129376904D01*
X99202857Y-129472142D01*
X99250476Y-129519761D01*
X99345714Y-129567380D01*
X99536190Y-129567380D01*
X99631428Y-129519761D01*
X99679047Y-129472142D01*
X99726666Y-129376904D01*
X99726666Y-129186428D01*
X99679047Y-129091190D01*
X99631428Y-129043571D01*
X99536190Y-128995952D01*
X91376666Y-159789761D02*
X91519523Y-159837380D01*
X91757619Y-159837380D01*
X91852857Y-159789761D01*
X91900476Y-159742142D01*
X91948095Y-159646904D01*
X91948095Y-159551666D01*
X91900476Y-159456428D01*
X91852857Y-159408809D01*
X91757619Y-159361190D01*
X91567142Y-159313571D01*
X91471904Y-159265952D01*
X91424285Y-159218333D01*
X91376666Y-159123095D01*
X91376666Y-159027857D01*
X91424285Y-158932619D01*
X91471904Y-158885000D01*
X91567142Y-158837380D01*
X91805238Y-158837380D01*
X91948095Y-158885000D01*
X92281428Y-158837380D02*
X92519523Y-159837380D01*
X92710000Y-159123095D01*
X92900476Y-159837380D01*
X93138571Y-158837380D01*
X93424285Y-158837380D02*
X94043333Y-158837380D01*
X93710000Y-159218333D01*
X93852857Y-159218333D01*
X93948095Y-159265952D01*
X93995714Y-159313571D01*
X94043333Y-159408809D01*
X94043333Y-159646904D01*
X93995714Y-159742142D01*
X93948095Y-159789761D01*
X93852857Y-159837380D01*
X93567142Y-159837380D01*
X93471904Y-159789761D01*
X93424285Y-159742142D01*
X91376666Y-143279761D02*
X91519523Y-143327380D01*
X91757619Y-143327380D01*
X91852857Y-143279761D01*
X91900476Y-143232142D01*
X91948095Y-143136904D01*
X91948095Y-143041666D01*
X91900476Y-142946428D01*
X91852857Y-142898809D01*
X91757619Y-142851190D01*
X91567142Y-142803571D01*
X91471904Y-142755952D01*
X91424285Y-142708333D01*
X91376666Y-142613095D01*
X91376666Y-142517857D01*
X91424285Y-142422619D01*
X91471904Y-142375000D01*
X91567142Y-142327380D01*
X91805238Y-142327380D01*
X91948095Y-142375000D01*
X92281428Y-142327380D02*
X92519523Y-143327380D01*
X92710000Y-142613095D01*
X92900476Y-143327380D01*
X93138571Y-142327380D01*
X93948095Y-142660714D02*
X93948095Y-143327380D01*
X93710000Y-142279761D02*
X93471904Y-142994047D01*
X94090952Y-142994047D01*
X116292380Y-125856904D02*
X117101904Y-125856904D01*
X117197142Y-125809285D01*
X117244761Y-125761666D01*
X117292380Y-125666428D01*
X117292380Y-125475952D01*
X117244761Y-125380714D01*
X117197142Y-125333095D01*
X117101904Y-125285476D01*
X116292380Y-125285476D01*
X117292380Y-124285476D02*
X117292380Y-124856904D01*
X117292380Y-124571190D02*
X116292380Y-124571190D01*
X116435238Y-124666428D01*
X116530476Y-124761666D01*
X116578095Y-124856904D01*
X131933333Y-153392142D02*
X131885714Y-153439761D01*
X131742857Y-153487380D01*
X131647619Y-153487380D01*
X131504761Y-153439761D01*
X131409523Y-153344523D01*
X131361904Y-153249285D01*
X131314285Y-153058809D01*
X131314285Y-152915952D01*
X131361904Y-152725476D01*
X131409523Y-152630238D01*
X131504761Y-152535000D01*
X131647619Y-152487380D01*
X131742857Y-152487380D01*
X131885714Y-152535000D01*
X131933333Y-152582619D01*
X132266666Y-152487380D02*
X132885714Y-152487380D01*
X132552380Y-152868333D01*
X132695238Y-152868333D01*
X132790476Y-152915952D01*
X132838095Y-152963571D01*
X132885714Y-153058809D01*
X132885714Y-153296904D01*
X132838095Y-153392142D01*
X132790476Y-153439761D01*
X132695238Y-153487380D01*
X132409523Y-153487380D01*
X132314285Y-153439761D01*
X132266666Y-153392142D01*
X124313333Y-153392142D02*
X124265714Y-153439761D01*
X124122857Y-153487380D01*
X124027619Y-153487380D01*
X123884761Y-153439761D01*
X123789523Y-153344523D01*
X123741904Y-153249285D01*
X123694285Y-153058809D01*
X123694285Y-152915952D01*
X123741904Y-152725476D01*
X123789523Y-152630238D01*
X123884761Y-152535000D01*
X124027619Y-152487380D01*
X124122857Y-152487380D01*
X124265714Y-152535000D01*
X124313333Y-152582619D01*
X125170476Y-152820714D02*
X125170476Y-153487380D01*
X124932380Y-152439761D02*
X124694285Y-153154047D01*
X125313333Y-153154047D01*
X109502380Y-85097857D02*
X109026190Y-85431190D01*
X109502380Y-85669285D02*
X108502380Y-85669285D01*
X108502380Y-85288333D01*
X108550000Y-85193095D01*
X108597619Y-85145476D01*
X108692857Y-85097857D01*
X108835714Y-85097857D01*
X108930952Y-85145476D01*
X108978571Y-85193095D01*
X109026190Y-85288333D01*
X109026190Y-85669285D01*
X109502380Y-84145476D02*
X109502380Y-84716904D01*
X109502380Y-84431190D02*
X108502380Y-84431190D01*
X108645238Y-84526428D01*
X108740476Y-84621666D01*
X108788095Y-84716904D01*
X109502380Y-83669285D02*
X109502380Y-83478809D01*
X109454761Y-83383571D01*
X109407142Y-83335952D01*
X109264285Y-83240714D01*
X109073809Y-83193095D01*
X108692857Y-83193095D01*
X108597619Y-83240714D01*
X108550000Y-83288333D01*
X108502380Y-83383571D01*
X108502380Y-83574047D01*
X108550000Y-83669285D01*
X108597619Y-83716904D01*
X108692857Y-83764523D01*
X108930952Y-83764523D01*
X109026190Y-83716904D01*
X109073809Y-83669285D01*
X109121428Y-83574047D01*
X109121428Y-83383571D01*
X109073809Y-83288333D01*
X109026190Y-83240714D01*
X108930952Y-83193095D01*
X132532380Y-88907857D02*
X132056190Y-89241190D01*
X132532380Y-89479285D02*
X131532380Y-89479285D01*
X131532380Y-89098333D01*
X131580000Y-89003095D01*
X131627619Y-88955476D01*
X131722857Y-88907857D01*
X131865714Y-88907857D01*
X131960952Y-88955476D01*
X132008571Y-89003095D01*
X132056190Y-89098333D01*
X132056190Y-89479285D01*
X131627619Y-88526904D02*
X131580000Y-88479285D01*
X131532380Y-88384047D01*
X131532380Y-88145952D01*
X131580000Y-88050714D01*
X131627619Y-88003095D01*
X131722857Y-87955476D01*
X131818095Y-87955476D01*
X131960952Y-88003095D01*
X132532380Y-88574523D01*
X132532380Y-87955476D01*
X131532380Y-87336428D02*
X131532380Y-87241190D01*
X131580000Y-87145952D01*
X131627619Y-87098333D01*
X131722857Y-87050714D01*
X131913333Y-87003095D01*
X132151428Y-87003095D01*
X132341904Y-87050714D01*
X132437142Y-87098333D01*
X132484761Y-87145952D01*
X132532380Y-87241190D01*
X132532380Y-87336428D01*
X132484761Y-87431666D01*
X132437142Y-87479285D01*
X132341904Y-87526904D01*
X132151428Y-87574523D01*
X131913333Y-87574523D01*
X131722857Y-87526904D01*
X131627619Y-87479285D01*
X131580000Y-87431666D01*
X131532380Y-87336428D01*
X137612380Y-89542857D02*
X137136190Y-89876190D01*
X137612380Y-90114285D02*
X136612380Y-90114285D01*
X136612380Y-89733333D01*
X136660000Y-89638095D01*
X136707619Y-89590476D01*
X136802857Y-89542857D01*
X136945714Y-89542857D01*
X137040952Y-89590476D01*
X137088571Y-89638095D01*
X137136190Y-89733333D01*
X137136190Y-90114285D01*
X136707619Y-89161904D02*
X136660000Y-89114285D01*
X136612380Y-89019047D01*
X136612380Y-88780952D01*
X136660000Y-88685714D01*
X136707619Y-88638095D01*
X136802857Y-88590476D01*
X136898095Y-88590476D01*
X137040952Y-88638095D01*
X137612380Y-89209523D01*
X137612380Y-88590476D01*
X137612380Y-87638095D02*
X137612380Y-88209523D01*
X137612380Y-87923809D02*
X136612380Y-87923809D01*
X136755238Y-88019047D01*
X136850476Y-88114285D01*
X136898095Y-88209523D01*
X109212142Y-76017380D02*
X108878809Y-75541190D01*
X108640714Y-76017380D02*
X108640714Y-75017380D01*
X109021666Y-75017380D01*
X109116904Y-75065000D01*
X109164523Y-75112619D01*
X109212142Y-75207857D01*
X109212142Y-75350714D01*
X109164523Y-75445952D01*
X109116904Y-75493571D01*
X109021666Y-75541190D01*
X108640714Y-75541190D01*
X109593095Y-75112619D02*
X109640714Y-75065000D01*
X109735952Y-75017380D01*
X109974047Y-75017380D01*
X110069285Y-75065000D01*
X110116904Y-75112619D01*
X110164523Y-75207857D01*
X110164523Y-75303095D01*
X110116904Y-75445952D01*
X109545476Y-76017380D01*
X110164523Y-76017380D01*
X110545476Y-75112619D02*
X110593095Y-75065000D01*
X110688333Y-75017380D01*
X110926428Y-75017380D01*
X111021666Y-75065000D01*
X111069285Y-75112619D01*
X111116904Y-75207857D01*
X111116904Y-75303095D01*
X111069285Y-75445952D01*
X110497857Y-76017380D01*
X111116904Y-76017380D01*
X123817142Y-134437380D02*
X123483809Y-133961190D01*
X123245714Y-134437380D02*
X123245714Y-133437380D01*
X123626666Y-133437380D01*
X123721904Y-133485000D01*
X123769523Y-133532619D01*
X123817142Y-133627857D01*
X123817142Y-133770714D01*
X123769523Y-133865952D01*
X123721904Y-133913571D01*
X123626666Y-133961190D01*
X123245714Y-133961190D01*
X124198095Y-133532619D02*
X124245714Y-133485000D01*
X124340952Y-133437380D01*
X124579047Y-133437380D01*
X124674285Y-133485000D01*
X124721904Y-133532619D01*
X124769523Y-133627857D01*
X124769523Y-133723095D01*
X124721904Y-133865952D01*
X124150476Y-134437380D01*
X124769523Y-134437380D01*
X125102857Y-133437380D02*
X125721904Y-133437380D01*
X125388571Y-133818333D01*
X125531428Y-133818333D01*
X125626666Y-133865952D01*
X125674285Y-133913571D01*
X125721904Y-134008809D01*
X125721904Y-134246904D01*
X125674285Y-134342142D01*
X125626666Y-134389761D01*
X125531428Y-134437380D01*
X125245714Y-134437380D01*
X125150476Y-134389761D01*
X125102857Y-134342142D01*
X123817142Y-116657380D02*
X123483809Y-116181190D01*
X123245714Y-116657380D02*
X123245714Y-115657380D01*
X123626666Y-115657380D01*
X123721904Y-115705000D01*
X123769523Y-115752619D01*
X123817142Y-115847857D01*
X123817142Y-115990714D01*
X123769523Y-116085952D01*
X123721904Y-116133571D01*
X123626666Y-116181190D01*
X123245714Y-116181190D01*
X124198095Y-115752619D02*
X124245714Y-115705000D01*
X124340952Y-115657380D01*
X124579047Y-115657380D01*
X124674285Y-115705000D01*
X124721904Y-115752619D01*
X124769523Y-115847857D01*
X124769523Y-115943095D01*
X124721904Y-116085952D01*
X124150476Y-116657380D01*
X124769523Y-116657380D01*
X125626666Y-115990714D02*
X125626666Y-116657380D01*
X125388571Y-115609761D02*
X125150476Y-116324047D01*
X125769523Y-116324047D01*
X110482142Y-116657380D02*
X110148809Y-116181190D01*
X109910714Y-116657380D02*
X109910714Y-115657380D01*
X110291666Y-115657380D01*
X110386904Y-115705000D01*
X110434523Y-115752619D01*
X110482142Y-115847857D01*
X110482142Y-115990714D01*
X110434523Y-116085952D01*
X110386904Y-116133571D01*
X110291666Y-116181190D01*
X109910714Y-116181190D01*
X110863095Y-115752619D02*
X110910714Y-115705000D01*
X111005952Y-115657380D01*
X111244047Y-115657380D01*
X111339285Y-115705000D01*
X111386904Y-115752619D01*
X111434523Y-115847857D01*
X111434523Y-115943095D01*
X111386904Y-116085952D01*
X110815476Y-116657380D01*
X111434523Y-116657380D01*
X112339285Y-115657380D02*
X111863095Y-115657380D01*
X111815476Y-116133571D01*
X111863095Y-116085952D01*
X111958333Y-116038333D01*
X112196428Y-116038333D01*
X112291666Y-116085952D01*
X112339285Y-116133571D01*
X112386904Y-116228809D01*
X112386904Y-116466904D01*
X112339285Y-116562142D01*
X112291666Y-116609761D01*
X112196428Y-116657380D01*
X111958333Y-116657380D01*
X111863095Y-116609761D01*
X111815476Y-116562142D01*
X111117142Y-131897380D02*
X110783809Y-131421190D01*
X110545714Y-131897380D02*
X110545714Y-130897380D01*
X110926666Y-130897380D01*
X111021904Y-130945000D01*
X111069523Y-130992619D01*
X111117142Y-131087857D01*
X111117142Y-131230714D01*
X111069523Y-131325952D01*
X111021904Y-131373571D01*
X110926666Y-131421190D01*
X110545714Y-131421190D01*
X111498095Y-130992619D02*
X111545714Y-130945000D01*
X111640952Y-130897380D01*
X111879047Y-130897380D01*
X111974285Y-130945000D01*
X112021904Y-130992619D01*
X112069523Y-131087857D01*
X112069523Y-131183095D01*
X112021904Y-131325952D01*
X111450476Y-131897380D01*
X112069523Y-131897380D01*
X112926666Y-130897380D02*
X112736190Y-130897380D01*
X112640952Y-130945000D01*
X112593333Y-130992619D01*
X112498095Y-131135476D01*
X112450476Y-131325952D01*
X112450476Y-131706904D01*
X112498095Y-131802142D01*
X112545714Y-131849761D01*
X112640952Y-131897380D01*
X112831428Y-131897380D01*
X112926666Y-131849761D01*
X112974285Y-131802142D01*
X113021904Y-131706904D01*
X113021904Y-131468809D01*
X112974285Y-131373571D01*
X112926666Y-131325952D01*
X112831428Y-131278333D01*
X112640952Y-131278333D01*
X112545714Y-131325952D01*
X112498095Y-131373571D01*
X112450476Y-131468809D01*
X123817142Y-131897380D02*
X123483809Y-131421190D01*
X123245714Y-131897380D02*
X123245714Y-130897380D01*
X123626666Y-130897380D01*
X123721904Y-130945000D01*
X123769523Y-130992619D01*
X123817142Y-131087857D01*
X123817142Y-131230714D01*
X123769523Y-131325952D01*
X123721904Y-131373571D01*
X123626666Y-131421190D01*
X123245714Y-131421190D01*
X124198095Y-130992619D02*
X124245714Y-130945000D01*
X124340952Y-130897380D01*
X124579047Y-130897380D01*
X124674285Y-130945000D01*
X124721904Y-130992619D01*
X124769523Y-131087857D01*
X124769523Y-131183095D01*
X124721904Y-131325952D01*
X124150476Y-131897380D01*
X124769523Y-131897380D01*
X125102857Y-130897380D02*
X125769523Y-130897380D01*
X125340952Y-131897380D01*
X123182142Y-119197380D02*
X122848809Y-118721190D01*
X122610714Y-119197380D02*
X122610714Y-118197380D01*
X122991666Y-118197380D01*
X123086904Y-118245000D01*
X123134523Y-118292619D01*
X123182142Y-118387857D01*
X123182142Y-118530714D01*
X123134523Y-118625952D01*
X123086904Y-118673571D01*
X122991666Y-118721190D01*
X122610714Y-118721190D01*
X123563095Y-118292619D02*
X123610714Y-118245000D01*
X123705952Y-118197380D01*
X123944047Y-118197380D01*
X124039285Y-118245000D01*
X124086904Y-118292619D01*
X124134523Y-118387857D01*
X124134523Y-118483095D01*
X124086904Y-118625952D01*
X123515476Y-119197380D01*
X124134523Y-119197380D01*
X124705952Y-118625952D02*
X124610714Y-118578333D01*
X124563095Y-118530714D01*
X124515476Y-118435476D01*
X124515476Y-118387857D01*
X124563095Y-118292619D01*
X124610714Y-118245000D01*
X124705952Y-118197380D01*
X124896428Y-118197380D01*
X124991666Y-118245000D01*
X125039285Y-118292619D01*
X125086904Y-118387857D01*
X125086904Y-118435476D01*
X125039285Y-118530714D01*
X124991666Y-118578333D01*
X124896428Y-118625952D01*
X124705952Y-118625952D01*
X124610714Y-118673571D01*
X124563095Y-118721190D01*
X124515476Y-118816428D01*
X124515476Y-119006904D01*
X124563095Y-119102142D01*
X124610714Y-119149761D01*
X124705952Y-119197380D01*
X124896428Y-119197380D01*
X124991666Y-119149761D01*
X125039285Y-119102142D01*
X125086904Y-119006904D01*
X125086904Y-118816428D01*
X125039285Y-118721190D01*
X124991666Y-118673571D01*
X124896428Y-118625952D01*
X111117142Y-119197380D02*
X110783809Y-118721190D01*
X110545714Y-119197380D02*
X110545714Y-118197380D01*
X110926666Y-118197380D01*
X111021904Y-118245000D01*
X111069523Y-118292619D01*
X111117142Y-118387857D01*
X111117142Y-118530714D01*
X111069523Y-118625952D01*
X111021904Y-118673571D01*
X110926666Y-118721190D01*
X110545714Y-118721190D01*
X111498095Y-118292619D02*
X111545714Y-118245000D01*
X111640952Y-118197380D01*
X111879047Y-118197380D01*
X111974285Y-118245000D01*
X112021904Y-118292619D01*
X112069523Y-118387857D01*
X112069523Y-118483095D01*
X112021904Y-118625952D01*
X111450476Y-119197380D01*
X112069523Y-119197380D01*
X112545714Y-119197380D02*
X112736190Y-119197380D01*
X112831428Y-119149761D01*
X112879047Y-119102142D01*
X112974285Y-118959285D01*
X113021904Y-118768809D01*
X113021904Y-118387857D01*
X112974285Y-118292619D01*
X112926666Y-118245000D01*
X112831428Y-118197380D01*
X112640952Y-118197380D01*
X112545714Y-118245000D01*
X112498095Y-118292619D01*
X112450476Y-118387857D01*
X112450476Y-118625952D01*
X112498095Y-118721190D01*
X112545714Y-118768809D01*
X112640952Y-118816428D01*
X112831428Y-118816428D01*
X112926666Y-118768809D01*
X112974285Y-118721190D01*
X113021904Y-118625952D01*
X110482142Y-134437380D02*
X110148809Y-133961190D01*
X109910714Y-134437380D02*
X109910714Y-133437380D01*
X110291666Y-133437380D01*
X110386904Y-133485000D01*
X110434523Y-133532619D01*
X110482142Y-133627857D01*
X110482142Y-133770714D01*
X110434523Y-133865952D01*
X110386904Y-133913571D01*
X110291666Y-133961190D01*
X109910714Y-133961190D01*
X110815476Y-133437380D02*
X111434523Y-133437380D01*
X111101190Y-133818333D01*
X111244047Y-133818333D01*
X111339285Y-133865952D01*
X111386904Y-133913571D01*
X111434523Y-134008809D01*
X111434523Y-134246904D01*
X111386904Y-134342142D01*
X111339285Y-134389761D01*
X111244047Y-134437380D01*
X110958333Y-134437380D01*
X110863095Y-134389761D01*
X110815476Y-134342142D01*
X112053571Y-133437380D02*
X112148809Y-133437380D01*
X112244047Y-133485000D01*
X112291666Y-133532619D01*
X112339285Y-133627857D01*
X112386904Y-133818333D01*
X112386904Y-134056428D01*
X112339285Y-134246904D01*
X112291666Y-134342142D01*
X112244047Y-134389761D01*
X112148809Y-134437380D01*
X112053571Y-134437380D01*
X111958333Y-134389761D01*
X111910714Y-134342142D01*
X111863095Y-134246904D01*
X111815476Y-134056428D01*
X111815476Y-133818333D01*
X111863095Y-133627857D01*
X111910714Y-133532619D01*
X111958333Y-133485000D01*
X112053571Y-133437380D01*
X110894761Y-69278333D02*
X110942380Y-69135476D01*
X110942380Y-68897380D01*
X110894761Y-68802142D01*
X110847142Y-68754523D01*
X110751904Y-68706904D01*
X110656666Y-68706904D01*
X110561428Y-68754523D01*
X110513809Y-68802142D01*
X110466190Y-68897380D01*
X110418571Y-69087857D01*
X110370952Y-69183095D01*
X110323333Y-69230714D01*
X110228095Y-69278333D01*
X110132857Y-69278333D01*
X110037619Y-69230714D01*
X109990000Y-69183095D01*
X109942380Y-69087857D01*
X109942380Y-68849761D01*
X109990000Y-68706904D01*
X109942380Y-68373571D02*
X110942380Y-68135476D01*
X110228095Y-67945000D01*
X110942380Y-67754523D01*
X109942380Y-67516428D01*
X109942380Y-66659285D02*
X109942380Y-67135476D01*
X110418571Y-67183095D01*
X110370952Y-67135476D01*
X110323333Y-67040238D01*
X110323333Y-66802142D01*
X110370952Y-66706904D01*
X110418571Y-66659285D01*
X110513809Y-66611666D01*
X110751904Y-66611666D01*
X110847142Y-66659285D01*
X110894761Y-66706904D01*
X110942380Y-66802142D01*
X110942380Y-67040238D01*
X110894761Y-67135476D01*
X110847142Y-67183095D01*
X121158095Y-66127380D02*
X121158095Y-66936904D01*
X121205714Y-67032142D01*
X121253333Y-67079761D01*
X121348571Y-67127380D01*
X121539047Y-67127380D01*
X121634285Y-67079761D01*
X121681904Y-67032142D01*
X121729523Y-66936904D01*
X121729523Y-66127380D01*
X122158095Y-66222619D02*
X122205714Y-66175000D01*
X122300952Y-66127380D01*
X122539047Y-66127380D01*
X122634285Y-66175000D01*
X122681904Y-66222619D01*
X122729523Y-66317857D01*
X122729523Y-66413095D01*
X122681904Y-66555952D01*
X122110476Y-67127380D01*
X122729523Y-67127380D01*
X118832380Y-106806904D02*
X119641904Y-106806904D01*
X119737142Y-106759285D01*
X119784761Y-106711666D01*
X119832380Y-106616428D01*
X119832380Y-106425952D01*
X119784761Y-106330714D01*
X119737142Y-106283095D01*
X119641904Y-106235476D01*
X118832380Y-106235476D01*
X118832380Y-105854523D02*
X118832380Y-105235476D01*
X119213333Y-105568809D01*
X119213333Y-105425952D01*
X119260952Y-105330714D01*
X119308571Y-105283095D01*
X119403809Y-105235476D01*
X119641904Y-105235476D01*
X119737142Y-105283095D01*
X119784761Y-105330714D01*
X119832380Y-105425952D01*
X119832380Y-105711666D01*
X119784761Y-105806904D01*
X119737142Y-105854523D01*
X110847142Y-125261666D02*
X110894761Y-125309285D01*
X110942380Y-125452142D01*
X110942380Y-125547380D01*
X110894761Y-125690238D01*
X110799523Y-125785476D01*
X110704285Y-125833095D01*
X110513809Y-125880714D01*
X110370952Y-125880714D01*
X110180476Y-125833095D01*
X110085238Y-125785476D01*
X109990000Y-125690238D01*
X109942380Y-125547380D01*
X109942380Y-125452142D01*
X109990000Y-125309285D01*
X110037619Y-125261666D01*
X109942380Y-124356904D02*
X109942380Y-124833095D01*
X110418571Y-124880714D01*
X110370952Y-124833095D01*
X110323333Y-124737857D01*
X110323333Y-124499761D01*
X110370952Y-124404523D01*
X110418571Y-124356904D01*
X110513809Y-124309285D01*
X110751904Y-124309285D01*
X110847142Y-124356904D01*
X110894761Y-124404523D01*
X110942380Y-124499761D01*
X110942380Y-124737857D01*
X110894761Y-124833095D01*
X110847142Y-124880714D01*
X121753333Y-97512142D02*
X121705714Y-97559761D01*
X121562857Y-97607380D01*
X121467619Y-97607380D01*
X121324761Y-97559761D01*
X121229523Y-97464523D01*
X121181904Y-97369285D01*
X121134285Y-97178809D01*
X121134285Y-97035952D01*
X121181904Y-96845476D01*
X121229523Y-96750238D01*
X121324761Y-96655000D01*
X121467619Y-96607380D01*
X121562857Y-96607380D01*
X121705714Y-96655000D01*
X121753333Y-96702619D01*
X122610476Y-96607380D02*
X122420000Y-96607380D01*
X122324761Y-96655000D01*
X122277142Y-96702619D01*
X122181904Y-96845476D01*
X122134285Y-97035952D01*
X122134285Y-97416904D01*
X122181904Y-97512142D01*
X122229523Y-97559761D01*
X122324761Y-97607380D01*
X122515238Y-97607380D01*
X122610476Y-97559761D01*
X122658095Y-97512142D01*
X122705714Y-97416904D01*
X122705714Y-97178809D01*
X122658095Y-97083571D01*
X122610476Y-97035952D01*
X122515238Y-96988333D01*
X122324761Y-96988333D01*
X122229523Y-97035952D01*
X122181904Y-97083571D01*
X122134285Y-97178809D01*
X110847142Y-106211666D02*
X110894761Y-106259285D01*
X110942380Y-106402142D01*
X110942380Y-106497380D01*
X110894761Y-106640238D01*
X110799523Y-106735476D01*
X110704285Y-106783095D01*
X110513809Y-106830714D01*
X110370952Y-106830714D01*
X110180476Y-106783095D01*
X110085238Y-106735476D01*
X109990000Y-106640238D01*
X109942380Y-106497380D01*
X109942380Y-106402142D01*
X109990000Y-106259285D01*
X110037619Y-106211666D01*
X109942380Y-105878333D02*
X109942380Y-105211666D01*
X110942380Y-105640238D01*
X102703333Y-152122142D02*
X102655714Y-152169761D01*
X102512857Y-152217380D01*
X102417619Y-152217380D01*
X102274761Y-152169761D01*
X102179523Y-152074523D01*
X102131904Y-151979285D01*
X102084285Y-151788809D01*
X102084285Y-151645952D01*
X102131904Y-151455476D01*
X102179523Y-151360238D01*
X102274761Y-151265000D01*
X102417619Y-151217380D01*
X102512857Y-151217380D01*
X102655714Y-151265000D01*
X102703333Y-151312619D01*
X103274761Y-151645952D02*
X103179523Y-151598333D01*
X103131904Y-151550714D01*
X103084285Y-151455476D01*
X103084285Y-151407857D01*
X103131904Y-151312619D01*
X103179523Y-151265000D01*
X103274761Y-151217380D01*
X103465238Y-151217380D01*
X103560476Y-151265000D01*
X103608095Y-151312619D01*
X103655714Y-151407857D01*
X103655714Y-151455476D01*
X103608095Y-151550714D01*
X103560476Y-151598333D01*
X103465238Y-151645952D01*
X103274761Y-151645952D01*
X103179523Y-151693571D01*
X103131904Y-151741190D01*
X103084285Y-151836428D01*
X103084285Y-152026904D01*
X103131904Y-152122142D01*
X103179523Y-152169761D01*
X103274761Y-152217380D01*
X103465238Y-152217380D01*
X103560476Y-152169761D01*
X103608095Y-152122142D01*
X103655714Y-152026904D01*
X103655714Y-151836428D01*
X103608095Y-151741190D01*
X103560476Y-151693571D01*
X103465238Y-151645952D01*
X105243333Y-139422142D02*
X105195714Y-139469761D01*
X105052857Y-139517380D01*
X104957619Y-139517380D01*
X104814761Y-139469761D01*
X104719523Y-139374523D01*
X104671904Y-139279285D01*
X104624285Y-139088809D01*
X104624285Y-138945952D01*
X104671904Y-138755476D01*
X104719523Y-138660238D01*
X104814761Y-138565000D01*
X104957619Y-138517380D01*
X105052857Y-138517380D01*
X105195714Y-138565000D01*
X105243333Y-138612619D01*
X105719523Y-139517380D02*
X105910000Y-139517380D01*
X106005238Y-139469761D01*
X106052857Y-139422142D01*
X106148095Y-139279285D01*
X106195714Y-139088809D01*
X106195714Y-138707857D01*
X106148095Y-138612619D01*
X106100476Y-138565000D01*
X106005238Y-138517380D01*
X105814761Y-138517380D01*
X105719523Y-138565000D01*
X105671904Y-138612619D01*
X105624285Y-138707857D01*
X105624285Y-138945952D01*
X105671904Y-139041190D01*
X105719523Y-139088809D01*
X105814761Y-139136428D01*
X106005238Y-139136428D01*
X106100476Y-139088809D01*
X106148095Y-139041190D01*
X106195714Y-138945952D01*
X122752380Y-150439285D02*
X121752380Y-150439285D01*
X121752380Y-150201190D01*
X121800000Y-150058333D01*
X121895238Y-149963095D01*
X121990476Y-149915476D01*
X122180952Y-149867857D01*
X122323809Y-149867857D01*
X122514285Y-149915476D01*
X122609523Y-149963095D01*
X122704761Y-150058333D01*
X122752380Y-150201190D01*
X122752380Y-150439285D01*
X122752380Y-148915476D02*
X122752380Y-149486904D01*
X122752380Y-149201190D02*
X121752380Y-149201190D01*
X121895238Y-149296428D01*
X121990476Y-149391666D01*
X122038095Y-149486904D01*
X121847619Y-148534523D02*
X121800000Y-148486904D01*
X121752380Y-148391666D01*
X121752380Y-148153571D01*
X121800000Y-148058333D01*
X121847619Y-148010714D01*
X121942857Y-147963095D01*
X122038095Y-147963095D01*
X122180952Y-148010714D01*
X122752380Y-148582142D01*
X122752380Y-147963095D01*
X119546666Y-152853095D02*
X119546666Y-152376904D01*
X119832380Y-152948333D02*
X118832380Y-152615000D01*
X119832380Y-152281666D01*
X122752380Y-158059285D02*
X121752380Y-158059285D01*
X121752380Y-157821190D01*
X121800000Y-157678333D01*
X121895238Y-157583095D01*
X121990476Y-157535476D01*
X122180952Y-157487857D01*
X122323809Y-157487857D01*
X122514285Y-157535476D01*
X122609523Y-157583095D01*
X122704761Y-157678333D01*
X122752380Y-157821190D01*
X122752380Y-158059285D01*
X122752380Y-156535476D02*
X122752380Y-157106904D01*
X122752380Y-156821190D02*
X121752380Y-156821190D01*
X121895238Y-156916428D01*
X121990476Y-157011666D01*
X122038095Y-157106904D01*
X121752380Y-156202142D02*
X121752380Y-155583095D01*
X122133333Y-155916428D01*
X122133333Y-155773571D01*
X122180952Y-155678333D01*
X122228571Y-155630714D01*
X122323809Y-155583095D01*
X122561904Y-155583095D01*
X122657142Y-155630714D01*
X122704761Y-155678333D01*
X122752380Y-155773571D01*
X122752380Y-156059285D01*
X122704761Y-156154523D01*
X122657142Y-156202142D01*
X119546666Y-160473095D02*
X119546666Y-159996904D01*
X119832380Y-160568333D02*
X118832380Y-160235000D01*
X119832380Y-159901666D01*
X112696666Y-145077380D02*
X112696666Y-145791666D01*
X112649047Y-145934523D01*
X112553809Y-146029761D01*
X112410952Y-146077380D01*
X112315714Y-146077380D01*
X113601428Y-145077380D02*
X113410952Y-145077380D01*
X113315714Y-145125000D01*
X113268095Y-145172619D01*
X113172857Y-145315476D01*
X113125238Y-145505952D01*
X113125238Y-145886904D01*
X113172857Y-145982142D01*
X113220476Y-146029761D01*
X113315714Y-146077380D01*
X113506190Y-146077380D01*
X113601428Y-146029761D01*
X113649047Y-145982142D01*
X113696666Y-145886904D01*
X113696666Y-145648809D01*
X113649047Y-145553571D01*
X113601428Y-145505952D01*
X113506190Y-145458333D01*
X113315714Y-145458333D01*
X113220476Y-145505952D01*
X113172857Y-145553571D01*
X113125238Y-145648809D01*
X103806666Y-80307380D02*
X103806666Y-81021666D01*
X103759047Y-81164523D01*
X103663809Y-81259761D01*
X103520952Y-81307380D01*
X103425714Y-81307380D01*
X104330476Y-81307380D02*
X104520952Y-81307380D01*
X104616190Y-81259761D01*
X104663809Y-81212142D01*
X104759047Y-81069285D01*
X104806666Y-80878809D01*
X104806666Y-80497857D01*
X104759047Y-80402619D01*
X104711428Y-80355000D01*
X104616190Y-80307380D01*
X104425714Y-80307380D01*
X104330476Y-80355000D01*
X104282857Y-80402619D01*
X104235238Y-80497857D01*
X104235238Y-80735952D01*
X104282857Y-80831190D01*
X104330476Y-80878809D01*
X104425714Y-80926428D01*
X104616190Y-80926428D01*
X104711428Y-80878809D01*
X104759047Y-80831190D01*
X104806666Y-80735952D01*
X136350476Y-128567380D02*
X136350476Y-129281666D01*
X136302857Y-129424523D01*
X136207619Y-129519761D01*
X136064761Y-129567380D01*
X135969523Y-129567380D01*
X137350476Y-129567380D02*
X136779047Y-129567380D01*
X137064761Y-129567380D02*
X137064761Y-128567380D01*
X136969523Y-128710238D01*
X136874285Y-128805476D01*
X136779047Y-128853095D01*
X137969523Y-128567380D02*
X138064761Y-128567380D01*
X138160000Y-128615000D01*
X138207619Y-128662619D01*
X138255238Y-128757857D01*
X138302857Y-128948333D01*
X138302857Y-129186428D01*
X138255238Y-129376904D01*
X138207619Y-129472142D01*
X138160000Y-129519761D01*
X138064761Y-129567380D01*
X137969523Y-129567380D01*
X137874285Y-129519761D01*
X137826666Y-129472142D01*
X137779047Y-129376904D01*
X137731428Y-129186428D01*
X137731428Y-128948333D01*
X137779047Y-128757857D01*
X137826666Y-128662619D01*
X137874285Y-128615000D01*
X137969523Y-128567380D01*
X109942380Y-144906904D02*
X110751904Y-144906904D01*
X110847142Y-144859285D01*
X110894761Y-144811666D01*
X110942380Y-144716428D01*
X110942380Y-144525952D01*
X110894761Y-144430714D01*
X110847142Y-144383095D01*
X110751904Y-144335476D01*
X109942380Y-144335476D01*
X110275714Y-143430714D02*
X110942380Y-143430714D01*
X109894761Y-143668809D02*
X110609047Y-143906904D01*
X110609047Y-143287857D01*
X134524761Y-82212619D02*
X134429523Y-82165000D01*
X134334285Y-82069761D01*
X134191428Y-81926904D01*
X134096190Y-81879285D01*
X134000952Y-81879285D01*
X134048571Y-82117380D02*
X133953333Y-82069761D01*
X133858095Y-81974523D01*
X133810476Y-81784047D01*
X133810476Y-81450714D01*
X133858095Y-81260238D01*
X133953333Y-81165000D01*
X134048571Y-81117380D01*
X134239047Y-81117380D01*
X134334285Y-81165000D01*
X134429523Y-81260238D01*
X134477142Y-81450714D01*
X134477142Y-81784047D01*
X134429523Y-81974523D01*
X134334285Y-82069761D01*
X134239047Y-82117380D01*
X134048571Y-82117380D01*
X135429523Y-82117380D02*
X134858095Y-82117380D01*
X135143809Y-82117380D02*
X135143809Y-81117380D01*
X135048571Y-81260238D01*
X134953333Y-81355476D01*
X134858095Y-81403095D01*
X103536009Y-149169285D02*
X102536009Y-149169285D01*
X102536009Y-148931190D01*
X102583629Y-148788333D01*
X102678867Y-148693095D01*
X102774105Y-148645476D01*
X102964581Y-148597857D01*
X103107438Y-148597857D01*
X103297914Y-148645476D01*
X103393152Y-148693095D01*
X103488390Y-148788333D01*
X103536009Y-148931190D01*
X103536009Y-149169285D01*
X103536009Y-147645476D02*
X103536009Y-148216904D01*
X103536009Y-147931190D02*
X102536009Y-147931190D01*
X102678867Y-148026428D01*
X102774105Y-148121666D01*
X102821724Y-148216904D01*
X103536009Y-146693095D02*
X103536009Y-147264523D01*
X103536009Y-146978809D02*
X102536009Y-146978809D01*
X102678867Y-147074047D01*
X102774105Y-147169285D01*
X102821724Y-147264523D01*
X105576666Y-145123095D02*
X105576666Y-144646904D01*
X105862380Y-145218333D02*
X104862380Y-144885000D01*
X105862380Y-144551666D01*
X133707142Y-125737857D02*
X133754761Y-125785476D01*
X133802380Y-125928333D01*
X133802380Y-126023571D01*
X133754761Y-126166428D01*
X133659523Y-126261666D01*
X133564285Y-126309285D01*
X133373809Y-126356904D01*
X133230952Y-126356904D01*
X133040476Y-126309285D01*
X132945238Y-126261666D01*
X132850000Y-126166428D01*
X132802380Y-126023571D01*
X132802380Y-125928333D01*
X132850000Y-125785476D01*
X132897619Y-125737857D01*
X133802380Y-124785476D02*
X133802380Y-125356904D01*
X133802380Y-125071190D02*
X132802380Y-125071190D01*
X132945238Y-125166428D01*
X133040476Y-125261666D01*
X133088095Y-125356904D01*
X132802380Y-124166428D02*
X132802380Y-124071190D01*
X132850000Y-123975952D01*
X132897619Y-123928333D01*
X132992857Y-123880714D01*
X133183333Y-123833095D01*
X133421428Y-123833095D01*
X133611904Y-123880714D01*
X133707142Y-123928333D01*
X133754761Y-123975952D01*
X133802380Y-124071190D01*
X133802380Y-124166428D01*
X133754761Y-124261666D01*
X133707142Y-124309285D01*
X133611904Y-124356904D01*
X133421428Y-124404523D01*
X133183333Y-124404523D01*
X132992857Y-124356904D01*
X132897619Y-124309285D01*
X132850000Y-124261666D01*
X132802380Y-124166428D01*
%LPC*%
D12*
X67310000Y-158115000D03*
X96520000Y-73025000D03*
D13*
X74930000Y-154305000D03*
D14*
X82550000Y-65405000D03*
D15*
X85090000Y-65405000D03*
D14*
X95250000Y-65405000D03*
D15*
X97790000Y-65405000D03*
D14*
X95250000Y-122555000D03*
D15*
X97790000Y-122555000D03*
X97790000Y-108585000D03*
D14*
X95250000Y-108585000D03*
X95250000Y-94615000D03*
D15*
X97790000Y-94615000D03*
X97790000Y-80645000D03*
D14*
X95250000Y-80645000D03*
D15*
X85090000Y-80645000D03*
D14*
X82550000Y-80645000D03*
D15*
X85090000Y-94615000D03*
D14*
X82550000Y-94615000D03*
D15*
X85090000Y-108585000D03*
D14*
X82550000Y-108585000D03*
X82550000Y-122555000D03*
D15*
X85090000Y-122555000D03*
D16*
X75770000Y-65435000D03*
X67470000Y-65435000D03*
D17*
X78870000Y-65435000D03*
D18*
X72420000Y-77265000D03*
X72420000Y-85565000D03*
D19*
X72420000Y-74165000D03*
X72420000Y-88135000D03*
D18*
X72420000Y-99535000D03*
X72420000Y-91235000D03*
X72420000Y-105205000D03*
X72420000Y-113505000D03*
D19*
X72420000Y-102105000D03*
X72420000Y-116075000D03*
D18*
X72420000Y-127475000D03*
X72420000Y-119175000D03*
D20*
X87630000Y-144145000D03*
D21*
X87630000Y-146685000D03*
X85090000Y-136525000D03*
D20*
X87630000Y-136525000D03*
X82550000Y-70485000D03*
D21*
X85090000Y-70485000D03*
X85090000Y-146685000D03*
D20*
X85090000Y-144145000D03*
D21*
X66040000Y-145415000D03*
D20*
X66040000Y-142875000D03*
X92075000Y-67945000D03*
D21*
X92075000Y-65405000D03*
D20*
X95250000Y-118110000D03*
D21*
X97790000Y-118110000D03*
X97790000Y-104140000D03*
D20*
X95250000Y-104140000D03*
X95250000Y-99060000D03*
D21*
X97790000Y-99060000D03*
X97790000Y-85725000D03*
D20*
X95250000Y-85725000D03*
X82550000Y-75565000D03*
D21*
X80010000Y-75565000D03*
D20*
X82550000Y-90170000D03*
D21*
X80010000Y-90170000D03*
X85090000Y-103505000D03*
D20*
X82550000Y-103505000D03*
X82550000Y-118110000D03*
D21*
X80010000Y-118110000D03*
X78740000Y-83185000D03*
D20*
X78740000Y-85725000D03*
D21*
X78740000Y-97155000D03*
D20*
X78740000Y-99695000D03*
D21*
X78740000Y-111125000D03*
D20*
X78740000Y-113665000D03*
X78740000Y-127635000D03*
D21*
X78740000Y-125095000D03*
D22*
X80490000Y-137915000D03*
X69290000Y-137915000D03*
D23*
X77390000Y-145415000D03*
X74890000Y-145415000D03*
D24*
X72390000Y-145415000D03*
D25*
X81915000Y-156210000D03*
D26*
X81915000Y-158750000D03*
D27*
X85090000Y-139065000D03*
X85090000Y-141605000D03*
X66040000Y-140335000D03*
X66040000Y-137795000D03*
D25*
X66040000Y-106045000D03*
X66040000Y-103505000D03*
X66040000Y-100965000D03*
X66040000Y-98425000D03*
X66040000Y-95885000D03*
X66040000Y-93345000D03*
X66040000Y-90805000D03*
X66040000Y-88265000D03*
X66040000Y-85725000D03*
D26*
X66040000Y-83185000D03*
X99060000Y-131445000D03*
D25*
X99060000Y-133985000D03*
X99060000Y-136525000D03*
X99060000Y-139065000D03*
X99060000Y-141605000D03*
X99060000Y-144145000D03*
X99060000Y-146685000D03*
X99060000Y-149225000D03*
X99060000Y-151765000D03*
X99060000Y-154305000D03*
D28*
X92710000Y-151765000D03*
X92710000Y-156845000D03*
X92710000Y-140335000D03*
X92710000Y-135255000D03*
D29*
X114300000Y-128905000D03*
D21*
X129540000Y-121285000D03*
X116840000Y-128905000D03*
X127000000Y-121285000D03*
X119380000Y-128905000D03*
X124460000Y-121285000D03*
X121920000Y-128905000D03*
X121920000Y-121285000D03*
X124460000Y-128905000D03*
X119380000Y-121285000D03*
X127000000Y-128905000D03*
X116840000Y-121285000D03*
X129540000Y-128905000D03*
X114300000Y-121285000D03*
D12*
X134620000Y-73025000D03*
X105410000Y-158115000D03*
D29*
X133350000Y-156845000D03*
D20*
X130850000Y-156845000D03*
X123230000Y-156845000D03*
D29*
X125730000Y-156845000D03*
D20*
X106680000Y-83185000D03*
D21*
X106680000Y-85725000D03*
X132080000Y-83185000D03*
D20*
X132080000Y-85725000D03*
X137160000Y-85725000D03*
D21*
X137160000Y-83185000D03*
X106680000Y-75565000D03*
D20*
X104140000Y-75565000D03*
X129540000Y-133985000D03*
D21*
X127000000Y-133985000D03*
D20*
X129540000Y-116205000D03*
D21*
X127000000Y-116205000D03*
D20*
X114300000Y-116205000D03*
D21*
X116840000Y-116205000D03*
D20*
X114300000Y-133985000D03*
D21*
X116840000Y-133985000D03*
X129540000Y-131445000D03*
D20*
X127000000Y-131445000D03*
D21*
X129540000Y-118745000D03*
D20*
X127000000Y-118745000D03*
D21*
X114300000Y-118745000D03*
D20*
X116840000Y-118745000D03*
D21*
X114300000Y-131445000D03*
D20*
X116840000Y-131445000D03*
D23*
X108640000Y-71755000D03*
X104140000Y-71755000D03*
X108640000Y-65255000D03*
X104140000Y-65255000D03*
D30*
X129540000Y-65405000D03*
X114300000Y-65405000D03*
X129540000Y-67945000D03*
X114300000Y-67945000D03*
X129540000Y-70485000D03*
X114300000Y-70485000D03*
X129540000Y-73025000D03*
X114300000Y-73025000D03*
X129540000Y-75565000D03*
X114300000Y-75565000D03*
X129540000Y-78105000D03*
X114300000Y-78105000D03*
X129540000Y-80645000D03*
X114300000Y-80645000D03*
X129540000Y-83185000D03*
X114300000Y-83185000D03*
X129540000Y-85725000D03*
X114300000Y-85725000D03*
X129540000Y-88265000D03*
X114300000Y-88265000D03*
X129540000Y-90805000D03*
X114300000Y-90805000D03*
X129540000Y-93345000D03*
X114300000Y-93345000D03*
D29*
X114300000Y-109855000D03*
D21*
X132080000Y-102235000D03*
X116840000Y-109855000D03*
X129540000Y-102235000D03*
X119380000Y-109855000D03*
X127000000Y-102235000D03*
X121920000Y-109855000D03*
X124460000Y-102235000D03*
X124460000Y-109855000D03*
X121920000Y-102235000D03*
X127000000Y-109855000D03*
X119380000Y-102235000D03*
X129540000Y-109855000D03*
X116840000Y-102235000D03*
X132080000Y-109855000D03*
X114300000Y-102235000D03*
D27*
X111760000Y-126365000D03*
X111760000Y-123825000D03*
X121920000Y-99695000D03*
X124460000Y-99695000D03*
X111760000Y-107315000D03*
X111760000Y-104775000D03*
X105410000Y-151765000D03*
X107950000Y-151765000D03*
X107950000Y-141605000D03*
X105410000Y-141605000D03*
D31*
X119380000Y-147955000D03*
D32*
X119380000Y-150495000D03*
X119380000Y-158115000D03*
D31*
X119380000Y-155575000D03*
D26*
X111760000Y-147955000D03*
D25*
X114300000Y-147955000D03*
X111760000Y-150495000D03*
X114300000Y-150495000D03*
X111760000Y-153035000D03*
X114300000Y-153035000D03*
X111760000Y-155575000D03*
X114300000Y-155575000D03*
X111760000Y-158115000D03*
X114300000Y-158115000D03*
X104140000Y-106045000D03*
X104140000Y-103505000D03*
X104140000Y-100965000D03*
X104140000Y-98425000D03*
X104140000Y-95885000D03*
X104140000Y-93345000D03*
X104140000Y-90805000D03*
X104140000Y-88265000D03*
X104140000Y-85725000D03*
D26*
X104140000Y-83185000D03*
X137160000Y-131445000D03*
D25*
X137160000Y-133985000D03*
X137160000Y-136525000D03*
X137160000Y-139065000D03*
X137160000Y-141605000D03*
X137160000Y-144145000D03*
X137160000Y-146685000D03*
X137160000Y-149225000D03*
X137160000Y-151765000D03*
X137160000Y-154305000D03*
D33*
X107950000Y-146685000D03*
X107950000Y-149225000D03*
D34*
X107950000Y-144145000D03*
D33*
X134620000Y-78105000D03*
X132080000Y-78105000D03*
D34*
X137160000Y-78105000D03*
D29*
X105410000Y-149225000D03*
D21*
X105410000Y-146685000D03*
D27*
X132080000Y-126365000D03*
X132080000Y-123825000D03*
M02*
