G04 #@! TF.GenerationSoftware,KiCad,Pcbnew,(5.1.8-0-10_14)*
G04 #@! TF.CreationDate,2023-03-10T16:16:57+09:00*
G04 #@! TF.ProjectId,ButtonSequencer,42757474-6f6e-4536-9571-75656e636572,rev?*
G04 #@! TF.SameCoordinates,Original*
G04 #@! TF.FileFunction,Soldermask,Top*
G04 #@! TF.FilePolarity,Negative*
%FSLAX46Y46*%
G04 Gerber Fmt 4.6, Leading zero omitted, Abs format (unit mm)*
G04 Created by KiCad (PCBNEW (5.1.8-0-10_14)) date 2023-03-10 16:16:57*
%MOMM*%
%LPD*%
G01*
G04 APERTURE LIST*
%ADD10C,3.200000*%
%ADD11C,9.000000*%
%ADD12R,1.800000X1.800000*%
%ADD13C,1.800000*%
%ADD14O,2.130000X2.500000*%
%ADD15R,1.830000X1.930000*%
%ADD16O,2.500000X2.130000*%
%ADD17R,1.930000X1.830000*%
%ADD18C,1.600000*%
%ADD19O,1.600000X1.600000*%
%ADD20R,2.500000X3.000000*%
%ADD21C,2.000000*%
%ADD22R,2.000000X2.000000*%
%ADD23O,1.700000X1.700000*%
%ADD24R,1.700000X1.700000*%
%ADD25C,1.524000*%
%ADD26O,3.300000X1.524000*%
%ADD27R,1.600000X1.600000*%
%ADD28O,2.000000X1.200000*%
%ADD29R,2.240000X2.240000*%
%ADD30O,2.240000X2.240000*%
%ADD31C,1.500000*%
%ADD32R,1.500000X1.500000*%
G04 APERTURE END LIST*
D10*
X67310000Y-158115000D03*
X96520000Y-73025000D03*
D11*
X74930000Y-154305000D03*
D12*
X82550000Y-65405000D03*
D13*
X85090000Y-65405000D03*
D12*
X95250000Y-65405000D03*
D13*
X97790000Y-65405000D03*
D12*
X95250000Y-122555000D03*
D13*
X97790000Y-122555000D03*
X97790000Y-108585000D03*
D12*
X95250000Y-108585000D03*
X95250000Y-94615000D03*
D13*
X97790000Y-94615000D03*
X97790000Y-80645000D03*
D12*
X95250000Y-80645000D03*
D13*
X85090000Y-80645000D03*
D12*
X82550000Y-80645000D03*
D13*
X85090000Y-94615000D03*
D12*
X82550000Y-94615000D03*
D13*
X85090000Y-108585000D03*
D12*
X82550000Y-108585000D03*
X82550000Y-122555000D03*
D13*
X85090000Y-122555000D03*
D14*
X75770000Y-65435000D03*
X67470000Y-65435000D03*
D15*
X78870000Y-65435000D03*
D16*
X72420000Y-77265000D03*
X72420000Y-85565000D03*
D17*
X72420000Y-74165000D03*
X72420000Y-88135000D03*
D16*
X72420000Y-99535000D03*
X72420000Y-91235000D03*
X72420000Y-105205000D03*
X72420000Y-113505000D03*
D17*
X72420000Y-102105000D03*
X72420000Y-116075000D03*
D16*
X72420000Y-127475000D03*
X72420000Y-119175000D03*
D18*
X87630000Y-144145000D03*
D19*
X87630000Y-146685000D03*
X85090000Y-136525000D03*
D18*
X87630000Y-136525000D03*
X82550000Y-70485000D03*
D19*
X85090000Y-70485000D03*
X85090000Y-146685000D03*
D18*
X85090000Y-144145000D03*
D19*
X66040000Y-145415000D03*
D18*
X66040000Y-142875000D03*
X92075000Y-67945000D03*
D19*
X92075000Y-65405000D03*
D18*
X95250000Y-118110000D03*
D19*
X97790000Y-118110000D03*
X97790000Y-104140000D03*
D18*
X95250000Y-104140000D03*
X95250000Y-99060000D03*
D19*
X97790000Y-99060000D03*
X97790000Y-85725000D03*
D18*
X95250000Y-85725000D03*
X82550000Y-75565000D03*
D19*
X80010000Y-75565000D03*
D18*
X82550000Y-90170000D03*
D19*
X80010000Y-90170000D03*
X85090000Y-103505000D03*
D18*
X82550000Y-103505000D03*
X82550000Y-118110000D03*
D19*
X80010000Y-118110000D03*
X78740000Y-83185000D03*
D18*
X78740000Y-85725000D03*
D19*
X78740000Y-97155000D03*
D18*
X78740000Y-99695000D03*
D19*
X78740000Y-111125000D03*
D18*
X78740000Y-113665000D03*
X78740000Y-127635000D03*
D19*
X78740000Y-125095000D03*
D20*
X80490000Y-137915000D03*
X69290000Y-137915000D03*
D21*
X77390000Y-145415000D03*
X74890000Y-145415000D03*
D22*
X72390000Y-145415000D03*
D23*
X81915000Y-156210000D03*
D24*
X81915000Y-158750000D03*
D25*
X85090000Y-139065000D03*
X85090000Y-141605000D03*
X66040000Y-140335000D03*
X66040000Y-137795000D03*
D23*
X66040000Y-106045000D03*
X66040000Y-103505000D03*
X66040000Y-100965000D03*
X66040000Y-98425000D03*
X66040000Y-95885000D03*
X66040000Y-93345000D03*
X66040000Y-90805000D03*
X66040000Y-88265000D03*
X66040000Y-85725000D03*
D24*
X66040000Y-83185000D03*
X99060000Y-131445000D03*
D23*
X99060000Y-133985000D03*
X99060000Y-136525000D03*
X99060000Y-139065000D03*
X99060000Y-141605000D03*
X99060000Y-144145000D03*
X99060000Y-146685000D03*
X99060000Y-149225000D03*
X99060000Y-151765000D03*
X99060000Y-154305000D03*
D26*
X92710000Y-151765000D03*
X92710000Y-156845000D03*
X92710000Y-140335000D03*
X92710000Y-135255000D03*
D27*
X114300000Y-128905000D03*
D19*
X129540000Y-121285000D03*
X116840000Y-128905000D03*
X127000000Y-121285000D03*
X119380000Y-128905000D03*
X124460000Y-121285000D03*
X121920000Y-128905000D03*
X121920000Y-121285000D03*
X124460000Y-128905000D03*
X119380000Y-121285000D03*
X127000000Y-128905000D03*
X116840000Y-121285000D03*
X129540000Y-128905000D03*
X114300000Y-121285000D03*
D10*
X134620000Y-73025000D03*
X105410000Y-158115000D03*
D27*
X133350000Y-156845000D03*
D18*
X130850000Y-156845000D03*
X123230000Y-156845000D03*
D27*
X125730000Y-156845000D03*
D18*
X106680000Y-83185000D03*
D19*
X106680000Y-85725000D03*
X132080000Y-83185000D03*
D18*
X132080000Y-85725000D03*
X137160000Y-85725000D03*
D19*
X137160000Y-83185000D03*
X106680000Y-75565000D03*
D18*
X104140000Y-75565000D03*
X129540000Y-133985000D03*
D19*
X127000000Y-133985000D03*
D18*
X129540000Y-116205000D03*
D19*
X127000000Y-116205000D03*
D18*
X114300000Y-116205000D03*
D19*
X116840000Y-116205000D03*
D18*
X114300000Y-133985000D03*
D19*
X116840000Y-133985000D03*
X129540000Y-131445000D03*
D18*
X127000000Y-131445000D03*
D19*
X129540000Y-118745000D03*
D18*
X127000000Y-118745000D03*
D19*
X114300000Y-118745000D03*
D18*
X116840000Y-118745000D03*
D19*
X114300000Y-131445000D03*
D18*
X116840000Y-131445000D03*
D21*
X108640000Y-71755000D03*
X104140000Y-71755000D03*
X108640000Y-65255000D03*
X104140000Y-65255000D03*
D28*
X129540000Y-65405000D03*
X114300000Y-65405000D03*
X129540000Y-67945000D03*
X114300000Y-67945000D03*
X129540000Y-70485000D03*
X114300000Y-70485000D03*
X129540000Y-73025000D03*
X114300000Y-73025000D03*
X129540000Y-75565000D03*
X114300000Y-75565000D03*
X129540000Y-78105000D03*
X114300000Y-78105000D03*
X129540000Y-80645000D03*
X114300000Y-80645000D03*
X129540000Y-83185000D03*
X114300000Y-83185000D03*
X129540000Y-85725000D03*
X114300000Y-85725000D03*
X129540000Y-88265000D03*
X114300000Y-88265000D03*
X129540000Y-90805000D03*
X114300000Y-90805000D03*
X129540000Y-93345000D03*
X114300000Y-93345000D03*
D27*
X114300000Y-109855000D03*
D19*
X132080000Y-102235000D03*
X116840000Y-109855000D03*
X129540000Y-102235000D03*
X119380000Y-109855000D03*
X127000000Y-102235000D03*
X121920000Y-109855000D03*
X124460000Y-102235000D03*
X124460000Y-109855000D03*
X121920000Y-102235000D03*
X127000000Y-109855000D03*
X119380000Y-102235000D03*
X129540000Y-109855000D03*
X116840000Y-102235000D03*
X132080000Y-109855000D03*
X114300000Y-102235000D03*
D25*
X111760000Y-126365000D03*
X111760000Y-123825000D03*
X121920000Y-99695000D03*
X124460000Y-99695000D03*
X111760000Y-107315000D03*
X111760000Y-104775000D03*
X105410000Y-151765000D03*
X107950000Y-151765000D03*
X107950000Y-141605000D03*
X105410000Y-141605000D03*
D29*
X119380000Y-147955000D03*
D30*
X119380000Y-150495000D03*
X119380000Y-158115000D03*
D29*
X119380000Y-155575000D03*
D24*
X111760000Y-147955000D03*
D23*
X114300000Y-147955000D03*
X111760000Y-150495000D03*
X114300000Y-150495000D03*
X111760000Y-153035000D03*
X114300000Y-153035000D03*
X111760000Y-155575000D03*
X114300000Y-155575000D03*
X111760000Y-158115000D03*
X114300000Y-158115000D03*
X104140000Y-106045000D03*
X104140000Y-103505000D03*
X104140000Y-100965000D03*
X104140000Y-98425000D03*
X104140000Y-95885000D03*
X104140000Y-93345000D03*
X104140000Y-90805000D03*
X104140000Y-88265000D03*
X104140000Y-85725000D03*
D24*
X104140000Y-83185000D03*
X137160000Y-131445000D03*
D23*
X137160000Y-133985000D03*
X137160000Y-136525000D03*
X137160000Y-139065000D03*
X137160000Y-141605000D03*
X137160000Y-144145000D03*
X137160000Y-146685000D03*
X137160000Y-149225000D03*
X137160000Y-151765000D03*
X137160000Y-154305000D03*
D31*
X107950000Y-146685000D03*
X107950000Y-149225000D03*
D32*
X107950000Y-144145000D03*
D31*
X134620000Y-78105000D03*
X132080000Y-78105000D03*
D32*
X137160000Y-78105000D03*
D27*
X105410000Y-149225000D03*
D19*
X105410000Y-146685000D03*
D25*
X132080000Y-126365000D03*
X132080000Y-123825000D03*
M02*
