G04 #@! TF.GenerationSoftware,KiCad,Pcbnew,(5.1.8-0-10_14)*
G04 #@! TF.CreationDate,2022-03-26T19:02:53+09:00*
G04 #@! TF.ProjectId,ButtonSequencer,42757474-6f6e-4536-9571-75656e636572,rev?*
G04 #@! TF.SameCoordinates,Original*
G04 #@! TF.FileFunction,Legend,Top*
G04 #@! TF.FilePolarity,Positive*
%FSLAX46Y46*%
G04 Gerber Fmt 4.6, Leading zero omitted, Abs format (unit mm)*
G04 Created by KiCad (PCBNEW (5.1.8-0-10_14)) date 2022-03-26 19:02:53*
%MOMM*%
%LPD*%
G01*
G04 APERTURE LIST*
%ADD10C,0.150000*%
%ADD11C,0.120000*%
%ADD12C,9.000000*%
%ADD13O,1.600000X1.600000*%
%ADD14C,1.600000*%
%ADD15R,1.800000X1.800000*%
%ADD16C,1.800000*%
%ADD17O,2.130000X2.500000*%
%ADD18R,1.830000X1.930000*%
%ADD19R,1.700000X1.700000*%
%ADD20O,1.700000X1.700000*%
%ADD21R,2.500000X3.000000*%
%ADD22C,2.000000*%
%ADD23R,2.000000X2.000000*%
%ADD24O,3.300000X1.524000*%
%ADD25R,1.600000X1.600000*%
%ADD26O,1.050000X1.500000*%
%ADD27R,1.050000X1.500000*%
%ADD28O,1.200000X2.000000*%
G04 APERTURE END LIST*
D10*
X162452857Y-108984285D02*
X162524285Y-108770000D01*
X162595714Y-108698571D01*
X162738571Y-108627142D01*
X162952857Y-108627142D01*
X163095714Y-108698571D01*
X163167142Y-108770000D01*
X163238571Y-108912857D01*
X163238571Y-109484285D01*
X161738571Y-109484285D01*
X161738571Y-108984285D01*
X161810000Y-108841428D01*
X161881428Y-108770000D01*
X162024285Y-108698571D01*
X162167142Y-108698571D01*
X162310000Y-108770000D01*
X162381428Y-108841428D01*
X162452857Y-108984285D01*
X162452857Y-109484285D01*
X162238571Y-107341428D02*
X163238571Y-107341428D01*
X162238571Y-107984285D02*
X163024285Y-107984285D01*
X163167142Y-107912857D01*
X163238571Y-107770000D01*
X163238571Y-107555714D01*
X163167142Y-107412857D01*
X163095714Y-107341428D01*
X162238571Y-106841428D02*
X162238571Y-106270000D01*
X161738571Y-106627142D02*
X163024285Y-106627142D01*
X163167142Y-106555714D01*
X163238571Y-106412857D01*
X163238571Y-106270000D01*
X162238571Y-105984285D02*
X162238571Y-105412857D01*
X161738571Y-105770000D02*
X163024285Y-105770000D01*
X163167142Y-105698571D01*
X163238571Y-105555714D01*
X163238571Y-105412857D01*
X163238571Y-104698571D02*
X163167142Y-104841428D01*
X163095714Y-104912857D01*
X162952857Y-104984285D01*
X162524285Y-104984285D01*
X162381428Y-104912857D01*
X162310000Y-104841428D01*
X162238571Y-104698571D01*
X162238571Y-104484285D01*
X162310000Y-104341428D01*
X162381428Y-104270000D01*
X162524285Y-104198571D01*
X162952857Y-104198571D01*
X163095714Y-104270000D01*
X163167142Y-104341428D01*
X163238571Y-104484285D01*
X163238571Y-104698571D01*
X162238571Y-103555714D02*
X163238571Y-103555714D01*
X162381428Y-103555714D02*
X162310000Y-103484285D01*
X162238571Y-103341428D01*
X162238571Y-103127142D01*
X162310000Y-102984285D01*
X162452857Y-102912857D01*
X163238571Y-102912857D01*
X163167142Y-101127142D02*
X163238571Y-100912857D01*
X163238571Y-100555714D01*
X163167142Y-100412857D01*
X163095714Y-100341428D01*
X162952857Y-100270000D01*
X162810000Y-100270000D01*
X162667142Y-100341428D01*
X162595714Y-100412857D01*
X162524285Y-100555714D01*
X162452857Y-100841428D01*
X162381428Y-100984285D01*
X162310000Y-101055714D01*
X162167142Y-101127142D01*
X162024285Y-101127142D01*
X161881428Y-101055714D01*
X161810000Y-100984285D01*
X161738571Y-100841428D01*
X161738571Y-100484285D01*
X161810000Y-100270000D01*
X163167142Y-99055714D02*
X163238571Y-99198571D01*
X163238571Y-99484285D01*
X163167142Y-99627142D01*
X163024285Y-99698571D01*
X162452857Y-99698571D01*
X162310000Y-99627142D01*
X162238571Y-99484285D01*
X162238571Y-99198571D01*
X162310000Y-99055714D01*
X162452857Y-98984285D01*
X162595714Y-98984285D01*
X162738571Y-99698571D01*
X162238571Y-97698571D02*
X163738571Y-97698571D01*
X163167142Y-97698571D02*
X163238571Y-97841428D01*
X163238571Y-98127142D01*
X163167142Y-98270000D01*
X163095714Y-98341428D01*
X162952857Y-98412857D01*
X162524285Y-98412857D01*
X162381428Y-98341428D01*
X162310000Y-98270000D01*
X162238571Y-98127142D01*
X162238571Y-97841428D01*
X162310000Y-97698571D01*
X162238571Y-96341428D02*
X163238571Y-96341428D01*
X162238571Y-96984285D02*
X163024285Y-96984285D01*
X163167142Y-96912857D01*
X163238571Y-96770000D01*
X163238571Y-96555714D01*
X163167142Y-96412857D01*
X163095714Y-96341428D01*
X163167142Y-95055714D02*
X163238571Y-95198571D01*
X163238571Y-95484285D01*
X163167142Y-95627142D01*
X163024285Y-95698571D01*
X162452857Y-95698571D01*
X162310000Y-95627142D01*
X162238571Y-95484285D01*
X162238571Y-95198571D01*
X162310000Y-95055714D01*
X162452857Y-94984285D01*
X162595714Y-94984285D01*
X162738571Y-95698571D01*
X162238571Y-94341428D02*
X163238571Y-94341428D01*
X162381428Y-94341428D02*
X162310000Y-94270000D01*
X162238571Y-94127142D01*
X162238571Y-93912857D01*
X162310000Y-93770000D01*
X162452857Y-93698571D01*
X163238571Y-93698571D01*
X163167142Y-92341428D02*
X163238571Y-92484285D01*
X163238571Y-92770000D01*
X163167142Y-92912857D01*
X163095714Y-92984285D01*
X162952857Y-93055714D01*
X162524285Y-93055714D01*
X162381428Y-92984285D01*
X162310000Y-92912857D01*
X162238571Y-92770000D01*
X162238571Y-92484285D01*
X162310000Y-92341428D01*
X163167142Y-91127142D02*
X163238571Y-91270000D01*
X163238571Y-91555714D01*
X163167142Y-91698571D01*
X163024285Y-91770000D01*
X162452857Y-91770000D01*
X162310000Y-91698571D01*
X162238571Y-91555714D01*
X162238571Y-91270000D01*
X162310000Y-91127142D01*
X162452857Y-91055714D01*
X162595714Y-91055714D01*
X162738571Y-91770000D01*
X163238571Y-90412857D02*
X162238571Y-90412857D01*
X162524285Y-90412857D02*
X162381428Y-90341428D01*
X162310000Y-90270000D01*
X162238571Y-90127142D01*
X162238571Y-89984285D01*
X162238571Y-88484285D02*
X163238571Y-88127142D01*
X162238571Y-87770000D01*
X163167142Y-86627142D02*
X163238571Y-86770000D01*
X163238571Y-87055714D01*
X163167142Y-87198571D01*
X163024285Y-87270000D01*
X162452857Y-87270000D01*
X162310000Y-87198571D01*
X162238571Y-87055714D01*
X162238571Y-86770000D01*
X162310000Y-86627142D01*
X162452857Y-86555714D01*
X162595714Y-86555714D01*
X162738571Y-87270000D01*
X163238571Y-85912857D02*
X162238571Y-85912857D01*
X162524285Y-85912857D02*
X162381428Y-85841428D01*
X162310000Y-85770000D01*
X162238571Y-85627142D01*
X162238571Y-85484285D01*
X163095714Y-84984285D02*
X163167142Y-84912857D01*
X163238571Y-84984285D01*
X163167142Y-85055714D01*
X163095714Y-84984285D01*
X163238571Y-84984285D01*
X163238571Y-83484285D02*
X163238571Y-84341428D01*
X163238571Y-83912857D02*
X161738571Y-83912857D01*
X161952857Y-84055714D01*
X162095714Y-84198571D01*
X162167142Y-84341428D01*
D11*
X110640000Y-138890000D02*
X107800000Y-138890000D01*
X107800000Y-138890000D02*
X107800000Y-142930000D01*
X107800000Y-142930000D02*
X110640000Y-142930000D01*
X110640000Y-142930000D02*
X110640000Y-138890000D01*
X109220000Y-138200000D02*
X109220000Y-138890000D01*
X109220000Y-143620000D02*
X109220000Y-142930000D01*
X109220000Y-128380000D02*
X109220000Y-127690000D01*
X109220000Y-122960000D02*
X109220000Y-123650000D01*
X110640000Y-127690000D02*
X110640000Y-123650000D01*
X107800000Y-127690000D02*
X110640000Y-127690000D01*
X107800000Y-123650000D02*
X107800000Y-127690000D01*
X110640000Y-123650000D02*
X107800000Y-123650000D01*
X105890000Y-54420000D02*
X105890000Y-54739000D01*
X105890000Y-51941000D02*
X105890000Y-52260000D01*
X110193242Y-52259276D02*
G75*
G03*
X105890000Y-51941251I-2243242J-1080724D01*
G01*
X110193242Y-54420724D02*
G75*
G02*
X105890000Y-54738749I-2243242J1080724D01*
G01*
X109632713Y-52259039D02*
G75*
G03*
X106266670Y-52260000I-1682713J-1080961D01*
G01*
X109632713Y-54420961D02*
G75*
G02*
X106266670Y-54420000I-1682713J1080961D01*
G01*
X118590000Y-54420000D02*
X118590000Y-54739000D01*
X118590000Y-51941000D02*
X118590000Y-52260000D01*
X122893242Y-52259276D02*
G75*
G03*
X118590000Y-51941251I-2243242J-1080724D01*
G01*
X122893242Y-54420724D02*
G75*
G02*
X118590000Y-54738749I-2243242J1080724D01*
G01*
X122332713Y-52259039D02*
G75*
G03*
X118966670Y-52260000I-1682713J-1080961D01*
G01*
X122332713Y-54420961D02*
G75*
G02*
X118966670Y-54420000I-1682713J1080961D01*
G01*
X118590000Y-111570000D02*
X118590000Y-111889000D01*
X118590000Y-109091000D02*
X118590000Y-109410000D01*
X122893242Y-109409276D02*
G75*
G03*
X118590000Y-109091251I-2243242J-1080724D01*
G01*
X122893242Y-111570724D02*
G75*
G02*
X118590000Y-111888749I-2243242J1080724D01*
G01*
X122332713Y-109409039D02*
G75*
G03*
X118966670Y-109410000I-1682713J-1080961D01*
G01*
X122332713Y-111570961D02*
G75*
G02*
X118966670Y-111570000I-1682713J1080961D01*
G01*
X118590000Y-95121000D02*
X118590000Y-95440000D01*
X118590000Y-97600000D02*
X118590000Y-97919000D01*
X122332713Y-97600961D02*
G75*
G02*
X118966670Y-97600000I-1682713J1080961D01*
G01*
X122332713Y-95439039D02*
G75*
G03*
X118966670Y-95440000I-1682713J-1080961D01*
G01*
X122893242Y-97600724D02*
G75*
G02*
X118590000Y-97918749I-2243242J1080724D01*
G01*
X122893242Y-95439276D02*
G75*
G03*
X118590000Y-95121251I-2243242J-1080724D01*
G01*
X118590000Y-83630000D02*
X118590000Y-83949000D01*
X118590000Y-81151000D02*
X118590000Y-81470000D01*
X122893242Y-81469276D02*
G75*
G03*
X118590000Y-81151251I-2243242J-1080724D01*
G01*
X122893242Y-83630724D02*
G75*
G02*
X118590000Y-83948749I-2243242J1080724D01*
G01*
X122332713Y-81469039D02*
G75*
G03*
X118966670Y-81470000I-1682713J-1080961D01*
G01*
X122332713Y-83630961D02*
G75*
G02*
X118966670Y-83630000I-1682713J1080961D01*
G01*
X118590000Y-67181000D02*
X118590000Y-67500000D01*
X118590000Y-69660000D02*
X118590000Y-69979000D01*
X122332713Y-69660961D02*
G75*
G02*
X118966670Y-69660000I-1682713J1080961D01*
G01*
X122332713Y-67499039D02*
G75*
G03*
X118966670Y-67500000I-1682713J-1080961D01*
G01*
X122893242Y-69660724D02*
G75*
G02*
X118590000Y-69978749I-2243242J1080724D01*
G01*
X122893242Y-67499276D02*
G75*
G03*
X118590000Y-67181251I-2243242J-1080724D01*
G01*
X105890000Y-67181000D02*
X105890000Y-67500000D01*
X105890000Y-69660000D02*
X105890000Y-69979000D01*
X109632713Y-69660961D02*
G75*
G02*
X106266670Y-69660000I-1682713J1080961D01*
G01*
X109632713Y-67499039D02*
G75*
G03*
X106266670Y-67500000I-1682713J-1080961D01*
G01*
X110193242Y-69660724D02*
G75*
G02*
X105890000Y-69978749I-2243242J1080724D01*
G01*
X110193242Y-67499276D02*
G75*
G03*
X105890000Y-67181251I-2243242J-1080724D01*
G01*
X105890000Y-81151000D02*
X105890000Y-81470000D01*
X105890000Y-83630000D02*
X105890000Y-83949000D01*
X109632713Y-83630961D02*
G75*
G02*
X106266670Y-83630000I-1682713J1080961D01*
G01*
X109632713Y-81469039D02*
G75*
G03*
X106266670Y-81470000I-1682713J-1080961D01*
G01*
X110193242Y-83630724D02*
G75*
G02*
X105890000Y-83948749I-2243242J1080724D01*
G01*
X110193242Y-81469276D02*
G75*
G03*
X105890000Y-81151251I-2243242J-1080724D01*
G01*
X105890000Y-95121000D02*
X105890000Y-95440000D01*
X105890000Y-97600000D02*
X105890000Y-97919000D01*
X109632713Y-97600961D02*
G75*
G02*
X106266670Y-97600000I-1682713J1080961D01*
G01*
X109632713Y-95439039D02*
G75*
G03*
X106266670Y-95440000I-1682713J-1080961D01*
G01*
X110193242Y-97600724D02*
G75*
G02*
X105890000Y-97918749I-2243242J1080724D01*
G01*
X110193242Y-95439276D02*
G75*
G03*
X105890000Y-95121251I-2243242J-1080724D01*
G01*
X105890000Y-111570000D02*
X105890000Y-111889000D01*
X105890000Y-109091000D02*
X105890000Y-109410000D01*
X110193242Y-109409276D02*
G75*
G03*
X105890000Y-109091251I-2243242J-1080724D01*
G01*
X110193242Y-111570724D02*
G75*
G02*
X105890000Y-111888749I-2243242J1080724D01*
G01*
X109632713Y-109409039D02*
G75*
G03*
X106266670Y-109410000I-1682713J-1080961D01*
G01*
X109632713Y-111570961D02*
G75*
G02*
X106266670Y-111570000I-1682713J1080961D01*
G01*
X101020000Y-57870000D02*
X101020000Y-53720000D01*
X101020000Y-53020000D02*
X101020000Y-48870000D01*
X104000000Y-52310000D02*
X103200000Y-52310000D01*
X98320000Y-53370000D02*
G75*
G03*
X98320000Y-53370000I-1800000J0D01*
G01*
X90520000Y-57870000D02*
X90520000Y-53870000D01*
X101020000Y-57870000D02*
X90520000Y-57870000D01*
X101020000Y-48870000D02*
X90520000Y-48870000D01*
X90520000Y-52870000D02*
X90520000Y-48870000D01*
X104000000Y-52310000D02*
X104000000Y-53170000D01*
X101020000Y-73110000D02*
X101020000Y-68960000D01*
X101020000Y-68260000D02*
X101020000Y-64110000D01*
X104000000Y-67550000D02*
X103200000Y-67550000D01*
X98320000Y-68610000D02*
G75*
G03*
X98320000Y-68610000I-1800000J0D01*
G01*
X90520000Y-73110000D02*
X90520000Y-69110000D01*
X101020000Y-73110000D02*
X90520000Y-73110000D01*
X101020000Y-64110000D02*
X90520000Y-64110000D01*
X90520000Y-68110000D02*
X90520000Y-64110000D01*
X104000000Y-67550000D02*
X104000000Y-68410000D01*
X104000000Y-81520000D02*
X104000000Y-82380000D01*
X90520000Y-82080000D02*
X90520000Y-78080000D01*
X101020000Y-78080000D02*
X90520000Y-78080000D01*
X101020000Y-87080000D02*
X90520000Y-87080000D01*
X90520000Y-87080000D02*
X90520000Y-83080000D01*
X98320000Y-82580000D02*
G75*
G03*
X98320000Y-82580000I-1800000J0D01*
G01*
X104000000Y-81520000D02*
X103200000Y-81520000D01*
X101020000Y-82230000D02*
X101020000Y-78080000D01*
X101020000Y-87080000D02*
X101020000Y-82930000D01*
X101020000Y-101050000D02*
X101020000Y-96900000D01*
X101020000Y-96200000D02*
X101020000Y-92050000D01*
X104000000Y-95490000D02*
X103200000Y-95490000D01*
X98320000Y-96550000D02*
G75*
G03*
X98320000Y-96550000I-1800000J0D01*
G01*
X90520000Y-101050000D02*
X90520000Y-97050000D01*
X101020000Y-101050000D02*
X90520000Y-101050000D01*
X101020000Y-92050000D02*
X90520000Y-92050000D01*
X90520000Y-96050000D02*
X90520000Y-92050000D01*
X104000000Y-95490000D02*
X104000000Y-96350000D01*
X104000000Y-109460000D02*
X104000000Y-110320000D01*
X90520000Y-110020000D02*
X90520000Y-106020000D01*
X101020000Y-106020000D02*
X90520000Y-106020000D01*
X101020000Y-115020000D02*
X90520000Y-115020000D01*
X90520000Y-115020000D02*
X90520000Y-111020000D01*
X98320000Y-110520000D02*
G75*
G03*
X98320000Y-110520000I-1800000J0D01*
G01*
X104000000Y-109460000D02*
X103200000Y-109460000D01*
X101020000Y-110170000D02*
X101020000Y-106020000D01*
X101020000Y-115020000D02*
X101020000Y-110870000D01*
X111700000Y-76140000D02*
X113030000Y-76140000D01*
X111700000Y-77470000D02*
X111700000Y-76140000D01*
X114300000Y-76140000D02*
X116900000Y-76140000D01*
X114300000Y-78740000D02*
X114300000Y-76140000D01*
X111700000Y-78740000D02*
X114300000Y-78740000D01*
X116900000Y-76140000D02*
X116900000Y-99120000D01*
X111700000Y-78740000D02*
X111700000Y-99120000D01*
X111700000Y-99120000D02*
X116900000Y-99120000D01*
X100430000Y-135890000D02*
X100500000Y-135890000D01*
X100430000Y-135890000D02*
G75*
G03*
X100430000Y-135890000I-1370000J0D01*
G01*
X95350000Y-135890000D02*
G75*
G03*
X95350000Y-135890000I-1370000J0D01*
G01*
X95350000Y-135890000D02*
X95420000Y-135890000D01*
X108050000Y-58420000D02*
X108120000Y-58420000D01*
X108050000Y-58420000D02*
G75*
G03*
X108050000Y-58420000I-1370000J0D01*
G01*
X110590000Y-132080000D02*
G75*
G03*
X110590000Y-132080000I-1370000J0D01*
G01*
X109220000Y-133450000D02*
X109220000Y-133520000D01*
X110590000Y-116840000D02*
G75*
G03*
X110590000Y-116840000I-1370000J0D01*
G01*
X109220000Y-118210000D02*
X109220000Y-118280000D01*
X116205000Y-54510000D02*
X116205000Y-54440000D01*
X117575000Y-55880000D02*
G75*
G03*
X117575000Y-55880000I-1370000J0D01*
G01*
X120750000Y-106045000D02*
X120820000Y-106045000D01*
X120750000Y-106045000D02*
G75*
G03*
X120750000Y-106045000I-1370000J0D01*
G01*
X120750000Y-92075000D02*
G75*
G03*
X120750000Y-92075000I-1370000J0D01*
G01*
X120750000Y-92075000D02*
X120820000Y-92075000D01*
X120750000Y-86995000D02*
X120820000Y-86995000D01*
X120750000Y-86995000D02*
G75*
G03*
X120750000Y-86995000I-1370000J0D01*
G01*
X120750000Y-73660000D02*
G75*
G03*
X120750000Y-73660000I-1370000J0D01*
G01*
X120750000Y-73660000D02*
X120820000Y-73660000D01*
X105310000Y-63500000D02*
X105240000Y-63500000D01*
X108050000Y-63500000D02*
G75*
G03*
X108050000Y-63500000I-1370000J0D01*
G01*
X105310000Y-78105000D02*
X105240000Y-78105000D01*
X108050000Y-78105000D02*
G75*
G03*
X108050000Y-78105000I-1370000J0D01*
G01*
X108050000Y-91440000D02*
G75*
G03*
X108050000Y-91440000I-1370000J0D01*
G01*
X108050000Y-91440000D02*
X108120000Y-91440000D01*
X105310000Y-106045000D02*
X105240000Y-106045000D01*
X108050000Y-106045000D02*
G75*
G03*
X108050000Y-106045000I-1370000J0D01*
G01*
X92810000Y-76200000D02*
G75*
G03*
X92810000Y-76200000I-1370000J0D01*
G01*
X92810000Y-76200000D02*
X92880000Y-76200000D01*
X92810000Y-88900000D02*
G75*
G03*
X92810000Y-88900000I-1370000J0D01*
G01*
X92810000Y-88900000D02*
X92880000Y-88900000D01*
X92810000Y-104140000D02*
G75*
G03*
X92810000Y-104140000I-1370000J0D01*
G01*
X92810000Y-104140000D02*
X92880000Y-104140000D01*
X92810000Y-116840000D02*
X92880000Y-116840000D01*
X92810000Y-116840000D02*
G75*
G03*
X92810000Y-116840000I-1370000J0D01*
G01*
X102020000Y-125850000D02*
G75*
G03*
X102020000Y-125850000I-3000000J0D01*
G01*
X92720000Y-124050000D02*
X92720000Y-119150000D01*
X92720000Y-119150000D02*
X105320000Y-119150000D01*
X105320000Y-119150000D02*
X105320000Y-124050000D01*
X105320000Y-127650000D02*
X105320000Y-132550000D01*
X105320000Y-132550000D02*
X102520000Y-132550000D01*
X92720000Y-127750000D02*
X92720000Y-132550000D01*
X92720000Y-132550000D02*
X95220000Y-132550000D01*
X95220000Y-133350000D02*
X94920000Y-133650000D01*
X94920000Y-133650000D02*
X94920000Y-133050000D01*
X94920000Y-133050000D02*
X95220000Y-133350000D01*
X98520000Y-125850000D02*
X99520000Y-125850000D01*
X99020000Y-126350000D02*
X99020000Y-125350000D01*
X120790000Y-142240000D02*
G75*
G03*
X120790000Y-142240000I-3950000J0D01*
G01*
X120790000Y-125730000D02*
G75*
G03*
X120790000Y-125730000I-3950000J0D01*
G01*
X107375000Y-148015000D02*
X106045000Y-148015000D01*
X107375000Y-146685000D02*
X107375000Y-148015000D01*
X107375000Y-145415000D02*
X104715000Y-145415000D01*
X104715000Y-145415000D02*
X104715000Y-142815000D01*
X107375000Y-145415000D02*
X107375000Y-142815000D01*
X107375000Y-142815000D02*
X104715000Y-142815000D01*
X150246000Y-144175241D02*
X150876000Y-144175241D01*
X150561000Y-144490241D02*
X150561000Y-143860241D01*
X151998000Y-137749000D02*
X152802000Y-137749000D01*
X151767000Y-137789000D02*
X153033000Y-137789000D01*
X151598000Y-137829000D02*
X153202000Y-137829000D01*
X151460000Y-137869000D02*
X153340000Y-137869000D01*
X151341000Y-137909000D02*
X153459000Y-137909000D01*
X151235000Y-137949000D02*
X153565000Y-137949000D01*
X151138000Y-137989000D02*
X153662000Y-137989000D01*
X151050000Y-138029000D02*
X153750000Y-138029000D01*
X150968000Y-138069000D02*
X153832000Y-138069000D01*
X150891000Y-138109000D02*
X153909000Y-138109000D01*
X150819000Y-138149000D02*
X153981000Y-138149000D01*
X150750000Y-138189000D02*
X154050000Y-138189000D01*
X150686000Y-138229000D02*
X154114000Y-138229000D01*
X150624000Y-138269000D02*
X154176000Y-138269000D01*
X150566000Y-138309000D02*
X154234000Y-138309000D01*
X150510000Y-138349000D02*
X154290000Y-138349000D01*
X150456000Y-138389000D02*
X154344000Y-138389000D01*
X150405000Y-138429000D02*
X154395000Y-138429000D01*
X150356000Y-138469000D02*
X154444000Y-138469000D01*
X150308000Y-138509000D02*
X154492000Y-138509000D01*
X150263000Y-138549000D02*
X154537000Y-138549000D01*
X150218000Y-138589000D02*
X154582000Y-138589000D01*
X150176000Y-138629000D02*
X154624000Y-138629000D01*
X150135000Y-138669000D02*
X154665000Y-138669000D01*
X153440000Y-138709000D02*
X154705000Y-138709000D01*
X150095000Y-138709000D02*
X151360000Y-138709000D01*
X153440000Y-138749000D02*
X154743000Y-138749000D01*
X150057000Y-138749000D02*
X151360000Y-138749000D01*
X153440000Y-138789000D02*
X154780000Y-138789000D01*
X150020000Y-138789000D02*
X151360000Y-138789000D01*
X153440000Y-138829000D02*
X154816000Y-138829000D01*
X149984000Y-138829000D02*
X151360000Y-138829000D01*
X153440000Y-138869000D02*
X154850000Y-138869000D01*
X149950000Y-138869000D02*
X151360000Y-138869000D01*
X153440000Y-138909000D02*
X154884000Y-138909000D01*
X149916000Y-138909000D02*
X151360000Y-138909000D01*
X153440000Y-138949000D02*
X154916000Y-138949000D01*
X149884000Y-138949000D02*
X151360000Y-138949000D01*
X153440000Y-138989000D02*
X154948000Y-138989000D01*
X149852000Y-138989000D02*
X151360000Y-138989000D01*
X153440000Y-139029000D02*
X154978000Y-139029000D01*
X149822000Y-139029000D02*
X151360000Y-139029000D01*
X153440000Y-139069000D02*
X155007000Y-139069000D01*
X149793000Y-139069000D02*
X151360000Y-139069000D01*
X153440000Y-139109000D02*
X155036000Y-139109000D01*
X149764000Y-139109000D02*
X151360000Y-139109000D01*
X153440000Y-139149000D02*
X155064000Y-139149000D01*
X149736000Y-139149000D02*
X151360000Y-139149000D01*
X153440000Y-139189000D02*
X155090000Y-139189000D01*
X149710000Y-139189000D02*
X151360000Y-139189000D01*
X153440000Y-139229000D02*
X155116000Y-139229000D01*
X149684000Y-139229000D02*
X151360000Y-139229000D01*
X153440000Y-139269000D02*
X155142000Y-139269000D01*
X149658000Y-139269000D02*
X151360000Y-139269000D01*
X153440000Y-139309000D02*
X155166000Y-139309000D01*
X149634000Y-139309000D02*
X151360000Y-139309000D01*
X153440000Y-139349000D02*
X155190000Y-139349000D01*
X149610000Y-139349000D02*
X151360000Y-139349000D01*
X153440000Y-139389000D02*
X155212000Y-139389000D01*
X149588000Y-139389000D02*
X151360000Y-139389000D01*
X153440000Y-139429000D02*
X155234000Y-139429000D01*
X149566000Y-139429000D02*
X151360000Y-139429000D01*
X153440000Y-139469000D02*
X155256000Y-139469000D01*
X149544000Y-139469000D02*
X151360000Y-139469000D01*
X153440000Y-139509000D02*
X155276000Y-139509000D01*
X149524000Y-139509000D02*
X151360000Y-139509000D01*
X153440000Y-139549000D02*
X155296000Y-139549000D01*
X149504000Y-139549000D02*
X151360000Y-139549000D01*
X153440000Y-139589000D02*
X155316000Y-139589000D01*
X149484000Y-139589000D02*
X151360000Y-139589000D01*
X153440000Y-139629000D02*
X155334000Y-139629000D01*
X149466000Y-139629000D02*
X151360000Y-139629000D01*
X153440000Y-139669000D02*
X155352000Y-139669000D01*
X149448000Y-139669000D02*
X151360000Y-139669000D01*
X153440000Y-139709000D02*
X155370000Y-139709000D01*
X149430000Y-139709000D02*
X151360000Y-139709000D01*
X153440000Y-139749000D02*
X155386000Y-139749000D01*
X149414000Y-139749000D02*
X151360000Y-139749000D01*
X153440000Y-139789000D02*
X155402000Y-139789000D01*
X149398000Y-139789000D02*
X151360000Y-139789000D01*
X153440000Y-139829000D02*
X155418000Y-139829000D01*
X149382000Y-139829000D02*
X151360000Y-139829000D01*
X153440000Y-139869000D02*
X155433000Y-139869000D01*
X149367000Y-139869000D02*
X151360000Y-139869000D01*
X153440000Y-139909000D02*
X155447000Y-139909000D01*
X149353000Y-139909000D02*
X151360000Y-139909000D01*
X153440000Y-139949000D02*
X155461000Y-139949000D01*
X149339000Y-139949000D02*
X151360000Y-139949000D01*
X153440000Y-139989000D02*
X155474000Y-139989000D01*
X149326000Y-139989000D02*
X151360000Y-139989000D01*
X153440000Y-140029000D02*
X155486000Y-140029000D01*
X149314000Y-140029000D02*
X151360000Y-140029000D01*
X153440000Y-140069000D02*
X155498000Y-140069000D01*
X149302000Y-140069000D02*
X151360000Y-140069000D01*
X153440000Y-140109000D02*
X155510000Y-140109000D01*
X149290000Y-140109000D02*
X151360000Y-140109000D01*
X153440000Y-140149000D02*
X155521000Y-140149000D01*
X149279000Y-140149000D02*
X151360000Y-140149000D01*
X153440000Y-140189000D02*
X155531000Y-140189000D01*
X149269000Y-140189000D02*
X151360000Y-140189000D01*
X153440000Y-140229000D02*
X155541000Y-140229000D01*
X149259000Y-140229000D02*
X151360000Y-140229000D01*
X153440000Y-140269000D02*
X155550000Y-140269000D01*
X149250000Y-140269000D02*
X151360000Y-140269000D01*
X153440000Y-140310000D02*
X155559000Y-140310000D01*
X149241000Y-140310000D02*
X151360000Y-140310000D01*
X153440000Y-140350000D02*
X155567000Y-140350000D01*
X149233000Y-140350000D02*
X151360000Y-140350000D01*
X153440000Y-140390000D02*
X155575000Y-140390000D01*
X149225000Y-140390000D02*
X151360000Y-140390000D01*
X153440000Y-140430000D02*
X155582000Y-140430000D01*
X149218000Y-140430000D02*
X151360000Y-140430000D01*
X153440000Y-140470000D02*
X155589000Y-140470000D01*
X149211000Y-140470000D02*
X151360000Y-140470000D01*
X153440000Y-140510000D02*
X155595000Y-140510000D01*
X149205000Y-140510000D02*
X151360000Y-140510000D01*
X153440000Y-140550000D02*
X155601000Y-140550000D01*
X149199000Y-140550000D02*
X151360000Y-140550000D01*
X153440000Y-140590000D02*
X155606000Y-140590000D01*
X149194000Y-140590000D02*
X151360000Y-140590000D01*
X153440000Y-140630000D02*
X155611000Y-140630000D01*
X149189000Y-140630000D02*
X151360000Y-140630000D01*
X153440000Y-140670000D02*
X155615000Y-140670000D01*
X149185000Y-140670000D02*
X151360000Y-140670000D01*
X153440000Y-140710000D02*
X155618000Y-140710000D01*
X149182000Y-140710000D02*
X151360000Y-140710000D01*
X153440000Y-140750000D02*
X155622000Y-140750000D01*
X149178000Y-140750000D02*
X151360000Y-140750000D01*
X149176000Y-140790000D02*
X155624000Y-140790000D01*
X149173000Y-140830000D02*
X155627000Y-140830000D01*
X149172000Y-140870000D02*
X155628000Y-140870000D01*
X149170000Y-140910000D02*
X155630000Y-140910000D01*
X149170000Y-140950000D02*
X155630000Y-140950000D01*
X149170000Y-140990000D02*
X155630000Y-140990000D01*
X155670000Y-140990000D02*
G75*
G03*
X155670000Y-140990000I-3270000J0D01*
G01*
X155670000Y-133370000D02*
G75*
G03*
X155670000Y-133370000I-3270000J0D01*
G01*
X149170000Y-133370000D02*
X155630000Y-133370000D01*
X149170000Y-133330000D02*
X155630000Y-133330000D01*
X149170000Y-133290000D02*
X155630000Y-133290000D01*
X149172000Y-133250000D02*
X155628000Y-133250000D01*
X149173000Y-133210000D02*
X155627000Y-133210000D01*
X149176000Y-133170000D02*
X155624000Y-133170000D01*
X149178000Y-133130000D02*
X151360000Y-133130000D01*
X153440000Y-133130000D02*
X155622000Y-133130000D01*
X149182000Y-133090000D02*
X151360000Y-133090000D01*
X153440000Y-133090000D02*
X155618000Y-133090000D01*
X149185000Y-133050000D02*
X151360000Y-133050000D01*
X153440000Y-133050000D02*
X155615000Y-133050000D01*
X149189000Y-133010000D02*
X151360000Y-133010000D01*
X153440000Y-133010000D02*
X155611000Y-133010000D01*
X149194000Y-132970000D02*
X151360000Y-132970000D01*
X153440000Y-132970000D02*
X155606000Y-132970000D01*
X149199000Y-132930000D02*
X151360000Y-132930000D01*
X153440000Y-132930000D02*
X155601000Y-132930000D01*
X149205000Y-132890000D02*
X151360000Y-132890000D01*
X153440000Y-132890000D02*
X155595000Y-132890000D01*
X149211000Y-132850000D02*
X151360000Y-132850000D01*
X153440000Y-132850000D02*
X155589000Y-132850000D01*
X149218000Y-132810000D02*
X151360000Y-132810000D01*
X153440000Y-132810000D02*
X155582000Y-132810000D01*
X149225000Y-132770000D02*
X151360000Y-132770000D01*
X153440000Y-132770000D02*
X155575000Y-132770000D01*
X149233000Y-132730000D02*
X151360000Y-132730000D01*
X153440000Y-132730000D02*
X155567000Y-132730000D01*
X149241000Y-132690000D02*
X151360000Y-132690000D01*
X153440000Y-132690000D02*
X155559000Y-132690000D01*
X149250000Y-132649000D02*
X151360000Y-132649000D01*
X153440000Y-132649000D02*
X155550000Y-132649000D01*
X149259000Y-132609000D02*
X151360000Y-132609000D01*
X153440000Y-132609000D02*
X155541000Y-132609000D01*
X149269000Y-132569000D02*
X151360000Y-132569000D01*
X153440000Y-132569000D02*
X155531000Y-132569000D01*
X149279000Y-132529000D02*
X151360000Y-132529000D01*
X153440000Y-132529000D02*
X155521000Y-132529000D01*
X149290000Y-132489000D02*
X151360000Y-132489000D01*
X153440000Y-132489000D02*
X155510000Y-132489000D01*
X149302000Y-132449000D02*
X151360000Y-132449000D01*
X153440000Y-132449000D02*
X155498000Y-132449000D01*
X149314000Y-132409000D02*
X151360000Y-132409000D01*
X153440000Y-132409000D02*
X155486000Y-132409000D01*
X149326000Y-132369000D02*
X151360000Y-132369000D01*
X153440000Y-132369000D02*
X155474000Y-132369000D01*
X149339000Y-132329000D02*
X151360000Y-132329000D01*
X153440000Y-132329000D02*
X155461000Y-132329000D01*
X149353000Y-132289000D02*
X151360000Y-132289000D01*
X153440000Y-132289000D02*
X155447000Y-132289000D01*
X149367000Y-132249000D02*
X151360000Y-132249000D01*
X153440000Y-132249000D02*
X155433000Y-132249000D01*
X149382000Y-132209000D02*
X151360000Y-132209000D01*
X153440000Y-132209000D02*
X155418000Y-132209000D01*
X149398000Y-132169000D02*
X151360000Y-132169000D01*
X153440000Y-132169000D02*
X155402000Y-132169000D01*
X149414000Y-132129000D02*
X151360000Y-132129000D01*
X153440000Y-132129000D02*
X155386000Y-132129000D01*
X149430000Y-132089000D02*
X151360000Y-132089000D01*
X153440000Y-132089000D02*
X155370000Y-132089000D01*
X149448000Y-132049000D02*
X151360000Y-132049000D01*
X153440000Y-132049000D02*
X155352000Y-132049000D01*
X149466000Y-132009000D02*
X151360000Y-132009000D01*
X153440000Y-132009000D02*
X155334000Y-132009000D01*
X149484000Y-131969000D02*
X151360000Y-131969000D01*
X153440000Y-131969000D02*
X155316000Y-131969000D01*
X149504000Y-131929000D02*
X151360000Y-131929000D01*
X153440000Y-131929000D02*
X155296000Y-131929000D01*
X149524000Y-131889000D02*
X151360000Y-131889000D01*
X153440000Y-131889000D02*
X155276000Y-131889000D01*
X149544000Y-131849000D02*
X151360000Y-131849000D01*
X153440000Y-131849000D02*
X155256000Y-131849000D01*
X149566000Y-131809000D02*
X151360000Y-131809000D01*
X153440000Y-131809000D02*
X155234000Y-131809000D01*
X149588000Y-131769000D02*
X151360000Y-131769000D01*
X153440000Y-131769000D02*
X155212000Y-131769000D01*
X149610000Y-131729000D02*
X151360000Y-131729000D01*
X153440000Y-131729000D02*
X155190000Y-131729000D01*
X149634000Y-131689000D02*
X151360000Y-131689000D01*
X153440000Y-131689000D02*
X155166000Y-131689000D01*
X149658000Y-131649000D02*
X151360000Y-131649000D01*
X153440000Y-131649000D02*
X155142000Y-131649000D01*
X149684000Y-131609000D02*
X151360000Y-131609000D01*
X153440000Y-131609000D02*
X155116000Y-131609000D01*
X149710000Y-131569000D02*
X151360000Y-131569000D01*
X153440000Y-131569000D02*
X155090000Y-131569000D01*
X149736000Y-131529000D02*
X151360000Y-131529000D01*
X153440000Y-131529000D02*
X155064000Y-131529000D01*
X149764000Y-131489000D02*
X151360000Y-131489000D01*
X153440000Y-131489000D02*
X155036000Y-131489000D01*
X149793000Y-131449000D02*
X151360000Y-131449000D01*
X153440000Y-131449000D02*
X155007000Y-131449000D01*
X149822000Y-131409000D02*
X151360000Y-131409000D01*
X153440000Y-131409000D02*
X154978000Y-131409000D01*
X149852000Y-131369000D02*
X151360000Y-131369000D01*
X153440000Y-131369000D02*
X154948000Y-131369000D01*
X149884000Y-131329000D02*
X151360000Y-131329000D01*
X153440000Y-131329000D02*
X154916000Y-131329000D01*
X149916000Y-131289000D02*
X151360000Y-131289000D01*
X153440000Y-131289000D02*
X154884000Y-131289000D01*
X149950000Y-131249000D02*
X151360000Y-131249000D01*
X153440000Y-131249000D02*
X154850000Y-131249000D01*
X149984000Y-131209000D02*
X151360000Y-131209000D01*
X153440000Y-131209000D02*
X154816000Y-131209000D01*
X150020000Y-131169000D02*
X151360000Y-131169000D01*
X153440000Y-131169000D02*
X154780000Y-131169000D01*
X150057000Y-131129000D02*
X151360000Y-131129000D01*
X153440000Y-131129000D02*
X154743000Y-131129000D01*
X150095000Y-131089000D02*
X151360000Y-131089000D01*
X153440000Y-131089000D02*
X154705000Y-131089000D01*
X150135000Y-131049000D02*
X154665000Y-131049000D01*
X150176000Y-131009000D02*
X154624000Y-131009000D01*
X150218000Y-130969000D02*
X154582000Y-130969000D01*
X150263000Y-130929000D02*
X154537000Y-130929000D01*
X150308000Y-130889000D02*
X154492000Y-130889000D01*
X150356000Y-130849000D02*
X154444000Y-130849000D01*
X150405000Y-130809000D02*
X154395000Y-130809000D01*
X150456000Y-130769000D02*
X154344000Y-130769000D01*
X150510000Y-130729000D02*
X154290000Y-130729000D01*
X150566000Y-130689000D02*
X154234000Y-130689000D01*
X150624000Y-130649000D02*
X154176000Y-130649000D01*
X150686000Y-130609000D02*
X154114000Y-130609000D01*
X150750000Y-130569000D02*
X154050000Y-130569000D01*
X150819000Y-130529000D02*
X153981000Y-130529000D01*
X150891000Y-130489000D02*
X153909000Y-130489000D01*
X150968000Y-130449000D02*
X153832000Y-130449000D01*
X151050000Y-130409000D02*
X153750000Y-130409000D01*
X151138000Y-130369000D02*
X153662000Y-130369000D01*
X151235000Y-130329000D02*
X153565000Y-130329000D01*
X151341000Y-130289000D02*
X153459000Y-130289000D01*
X151460000Y-130249000D02*
X153340000Y-130249000D01*
X151598000Y-130209000D02*
X153202000Y-130209000D01*
X151767000Y-130169000D02*
X153033000Y-130169000D01*
X151998000Y-130129000D02*
X152802000Y-130129000D01*
X150561000Y-136870241D02*
X150561000Y-136240241D01*
X150246000Y-136555241D02*
X150876000Y-136555241D01*
X152400000Y-64880000D02*
X152400000Y-64190000D01*
X152400000Y-59460000D02*
X152400000Y-60150000D01*
X153820000Y-64190000D02*
X153820000Y-60150000D01*
X150980000Y-64190000D02*
X153820000Y-64190000D01*
X150980000Y-60150000D02*
X150980000Y-64190000D01*
X153820000Y-60150000D02*
X150980000Y-60150000D01*
X141455000Y-92250000D02*
X144295000Y-92250000D01*
X144295000Y-92250000D02*
X144295000Y-88210000D01*
X144295000Y-88210000D02*
X141455000Y-88210000D01*
X141455000Y-88210000D02*
X141455000Y-92250000D01*
X142875000Y-92940000D02*
X142875000Y-92250000D01*
X142875000Y-87520000D02*
X142875000Y-88210000D01*
X151020000Y-88900000D02*
X151710000Y-88900000D01*
X156440000Y-88900000D02*
X155750000Y-88900000D01*
X151710000Y-90320000D02*
X155750000Y-90320000D01*
X151710000Y-87480000D02*
X151710000Y-90320000D01*
X155750000Y-87480000D02*
X151710000Y-87480000D01*
X155750000Y-90320000D02*
X155750000Y-87480000D01*
X158750000Y-130810000D02*
X160020000Y-130810000D01*
X158750000Y-132080000D02*
X158750000Y-130810000D01*
X161062929Y-142620000D02*
X161517071Y-142620000D01*
X161062929Y-141860000D02*
X161517071Y-141860000D01*
X163602929Y-142620000D02*
X164000000Y-142620000D01*
X163602929Y-141860000D02*
X164000000Y-141860000D01*
X172660000Y-142620000D02*
X166660000Y-142620000D01*
X172660000Y-141860000D02*
X172660000Y-142620000D01*
X166660000Y-141860000D02*
X172660000Y-141860000D01*
X164000000Y-140970000D02*
X166660000Y-140970000D01*
X161062929Y-140080000D02*
X161517071Y-140080000D01*
X161062929Y-139320000D02*
X161517071Y-139320000D01*
X163602929Y-140080000D02*
X164000000Y-140080000D01*
X163602929Y-139320000D02*
X164000000Y-139320000D01*
X172660000Y-140080000D02*
X166660000Y-140080000D01*
X172660000Y-139320000D02*
X172660000Y-140080000D01*
X166660000Y-139320000D02*
X172660000Y-139320000D01*
X164000000Y-138430000D02*
X166660000Y-138430000D01*
X161062929Y-137540000D02*
X161517071Y-137540000D01*
X161062929Y-136780000D02*
X161517071Y-136780000D01*
X163602929Y-137540000D02*
X164000000Y-137540000D01*
X163602929Y-136780000D02*
X164000000Y-136780000D01*
X172660000Y-137540000D02*
X166660000Y-137540000D01*
X172660000Y-136780000D02*
X172660000Y-137540000D01*
X166660000Y-136780000D02*
X172660000Y-136780000D01*
X164000000Y-135890000D02*
X166660000Y-135890000D01*
X161062929Y-135000000D02*
X161517071Y-135000000D01*
X161062929Y-134240000D02*
X161517071Y-134240000D01*
X163602929Y-135000000D02*
X164000000Y-135000000D01*
X163602929Y-134240000D02*
X164000000Y-134240000D01*
X172660000Y-135000000D02*
X166660000Y-135000000D01*
X172660000Y-134240000D02*
X172660000Y-135000000D01*
X166660000Y-134240000D02*
X172660000Y-134240000D01*
X164000000Y-133350000D02*
X166660000Y-133350000D01*
X161130000Y-132460000D02*
X161517071Y-132460000D01*
X161130000Y-131700000D02*
X161517071Y-131700000D01*
X163602929Y-132460000D02*
X164000000Y-132460000D01*
X163602929Y-131700000D02*
X164000000Y-131700000D01*
X166660000Y-132360000D02*
X172660000Y-132360000D01*
X166660000Y-132240000D02*
X172660000Y-132240000D01*
X166660000Y-132120000D02*
X172660000Y-132120000D01*
X166660000Y-132000000D02*
X172660000Y-132000000D01*
X166660000Y-131880000D02*
X172660000Y-131880000D01*
X166660000Y-131760000D02*
X172660000Y-131760000D01*
X172660000Y-132460000D02*
X166660000Y-132460000D01*
X172660000Y-131700000D02*
X172660000Y-132460000D01*
X166660000Y-131700000D02*
X172660000Y-131700000D01*
X166660000Y-130750000D02*
X164000000Y-130750000D01*
X166660000Y-143570000D02*
X166660000Y-130750000D01*
X164000000Y-143570000D02*
X166660000Y-143570000D01*
X164000000Y-130750000D02*
X164000000Y-143570000D01*
X130750000Y-76140000D02*
X132080000Y-76140000D01*
X130750000Y-77470000D02*
X130750000Y-76140000D01*
X133350000Y-76140000D02*
X135950000Y-76140000D01*
X133350000Y-78740000D02*
X133350000Y-76140000D01*
X130750000Y-78740000D02*
X133350000Y-78740000D01*
X135950000Y-76140000D02*
X135950000Y-99120000D01*
X130750000Y-78740000D02*
X130750000Y-99120000D01*
X130750000Y-99120000D02*
X135950000Y-99120000D01*
X145310000Y-104830000D02*
X141710000Y-104830000D01*
X145348478Y-104841522D02*
G75*
G02*
X143510000Y-109280000I-1838478J-1838478D01*
G01*
X141671522Y-104841522D02*
G75*
G03*
X143510000Y-109280000I1838478J-1838478D01*
G01*
X140870000Y-101600000D02*
X140800000Y-101600000D01*
X143610000Y-101600000D02*
G75*
G03*
X143610000Y-101600000I-1370000J0D01*
G01*
X148690000Y-101600000D02*
G75*
G03*
X148690000Y-101600000I-1370000J0D01*
G01*
X145950000Y-101600000D02*
X145880000Y-101600000D01*
X148490000Y-106680000D02*
X148420000Y-106680000D01*
X151230000Y-106680000D02*
G75*
G03*
X151230000Y-106680000I-1370000J0D01*
G01*
X134720000Y-130810000D02*
G75*
G03*
X134720000Y-130810000I-1370000J0D01*
G01*
X134720000Y-130810000D02*
X134790000Y-130810000D01*
X135990000Y-53340000D02*
X136060000Y-53340000D01*
X135990000Y-53340000D02*
G75*
G03*
X135990000Y-53340000I-1370000J0D01*
G01*
X135990000Y-71120000D02*
X136060000Y-71120000D01*
X135990000Y-71120000D02*
G75*
G03*
X135990000Y-71120000I-1370000J0D01*
G01*
X148490000Y-73660000D02*
X148420000Y-73660000D01*
X151230000Y-73660000D02*
G75*
G03*
X151230000Y-73660000I-1370000J0D01*
G01*
X148490000Y-53340000D02*
X148420000Y-53340000D01*
X151230000Y-53340000D02*
G75*
G03*
X151230000Y-53340000I-1370000J0D01*
G01*
X138530000Y-55880000D02*
G75*
G03*
X138530000Y-55880000I-1370000J0D01*
G01*
X135790000Y-55880000D02*
X135720000Y-55880000D01*
X138530000Y-68580000D02*
G75*
G03*
X138530000Y-68580000I-1370000J0D01*
G01*
X135790000Y-68580000D02*
X135720000Y-68580000D01*
X148690000Y-69850000D02*
G75*
G03*
X148690000Y-69850000I-1370000J0D01*
G01*
X148690000Y-69850000D02*
X148760000Y-69850000D01*
X148690000Y-55880000D02*
G75*
G03*
X148690000Y-55880000I-1370000J0D01*
G01*
X148690000Y-55880000D02*
X148760000Y-55880000D01*
X136290000Y-138890000D02*
X136290000Y-137390000D01*
X135040000Y-134890000D02*
X130540000Y-134890000D01*
X129290000Y-137390000D02*
X129290000Y-138890000D01*
X130540000Y-141390000D02*
X135040000Y-141390000D01*
X151190000Y-64880000D02*
X151190000Y-63230000D01*
X133290000Y-64880000D02*
X151190000Y-64880000D01*
X133290000Y-59580000D02*
X133290000Y-64880000D01*
X151190000Y-59580000D02*
X133290000Y-59580000D01*
X151190000Y-61230000D02*
X151190000Y-59580000D01*
X151190000Y-63230000D02*
G75*
G02*
X151190000Y-61230000I0J1000000D01*
G01*
X158500816Y-114119185D02*
G75*
G03*
X158500816Y-114119185I-980816J0D01*
G01*
X159850000Y-110260000D02*
X129710000Y-110260000D01*
X129710000Y-110260000D02*
X129710000Y-128500000D01*
X129710000Y-128500000D02*
X159850000Y-128500000D01*
X159850000Y-128500000D02*
X159850000Y-122420000D01*
X159850000Y-122420000D02*
X159490000Y-122420000D01*
X159490000Y-122420000D02*
X159490000Y-116340001D01*
X159490000Y-116340001D02*
X159850000Y-116340001D01*
X159850000Y-116340001D02*
X159850000Y-110260000D01*
X158810000Y-82660000D02*
X158810000Y-81010000D01*
X138370000Y-82660000D02*
X158810000Y-82660000D01*
X138370000Y-77360000D02*
X138370000Y-82660000D01*
X158810000Y-77360000D02*
X138370000Y-77360000D01*
X158810000Y-79010000D02*
X158810000Y-77360000D01*
X158810000Y-81010000D02*
G75*
G02*
X158810000Y-79010000I0J1000000D01*
G01*
D10*
X111997142Y-141076666D02*
X112044761Y-141124285D01*
X112092380Y-141267142D01*
X112092380Y-141362380D01*
X112044761Y-141505238D01*
X111949523Y-141600476D01*
X111854285Y-141648095D01*
X111663809Y-141695714D01*
X111520952Y-141695714D01*
X111330476Y-141648095D01*
X111235238Y-141600476D01*
X111140000Y-141505238D01*
X111092380Y-141362380D01*
X111092380Y-141267142D01*
X111140000Y-141124285D01*
X111187619Y-141076666D01*
X112092380Y-140124285D02*
X112092380Y-140695714D01*
X112092380Y-140410000D02*
X111092380Y-140410000D01*
X111235238Y-140505238D01*
X111330476Y-140600476D01*
X111378095Y-140695714D01*
X111997142Y-125836666D02*
X112044761Y-125884285D01*
X112092380Y-126027142D01*
X112092380Y-126122380D01*
X112044761Y-126265238D01*
X111949523Y-126360476D01*
X111854285Y-126408095D01*
X111663809Y-126455714D01*
X111520952Y-126455714D01*
X111330476Y-126408095D01*
X111235238Y-126360476D01*
X111140000Y-126265238D01*
X111092380Y-126122380D01*
X111092380Y-126027142D01*
X111140000Y-125884285D01*
X111187619Y-125836666D01*
X111187619Y-125455714D02*
X111140000Y-125408095D01*
X111092380Y-125312857D01*
X111092380Y-125074761D01*
X111140000Y-124979523D01*
X111187619Y-124931904D01*
X111282857Y-124884285D01*
X111378095Y-124884285D01*
X111520952Y-124931904D01*
X112092380Y-125503333D01*
X112092380Y-124884285D01*
X111021904Y-53792380D02*
X111021904Y-52792380D01*
X111260000Y-52792380D01*
X111402857Y-52840000D01*
X111498095Y-52935238D01*
X111545714Y-53030476D01*
X111593333Y-53220952D01*
X111593333Y-53363809D01*
X111545714Y-53554285D01*
X111498095Y-53649523D01*
X111402857Y-53744761D01*
X111260000Y-53792380D01*
X111021904Y-53792380D01*
X112545714Y-53792380D02*
X111974285Y-53792380D01*
X112260000Y-53792380D02*
X112260000Y-52792380D01*
X112164761Y-52935238D01*
X112069523Y-53030476D01*
X111974285Y-53078095D01*
X123721904Y-53792380D02*
X123721904Y-52792380D01*
X123960000Y-52792380D01*
X124102857Y-52840000D01*
X124198095Y-52935238D01*
X124245714Y-53030476D01*
X124293333Y-53220952D01*
X124293333Y-53363809D01*
X124245714Y-53554285D01*
X124198095Y-53649523D01*
X124102857Y-53744761D01*
X123960000Y-53792380D01*
X123721904Y-53792380D01*
X124674285Y-52887619D02*
X124721904Y-52840000D01*
X124817142Y-52792380D01*
X125055238Y-52792380D01*
X125150476Y-52840000D01*
X125198095Y-52887619D01*
X125245714Y-52982857D01*
X125245714Y-53078095D01*
X125198095Y-53220952D01*
X124626666Y-53792380D01*
X125245714Y-53792380D01*
X123721904Y-110942380D02*
X123721904Y-109942380D01*
X123960000Y-109942380D01*
X124102857Y-109990000D01*
X124198095Y-110085238D01*
X124245714Y-110180476D01*
X124293333Y-110370952D01*
X124293333Y-110513809D01*
X124245714Y-110704285D01*
X124198095Y-110799523D01*
X124102857Y-110894761D01*
X123960000Y-110942380D01*
X123721904Y-110942380D01*
X124626666Y-109942380D02*
X125245714Y-109942380D01*
X124912380Y-110323333D01*
X125055238Y-110323333D01*
X125150476Y-110370952D01*
X125198095Y-110418571D01*
X125245714Y-110513809D01*
X125245714Y-110751904D01*
X125198095Y-110847142D01*
X125150476Y-110894761D01*
X125055238Y-110942380D01*
X124769523Y-110942380D01*
X124674285Y-110894761D01*
X124626666Y-110847142D01*
X123721904Y-96972380D02*
X123721904Y-95972380D01*
X123960000Y-95972380D01*
X124102857Y-96020000D01*
X124198095Y-96115238D01*
X124245714Y-96210476D01*
X124293333Y-96400952D01*
X124293333Y-96543809D01*
X124245714Y-96734285D01*
X124198095Y-96829523D01*
X124102857Y-96924761D01*
X123960000Y-96972380D01*
X123721904Y-96972380D01*
X125150476Y-96305714D02*
X125150476Y-96972380D01*
X124912380Y-95924761D02*
X124674285Y-96639047D01*
X125293333Y-96639047D01*
X119911904Y-79542380D02*
X119911904Y-78542380D01*
X120150000Y-78542380D01*
X120292857Y-78590000D01*
X120388095Y-78685238D01*
X120435714Y-78780476D01*
X120483333Y-78970952D01*
X120483333Y-79113809D01*
X120435714Y-79304285D01*
X120388095Y-79399523D01*
X120292857Y-79494761D01*
X120150000Y-79542380D01*
X119911904Y-79542380D01*
X121388095Y-78542380D02*
X120911904Y-78542380D01*
X120864285Y-79018571D01*
X120911904Y-78970952D01*
X121007142Y-78923333D01*
X121245238Y-78923333D01*
X121340476Y-78970952D01*
X121388095Y-79018571D01*
X121435714Y-79113809D01*
X121435714Y-79351904D01*
X121388095Y-79447142D01*
X121340476Y-79494761D01*
X121245238Y-79542380D01*
X121007142Y-79542380D01*
X120911904Y-79494761D01*
X120864285Y-79447142D01*
X123721904Y-69032380D02*
X123721904Y-68032380D01*
X123960000Y-68032380D01*
X124102857Y-68080000D01*
X124198095Y-68175238D01*
X124245714Y-68270476D01*
X124293333Y-68460952D01*
X124293333Y-68603809D01*
X124245714Y-68794285D01*
X124198095Y-68889523D01*
X124102857Y-68984761D01*
X123960000Y-69032380D01*
X123721904Y-69032380D01*
X125150476Y-68032380D02*
X124960000Y-68032380D01*
X124864761Y-68080000D01*
X124817142Y-68127619D01*
X124721904Y-68270476D01*
X124674285Y-68460952D01*
X124674285Y-68841904D01*
X124721904Y-68937142D01*
X124769523Y-68984761D01*
X124864761Y-69032380D01*
X125055238Y-69032380D01*
X125150476Y-68984761D01*
X125198095Y-68937142D01*
X125245714Y-68841904D01*
X125245714Y-68603809D01*
X125198095Y-68508571D01*
X125150476Y-68460952D01*
X125055238Y-68413333D01*
X124864761Y-68413333D01*
X124769523Y-68460952D01*
X124721904Y-68508571D01*
X124674285Y-68603809D01*
X111021904Y-69032380D02*
X111021904Y-68032380D01*
X111260000Y-68032380D01*
X111402857Y-68080000D01*
X111498095Y-68175238D01*
X111545714Y-68270476D01*
X111593333Y-68460952D01*
X111593333Y-68603809D01*
X111545714Y-68794285D01*
X111498095Y-68889523D01*
X111402857Y-68984761D01*
X111260000Y-69032380D01*
X111021904Y-69032380D01*
X111926666Y-68032380D02*
X112593333Y-68032380D01*
X112164761Y-69032380D01*
X108481904Y-79542380D02*
X108481904Y-78542380D01*
X108720000Y-78542380D01*
X108862857Y-78590000D01*
X108958095Y-78685238D01*
X109005714Y-78780476D01*
X109053333Y-78970952D01*
X109053333Y-79113809D01*
X109005714Y-79304285D01*
X108958095Y-79399523D01*
X108862857Y-79494761D01*
X108720000Y-79542380D01*
X108481904Y-79542380D01*
X109624761Y-78970952D02*
X109529523Y-78923333D01*
X109481904Y-78875714D01*
X109434285Y-78780476D01*
X109434285Y-78732857D01*
X109481904Y-78637619D01*
X109529523Y-78590000D01*
X109624761Y-78542380D01*
X109815238Y-78542380D01*
X109910476Y-78590000D01*
X109958095Y-78637619D01*
X110005714Y-78732857D01*
X110005714Y-78780476D01*
X109958095Y-78875714D01*
X109910476Y-78923333D01*
X109815238Y-78970952D01*
X109624761Y-78970952D01*
X109529523Y-79018571D01*
X109481904Y-79066190D01*
X109434285Y-79161428D01*
X109434285Y-79351904D01*
X109481904Y-79447142D01*
X109529523Y-79494761D01*
X109624761Y-79542380D01*
X109815238Y-79542380D01*
X109910476Y-79494761D01*
X109958095Y-79447142D01*
X110005714Y-79351904D01*
X110005714Y-79161428D01*
X109958095Y-79066190D01*
X109910476Y-79018571D01*
X109815238Y-78970952D01*
X107211904Y-100782380D02*
X107211904Y-99782380D01*
X107450000Y-99782380D01*
X107592857Y-99830000D01*
X107688095Y-99925238D01*
X107735714Y-100020476D01*
X107783333Y-100210952D01*
X107783333Y-100353809D01*
X107735714Y-100544285D01*
X107688095Y-100639523D01*
X107592857Y-100734761D01*
X107450000Y-100782380D01*
X107211904Y-100782380D01*
X108259523Y-100782380D02*
X108450000Y-100782380D01*
X108545238Y-100734761D01*
X108592857Y-100687142D01*
X108688095Y-100544285D01*
X108735714Y-100353809D01*
X108735714Y-99972857D01*
X108688095Y-99877619D01*
X108640476Y-99830000D01*
X108545238Y-99782380D01*
X108354761Y-99782380D01*
X108259523Y-99830000D01*
X108211904Y-99877619D01*
X108164285Y-99972857D01*
X108164285Y-100210952D01*
X108211904Y-100306190D01*
X108259523Y-100353809D01*
X108354761Y-100401428D01*
X108545238Y-100401428D01*
X108640476Y-100353809D01*
X108688095Y-100306190D01*
X108735714Y-100210952D01*
X111180714Y-110942380D02*
X111180714Y-109942380D01*
X111418809Y-109942380D01*
X111561666Y-109990000D01*
X111656904Y-110085238D01*
X111704523Y-110180476D01*
X111752142Y-110370952D01*
X111752142Y-110513809D01*
X111704523Y-110704285D01*
X111656904Y-110799523D01*
X111561666Y-110894761D01*
X111418809Y-110942380D01*
X111180714Y-110942380D01*
X112704523Y-110942380D02*
X112133095Y-110942380D01*
X112418809Y-110942380D02*
X112418809Y-109942380D01*
X112323571Y-110085238D01*
X112228333Y-110180476D01*
X112133095Y-110228095D01*
X113323571Y-109942380D02*
X113418809Y-109942380D01*
X113514047Y-109990000D01*
X113561666Y-110037619D01*
X113609285Y-110132857D01*
X113656904Y-110323333D01*
X113656904Y-110561428D01*
X113609285Y-110751904D01*
X113561666Y-110847142D01*
X113514047Y-110894761D01*
X113418809Y-110942380D01*
X113323571Y-110942380D01*
X113228333Y-110894761D01*
X113180714Y-110847142D01*
X113133095Y-110751904D01*
X113085476Y-110561428D01*
X113085476Y-110323333D01*
X113133095Y-110132857D01*
X113180714Y-110037619D01*
X113228333Y-109990000D01*
X113323571Y-109942380D01*
X96186666Y-58507380D02*
X96186666Y-59221666D01*
X96139047Y-59364523D01*
X96043809Y-59459761D01*
X95900952Y-59507380D01*
X95805714Y-59507380D01*
X97186666Y-59507380D02*
X96615238Y-59507380D01*
X96900952Y-59507380D02*
X96900952Y-58507380D01*
X96805714Y-58650238D01*
X96710476Y-58745476D01*
X96615238Y-58793095D01*
X96186666Y-62317380D02*
X96186666Y-63031666D01*
X96139047Y-63174523D01*
X96043809Y-63269761D01*
X95900952Y-63317380D01*
X95805714Y-63317380D01*
X96615238Y-62412619D02*
X96662857Y-62365000D01*
X96758095Y-62317380D01*
X96996190Y-62317380D01*
X97091428Y-62365000D01*
X97139047Y-62412619D01*
X97186666Y-62507857D01*
X97186666Y-62603095D01*
X97139047Y-62745952D01*
X96567619Y-63317380D01*
X97186666Y-63317380D01*
X100631666Y-76922380D02*
X100631666Y-77636666D01*
X100584047Y-77779523D01*
X100488809Y-77874761D01*
X100345952Y-77922380D01*
X100250714Y-77922380D01*
X101012619Y-76922380D02*
X101631666Y-76922380D01*
X101298333Y-77303333D01*
X101441190Y-77303333D01*
X101536428Y-77350952D01*
X101584047Y-77398571D01*
X101631666Y-77493809D01*
X101631666Y-77731904D01*
X101584047Y-77827142D01*
X101536428Y-77874761D01*
X101441190Y-77922380D01*
X101155476Y-77922380D01*
X101060238Y-77874761D01*
X101012619Y-77827142D01*
X100631666Y-90892380D02*
X100631666Y-91606666D01*
X100584047Y-91749523D01*
X100488809Y-91844761D01*
X100345952Y-91892380D01*
X100250714Y-91892380D01*
X101536428Y-91225714D02*
X101536428Y-91892380D01*
X101298333Y-90844761D02*
X101060238Y-91559047D01*
X101679285Y-91559047D01*
X100631666Y-104862380D02*
X100631666Y-105576666D01*
X100584047Y-105719523D01*
X100488809Y-105814761D01*
X100345952Y-105862380D01*
X100250714Y-105862380D01*
X101584047Y-104862380D02*
X101107857Y-104862380D01*
X101060238Y-105338571D01*
X101107857Y-105290952D01*
X101203095Y-105243333D01*
X101441190Y-105243333D01*
X101536428Y-105290952D01*
X101584047Y-105338571D01*
X101631666Y-105433809D01*
X101631666Y-105671904D01*
X101584047Y-105767142D01*
X101536428Y-105814761D01*
X101441190Y-105862380D01*
X101203095Y-105862380D01*
X101107857Y-105814761D01*
X101060238Y-105767142D01*
X113966666Y-74592380D02*
X113966666Y-75306666D01*
X113919047Y-75449523D01*
X113823809Y-75544761D01*
X113680952Y-75592380D01*
X113585714Y-75592380D01*
X114347619Y-74592380D02*
X115014285Y-74592380D01*
X114585714Y-75592380D01*
X103973333Y-136342380D02*
X103640000Y-135866190D01*
X103401904Y-136342380D02*
X103401904Y-135342380D01*
X103782857Y-135342380D01*
X103878095Y-135390000D01*
X103925714Y-135437619D01*
X103973333Y-135532857D01*
X103973333Y-135675714D01*
X103925714Y-135770952D01*
X103878095Y-135818571D01*
X103782857Y-135866190D01*
X103401904Y-135866190D01*
X104925714Y-136342380D02*
X104354285Y-136342380D01*
X104640000Y-136342380D02*
X104640000Y-135342380D01*
X104544761Y-135485238D01*
X104449523Y-135580476D01*
X104354285Y-135628095D01*
X91273333Y-136342380D02*
X90940000Y-135866190D01*
X90701904Y-136342380D02*
X90701904Y-135342380D01*
X91082857Y-135342380D01*
X91178095Y-135390000D01*
X91225714Y-135437619D01*
X91273333Y-135532857D01*
X91273333Y-135675714D01*
X91225714Y-135770952D01*
X91178095Y-135818571D01*
X91082857Y-135866190D01*
X90701904Y-135866190D01*
X91654285Y-135437619D02*
X91701904Y-135390000D01*
X91797142Y-135342380D01*
X92035238Y-135342380D01*
X92130476Y-135390000D01*
X92178095Y-135437619D01*
X92225714Y-135532857D01*
X92225714Y-135628095D01*
X92178095Y-135770952D01*
X91606666Y-136342380D01*
X92225714Y-136342380D01*
X111593333Y-58872380D02*
X111260000Y-58396190D01*
X111021904Y-58872380D02*
X111021904Y-57872380D01*
X111402857Y-57872380D01*
X111498095Y-57920000D01*
X111545714Y-57967619D01*
X111593333Y-58062857D01*
X111593333Y-58205714D01*
X111545714Y-58300952D01*
X111498095Y-58348571D01*
X111402857Y-58396190D01*
X111021904Y-58396190D01*
X111926666Y-57872380D02*
X112545714Y-57872380D01*
X112212380Y-58253333D01*
X112355238Y-58253333D01*
X112450476Y-58300952D01*
X112498095Y-58348571D01*
X112545714Y-58443809D01*
X112545714Y-58681904D01*
X112498095Y-58777142D01*
X112450476Y-58824761D01*
X112355238Y-58872380D01*
X112069523Y-58872380D01*
X111974285Y-58824761D01*
X111926666Y-58777142D01*
X112042380Y-133516666D02*
X111566190Y-133850000D01*
X112042380Y-134088095D02*
X111042380Y-134088095D01*
X111042380Y-133707142D01*
X111090000Y-133611904D01*
X111137619Y-133564285D01*
X111232857Y-133516666D01*
X111375714Y-133516666D01*
X111470952Y-133564285D01*
X111518571Y-133611904D01*
X111566190Y-133707142D01*
X111566190Y-134088095D01*
X111375714Y-132659523D02*
X112042380Y-132659523D01*
X110994761Y-132897619D02*
X111709047Y-133135714D01*
X111709047Y-132516666D01*
X112042380Y-118276666D02*
X111566190Y-118610000D01*
X112042380Y-118848095D02*
X111042380Y-118848095D01*
X111042380Y-118467142D01*
X111090000Y-118371904D01*
X111137619Y-118324285D01*
X111232857Y-118276666D01*
X111375714Y-118276666D01*
X111470952Y-118324285D01*
X111518571Y-118371904D01*
X111566190Y-118467142D01*
X111566190Y-118848095D01*
X111042380Y-117371904D02*
X111042380Y-117848095D01*
X111518571Y-117895714D01*
X111470952Y-117848095D01*
X111423333Y-117752857D01*
X111423333Y-117514761D01*
X111470952Y-117419523D01*
X111518571Y-117371904D01*
X111613809Y-117324285D01*
X111851904Y-117324285D01*
X111947142Y-117371904D01*
X111994761Y-117419523D01*
X112042380Y-117514761D01*
X112042380Y-117752857D01*
X111994761Y-117848095D01*
X111947142Y-117895714D01*
X114287380Y-54776666D02*
X113811190Y-55110000D01*
X114287380Y-55348095D02*
X113287380Y-55348095D01*
X113287380Y-54967142D01*
X113335000Y-54871904D01*
X113382619Y-54824285D01*
X113477857Y-54776666D01*
X113620714Y-54776666D01*
X113715952Y-54824285D01*
X113763571Y-54871904D01*
X113811190Y-54967142D01*
X113811190Y-55348095D01*
X113287380Y-53919523D02*
X113287380Y-54110000D01*
X113335000Y-54205238D01*
X113382619Y-54252857D01*
X113525476Y-54348095D01*
X113715952Y-54395714D01*
X114096904Y-54395714D01*
X114192142Y-54348095D01*
X114239761Y-54300476D01*
X114287380Y-54205238D01*
X114287380Y-54014761D01*
X114239761Y-53919523D01*
X114192142Y-53871904D01*
X114096904Y-53824285D01*
X113858809Y-53824285D01*
X113763571Y-53871904D01*
X113715952Y-53919523D01*
X113668333Y-54014761D01*
X113668333Y-54205238D01*
X113715952Y-54300476D01*
X113763571Y-54348095D01*
X113858809Y-54395714D01*
X123658333Y-106497380D02*
X123325000Y-106021190D01*
X123086904Y-106497380D02*
X123086904Y-105497380D01*
X123467857Y-105497380D01*
X123563095Y-105545000D01*
X123610714Y-105592619D01*
X123658333Y-105687857D01*
X123658333Y-105830714D01*
X123610714Y-105925952D01*
X123563095Y-105973571D01*
X123467857Y-106021190D01*
X123086904Y-106021190D01*
X123991666Y-105497380D02*
X124658333Y-105497380D01*
X124229761Y-106497380D01*
X124293333Y-92527380D02*
X123960000Y-92051190D01*
X123721904Y-92527380D02*
X123721904Y-91527380D01*
X124102857Y-91527380D01*
X124198095Y-91575000D01*
X124245714Y-91622619D01*
X124293333Y-91717857D01*
X124293333Y-91860714D01*
X124245714Y-91955952D01*
X124198095Y-92003571D01*
X124102857Y-92051190D01*
X123721904Y-92051190D01*
X124864761Y-91955952D02*
X124769523Y-91908333D01*
X124721904Y-91860714D01*
X124674285Y-91765476D01*
X124674285Y-91717857D01*
X124721904Y-91622619D01*
X124769523Y-91575000D01*
X124864761Y-91527380D01*
X125055238Y-91527380D01*
X125150476Y-91575000D01*
X125198095Y-91622619D01*
X125245714Y-91717857D01*
X125245714Y-91765476D01*
X125198095Y-91860714D01*
X125150476Y-91908333D01*
X125055238Y-91955952D01*
X124864761Y-91955952D01*
X124769523Y-92003571D01*
X124721904Y-92051190D01*
X124674285Y-92146428D01*
X124674285Y-92336904D01*
X124721904Y-92432142D01*
X124769523Y-92479761D01*
X124864761Y-92527380D01*
X125055238Y-92527380D01*
X125150476Y-92479761D01*
X125198095Y-92432142D01*
X125245714Y-92336904D01*
X125245714Y-92146428D01*
X125198095Y-92051190D01*
X125150476Y-92003571D01*
X125055238Y-91955952D01*
X124293333Y-87447380D02*
X123960000Y-86971190D01*
X123721904Y-87447380D02*
X123721904Y-86447380D01*
X124102857Y-86447380D01*
X124198095Y-86495000D01*
X124245714Y-86542619D01*
X124293333Y-86637857D01*
X124293333Y-86780714D01*
X124245714Y-86875952D01*
X124198095Y-86923571D01*
X124102857Y-86971190D01*
X123721904Y-86971190D01*
X124769523Y-87447380D02*
X124960000Y-87447380D01*
X125055238Y-87399761D01*
X125102857Y-87352142D01*
X125198095Y-87209285D01*
X125245714Y-87018809D01*
X125245714Y-86637857D01*
X125198095Y-86542619D01*
X125150476Y-86495000D01*
X125055238Y-86447380D01*
X124864761Y-86447380D01*
X124769523Y-86495000D01*
X124721904Y-86542619D01*
X124674285Y-86637857D01*
X124674285Y-86875952D01*
X124721904Y-86971190D01*
X124769523Y-87018809D01*
X124864761Y-87066428D01*
X125055238Y-87066428D01*
X125150476Y-87018809D01*
X125198095Y-86971190D01*
X125245714Y-86875952D01*
X123817142Y-74112380D02*
X123483809Y-73636190D01*
X123245714Y-74112380D02*
X123245714Y-73112380D01*
X123626666Y-73112380D01*
X123721904Y-73160000D01*
X123769523Y-73207619D01*
X123817142Y-73302857D01*
X123817142Y-73445714D01*
X123769523Y-73540952D01*
X123721904Y-73588571D01*
X123626666Y-73636190D01*
X123245714Y-73636190D01*
X124769523Y-74112380D02*
X124198095Y-74112380D01*
X124483809Y-74112380D02*
X124483809Y-73112380D01*
X124388571Y-73255238D01*
X124293333Y-73350476D01*
X124198095Y-73398095D01*
X125388571Y-73112380D02*
X125483809Y-73112380D01*
X125579047Y-73160000D01*
X125626666Y-73207619D01*
X125674285Y-73302857D01*
X125721904Y-73493333D01*
X125721904Y-73731428D01*
X125674285Y-73921904D01*
X125626666Y-74017142D01*
X125579047Y-74064761D01*
X125483809Y-74112380D01*
X125388571Y-74112380D01*
X125293333Y-74064761D01*
X125245714Y-74017142D01*
X125198095Y-73921904D01*
X125150476Y-73731428D01*
X125150476Y-73493333D01*
X125198095Y-73302857D01*
X125245714Y-73207619D01*
X125293333Y-73160000D01*
X125388571Y-73112380D01*
X109212142Y-63952380D02*
X108878809Y-63476190D01*
X108640714Y-63952380D02*
X108640714Y-62952380D01*
X109021666Y-62952380D01*
X109116904Y-63000000D01*
X109164523Y-63047619D01*
X109212142Y-63142857D01*
X109212142Y-63285714D01*
X109164523Y-63380952D01*
X109116904Y-63428571D01*
X109021666Y-63476190D01*
X108640714Y-63476190D01*
X110164523Y-63952380D02*
X109593095Y-63952380D01*
X109878809Y-63952380D02*
X109878809Y-62952380D01*
X109783571Y-63095238D01*
X109688333Y-63190476D01*
X109593095Y-63238095D01*
X111116904Y-63952380D02*
X110545476Y-63952380D01*
X110831190Y-63952380D02*
X110831190Y-62952380D01*
X110735952Y-63095238D01*
X110640714Y-63190476D01*
X110545476Y-63238095D01*
X104767142Y-76017380D02*
X104433809Y-75541190D01*
X104195714Y-76017380D02*
X104195714Y-75017380D01*
X104576666Y-75017380D01*
X104671904Y-75065000D01*
X104719523Y-75112619D01*
X104767142Y-75207857D01*
X104767142Y-75350714D01*
X104719523Y-75445952D01*
X104671904Y-75493571D01*
X104576666Y-75541190D01*
X104195714Y-75541190D01*
X105719523Y-76017380D02*
X105148095Y-76017380D01*
X105433809Y-76017380D02*
X105433809Y-75017380D01*
X105338571Y-75160238D01*
X105243333Y-75255476D01*
X105148095Y-75303095D01*
X106100476Y-75112619D02*
X106148095Y-75065000D01*
X106243333Y-75017380D01*
X106481428Y-75017380D01*
X106576666Y-75065000D01*
X106624285Y-75112619D01*
X106671904Y-75207857D01*
X106671904Y-75303095D01*
X106624285Y-75445952D01*
X106052857Y-76017380D01*
X106671904Y-76017380D01*
X107307142Y-89522380D02*
X106973809Y-89046190D01*
X106735714Y-89522380D02*
X106735714Y-88522380D01*
X107116666Y-88522380D01*
X107211904Y-88570000D01*
X107259523Y-88617619D01*
X107307142Y-88712857D01*
X107307142Y-88855714D01*
X107259523Y-88950952D01*
X107211904Y-88998571D01*
X107116666Y-89046190D01*
X106735714Y-89046190D01*
X108259523Y-89522380D02*
X107688095Y-89522380D01*
X107973809Y-89522380D02*
X107973809Y-88522380D01*
X107878571Y-88665238D01*
X107783333Y-88760476D01*
X107688095Y-88808095D01*
X108592857Y-88522380D02*
X109211904Y-88522380D01*
X108878571Y-88903333D01*
X109021428Y-88903333D01*
X109116666Y-88950952D01*
X109164285Y-88998571D01*
X109211904Y-89093809D01*
X109211904Y-89331904D01*
X109164285Y-89427142D01*
X109116666Y-89474761D01*
X109021428Y-89522380D01*
X108735714Y-89522380D01*
X108640476Y-89474761D01*
X108592857Y-89427142D01*
X109212142Y-106497380D02*
X108878809Y-106021190D01*
X108640714Y-106497380D02*
X108640714Y-105497380D01*
X109021666Y-105497380D01*
X109116904Y-105545000D01*
X109164523Y-105592619D01*
X109212142Y-105687857D01*
X109212142Y-105830714D01*
X109164523Y-105925952D01*
X109116904Y-105973571D01*
X109021666Y-106021190D01*
X108640714Y-106021190D01*
X110164523Y-106497380D02*
X109593095Y-106497380D01*
X109878809Y-106497380D02*
X109878809Y-105497380D01*
X109783571Y-105640238D01*
X109688333Y-105735476D01*
X109593095Y-105783095D01*
X111021666Y-105830714D02*
X111021666Y-106497380D01*
X110783571Y-105449761D02*
X110545476Y-106164047D01*
X111164523Y-106164047D01*
X95877142Y-76652380D02*
X95543809Y-76176190D01*
X95305714Y-76652380D02*
X95305714Y-75652380D01*
X95686666Y-75652380D01*
X95781904Y-75700000D01*
X95829523Y-75747619D01*
X95877142Y-75842857D01*
X95877142Y-75985714D01*
X95829523Y-76080952D01*
X95781904Y-76128571D01*
X95686666Y-76176190D01*
X95305714Y-76176190D01*
X96829523Y-76652380D02*
X96258095Y-76652380D01*
X96543809Y-76652380D02*
X96543809Y-75652380D01*
X96448571Y-75795238D01*
X96353333Y-75890476D01*
X96258095Y-75938095D01*
X97734285Y-75652380D02*
X97258095Y-75652380D01*
X97210476Y-76128571D01*
X97258095Y-76080952D01*
X97353333Y-76033333D01*
X97591428Y-76033333D01*
X97686666Y-76080952D01*
X97734285Y-76128571D01*
X97781904Y-76223809D01*
X97781904Y-76461904D01*
X97734285Y-76557142D01*
X97686666Y-76604761D01*
X97591428Y-76652380D01*
X97353333Y-76652380D01*
X97258095Y-76604761D01*
X97210476Y-76557142D01*
X95877142Y-89352380D02*
X95543809Y-88876190D01*
X95305714Y-89352380D02*
X95305714Y-88352380D01*
X95686666Y-88352380D01*
X95781904Y-88400000D01*
X95829523Y-88447619D01*
X95877142Y-88542857D01*
X95877142Y-88685714D01*
X95829523Y-88780952D01*
X95781904Y-88828571D01*
X95686666Y-88876190D01*
X95305714Y-88876190D01*
X96829523Y-89352380D02*
X96258095Y-89352380D01*
X96543809Y-89352380D02*
X96543809Y-88352380D01*
X96448571Y-88495238D01*
X96353333Y-88590476D01*
X96258095Y-88638095D01*
X97686666Y-88352380D02*
X97496190Y-88352380D01*
X97400952Y-88400000D01*
X97353333Y-88447619D01*
X97258095Y-88590476D01*
X97210476Y-88780952D01*
X97210476Y-89161904D01*
X97258095Y-89257142D01*
X97305714Y-89304761D01*
X97400952Y-89352380D01*
X97591428Y-89352380D01*
X97686666Y-89304761D01*
X97734285Y-89257142D01*
X97781904Y-89161904D01*
X97781904Y-88923809D01*
X97734285Y-88828571D01*
X97686666Y-88780952D01*
X97591428Y-88733333D01*
X97400952Y-88733333D01*
X97305714Y-88780952D01*
X97258095Y-88828571D01*
X97210476Y-88923809D01*
X95877142Y-104592380D02*
X95543809Y-104116190D01*
X95305714Y-104592380D02*
X95305714Y-103592380D01*
X95686666Y-103592380D01*
X95781904Y-103640000D01*
X95829523Y-103687619D01*
X95877142Y-103782857D01*
X95877142Y-103925714D01*
X95829523Y-104020952D01*
X95781904Y-104068571D01*
X95686666Y-104116190D01*
X95305714Y-104116190D01*
X96829523Y-104592380D02*
X96258095Y-104592380D01*
X96543809Y-104592380D02*
X96543809Y-103592380D01*
X96448571Y-103735238D01*
X96353333Y-103830476D01*
X96258095Y-103878095D01*
X97162857Y-103592380D02*
X97829523Y-103592380D01*
X97400952Y-104592380D01*
X95877142Y-117292380D02*
X95543809Y-116816190D01*
X95305714Y-117292380D02*
X95305714Y-116292380D01*
X95686666Y-116292380D01*
X95781904Y-116340000D01*
X95829523Y-116387619D01*
X95877142Y-116482857D01*
X95877142Y-116625714D01*
X95829523Y-116720952D01*
X95781904Y-116768571D01*
X95686666Y-116816190D01*
X95305714Y-116816190D01*
X96829523Y-117292380D02*
X96258095Y-117292380D01*
X96543809Y-117292380D02*
X96543809Y-116292380D01*
X96448571Y-116435238D01*
X96353333Y-116530476D01*
X96258095Y-116578095D01*
X97400952Y-116720952D02*
X97305714Y-116673333D01*
X97258095Y-116625714D01*
X97210476Y-116530476D01*
X97210476Y-116482857D01*
X97258095Y-116387619D01*
X97305714Y-116340000D01*
X97400952Y-116292380D01*
X97591428Y-116292380D01*
X97686666Y-116340000D01*
X97734285Y-116387619D01*
X97781904Y-116482857D01*
X97781904Y-116530476D01*
X97734285Y-116625714D01*
X97686666Y-116673333D01*
X97591428Y-116720952D01*
X97400952Y-116720952D01*
X97305714Y-116768571D01*
X97258095Y-116816190D01*
X97210476Y-116911428D01*
X97210476Y-117101904D01*
X97258095Y-117197142D01*
X97305714Y-117244761D01*
X97400952Y-117292380D01*
X97591428Y-117292380D01*
X97686666Y-117244761D01*
X97734285Y-117197142D01*
X97781904Y-117101904D01*
X97781904Y-116911428D01*
X97734285Y-116816190D01*
X97686666Y-116768571D01*
X97591428Y-116720952D01*
X92224761Y-131883333D02*
X92272380Y-131740476D01*
X92272380Y-131502380D01*
X92224761Y-131407142D01*
X92177142Y-131359523D01*
X92081904Y-131311904D01*
X91986666Y-131311904D01*
X91891428Y-131359523D01*
X91843809Y-131407142D01*
X91796190Y-131502380D01*
X91748571Y-131692857D01*
X91700952Y-131788095D01*
X91653333Y-131835714D01*
X91558095Y-131883333D01*
X91462857Y-131883333D01*
X91367619Y-131835714D01*
X91320000Y-131788095D01*
X91272380Y-131692857D01*
X91272380Y-131454761D01*
X91320000Y-131311904D01*
X91272380Y-130978571D02*
X92272380Y-130740476D01*
X91558095Y-130550000D01*
X92272380Y-130359523D01*
X91272380Y-130121428D01*
X92272380Y-129216666D02*
X92272380Y-129788095D01*
X92272380Y-129502380D02*
X91272380Y-129502380D01*
X91415238Y-129597619D01*
X91510476Y-129692857D01*
X91558095Y-129788095D01*
X115506666Y-137564761D02*
X115649523Y-137612380D01*
X115887619Y-137612380D01*
X115982857Y-137564761D01*
X116030476Y-137517142D01*
X116078095Y-137421904D01*
X116078095Y-137326666D01*
X116030476Y-137231428D01*
X115982857Y-137183809D01*
X115887619Y-137136190D01*
X115697142Y-137088571D01*
X115601904Y-137040952D01*
X115554285Y-136993333D01*
X115506666Y-136898095D01*
X115506666Y-136802857D01*
X115554285Y-136707619D01*
X115601904Y-136660000D01*
X115697142Y-136612380D01*
X115935238Y-136612380D01*
X116078095Y-136660000D01*
X116411428Y-136612380D02*
X116649523Y-137612380D01*
X116840000Y-136898095D01*
X117030476Y-137612380D01*
X117268571Y-136612380D01*
X117554285Y-136612380D02*
X118173333Y-136612380D01*
X117840000Y-136993333D01*
X117982857Y-136993333D01*
X118078095Y-137040952D01*
X118125714Y-137088571D01*
X118173333Y-137183809D01*
X118173333Y-137421904D01*
X118125714Y-137517142D01*
X118078095Y-137564761D01*
X117982857Y-137612380D01*
X117697142Y-137612380D01*
X117601904Y-137564761D01*
X117554285Y-137517142D01*
X115506666Y-121054761D02*
X115649523Y-121102380D01*
X115887619Y-121102380D01*
X115982857Y-121054761D01*
X116030476Y-121007142D01*
X116078095Y-120911904D01*
X116078095Y-120816666D01*
X116030476Y-120721428D01*
X115982857Y-120673809D01*
X115887619Y-120626190D01*
X115697142Y-120578571D01*
X115601904Y-120530952D01*
X115554285Y-120483333D01*
X115506666Y-120388095D01*
X115506666Y-120292857D01*
X115554285Y-120197619D01*
X115601904Y-120150000D01*
X115697142Y-120102380D01*
X115935238Y-120102380D01*
X116078095Y-120150000D01*
X116411428Y-120102380D02*
X116649523Y-121102380D01*
X116840000Y-120388095D01*
X117030476Y-121102380D01*
X117268571Y-120102380D01*
X118078095Y-120435714D02*
X118078095Y-121102380D01*
X117840000Y-120054761D02*
X117601904Y-120769047D01*
X118220952Y-120769047D01*
X107886666Y-147724761D02*
X108029523Y-147772380D01*
X108267619Y-147772380D01*
X108362857Y-147724761D01*
X108410476Y-147677142D01*
X108458095Y-147581904D01*
X108458095Y-147486666D01*
X108410476Y-147391428D01*
X108362857Y-147343809D01*
X108267619Y-147296190D01*
X108077142Y-147248571D01*
X107981904Y-147200952D01*
X107934285Y-147153333D01*
X107886666Y-147058095D01*
X107886666Y-146962857D01*
X107934285Y-146867619D01*
X107981904Y-146820000D01*
X108077142Y-146772380D01*
X108315238Y-146772380D01*
X108458095Y-146820000D01*
X108791428Y-146772380D02*
X109029523Y-147772380D01*
X109220000Y-147058095D01*
X109410476Y-147772380D01*
X109648571Y-146772380D01*
X109981904Y-146867619D02*
X110029523Y-146820000D01*
X110124761Y-146772380D01*
X110362857Y-146772380D01*
X110458095Y-146820000D01*
X110505714Y-146867619D01*
X110553333Y-146962857D01*
X110553333Y-147058095D01*
X110505714Y-147200952D01*
X109934285Y-147772380D01*
X110553333Y-147772380D01*
X148357142Y-141156666D02*
X148404761Y-141204285D01*
X148452380Y-141347142D01*
X148452380Y-141442380D01*
X148404761Y-141585238D01*
X148309523Y-141680476D01*
X148214285Y-141728095D01*
X148023809Y-141775714D01*
X147880952Y-141775714D01*
X147690476Y-141728095D01*
X147595238Y-141680476D01*
X147500000Y-141585238D01*
X147452380Y-141442380D01*
X147452380Y-141347142D01*
X147500000Y-141204285D01*
X147547619Y-141156666D01*
X147452380Y-140823333D02*
X147452380Y-140204285D01*
X147833333Y-140537619D01*
X147833333Y-140394761D01*
X147880952Y-140299523D01*
X147928571Y-140251904D01*
X148023809Y-140204285D01*
X148261904Y-140204285D01*
X148357142Y-140251904D01*
X148404761Y-140299523D01*
X148452380Y-140394761D01*
X148452380Y-140680476D01*
X148404761Y-140775714D01*
X148357142Y-140823333D01*
X148357142Y-133536666D02*
X148404761Y-133584285D01*
X148452380Y-133727142D01*
X148452380Y-133822380D01*
X148404761Y-133965238D01*
X148309523Y-134060476D01*
X148214285Y-134108095D01*
X148023809Y-134155714D01*
X147880952Y-134155714D01*
X147690476Y-134108095D01*
X147595238Y-134060476D01*
X147500000Y-133965238D01*
X147452380Y-133822380D01*
X147452380Y-133727142D01*
X147500000Y-133584285D01*
X147547619Y-133536666D01*
X147785714Y-132679523D02*
X148452380Y-132679523D01*
X147404761Y-132917619D02*
X148119047Y-133155714D01*
X148119047Y-132536666D01*
X155177142Y-62336666D02*
X155224761Y-62384285D01*
X155272380Y-62527142D01*
X155272380Y-62622380D01*
X155224761Y-62765238D01*
X155129523Y-62860476D01*
X155034285Y-62908095D01*
X154843809Y-62955714D01*
X154700952Y-62955714D01*
X154510476Y-62908095D01*
X154415238Y-62860476D01*
X154320000Y-62765238D01*
X154272380Y-62622380D01*
X154272380Y-62527142D01*
X154320000Y-62384285D01*
X154367619Y-62336666D01*
X154272380Y-61431904D02*
X154272380Y-61908095D01*
X154748571Y-61955714D01*
X154700952Y-61908095D01*
X154653333Y-61812857D01*
X154653333Y-61574761D01*
X154700952Y-61479523D01*
X154748571Y-61431904D01*
X154843809Y-61384285D01*
X155081904Y-61384285D01*
X155177142Y-61431904D01*
X155224761Y-61479523D01*
X155272380Y-61574761D01*
X155272380Y-61812857D01*
X155224761Y-61908095D01*
X155177142Y-61955714D01*
X140812142Y-90396666D02*
X140859761Y-90444285D01*
X140907380Y-90587142D01*
X140907380Y-90682380D01*
X140859761Y-90825238D01*
X140764523Y-90920476D01*
X140669285Y-90968095D01*
X140478809Y-91015714D01*
X140335952Y-91015714D01*
X140145476Y-90968095D01*
X140050238Y-90920476D01*
X139955000Y-90825238D01*
X139907380Y-90682380D01*
X139907380Y-90587142D01*
X139955000Y-90444285D01*
X140002619Y-90396666D01*
X139907380Y-89539523D02*
X139907380Y-89730000D01*
X139955000Y-89825238D01*
X140002619Y-89872857D01*
X140145476Y-89968095D01*
X140335952Y-90015714D01*
X140716904Y-90015714D01*
X140812142Y-89968095D01*
X140859761Y-89920476D01*
X140907380Y-89825238D01*
X140907380Y-89634761D01*
X140859761Y-89539523D01*
X140812142Y-89491904D01*
X140716904Y-89444285D01*
X140478809Y-89444285D01*
X140383571Y-89491904D01*
X140335952Y-89539523D01*
X140288333Y-89634761D01*
X140288333Y-89825238D01*
X140335952Y-89920476D01*
X140383571Y-89968095D01*
X140478809Y-90015714D01*
X153563333Y-91677142D02*
X153515714Y-91724761D01*
X153372857Y-91772380D01*
X153277619Y-91772380D01*
X153134761Y-91724761D01*
X153039523Y-91629523D01*
X152991904Y-91534285D01*
X152944285Y-91343809D01*
X152944285Y-91200952D01*
X152991904Y-91010476D01*
X153039523Y-90915238D01*
X153134761Y-90820000D01*
X153277619Y-90772380D01*
X153372857Y-90772380D01*
X153515714Y-90820000D01*
X153563333Y-90867619D01*
X153896666Y-90772380D02*
X154563333Y-90772380D01*
X154134761Y-91772380D01*
X160956666Y-128992380D02*
X160956666Y-129706666D01*
X160909047Y-129849523D01*
X160813809Y-129944761D01*
X160670952Y-129992380D01*
X160575714Y-129992380D01*
X161861428Y-128992380D02*
X161670952Y-128992380D01*
X161575714Y-129040000D01*
X161528095Y-129087619D01*
X161432857Y-129230476D01*
X161385238Y-129420952D01*
X161385238Y-129801904D01*
X161432857Y-129897142D01*
X161480476Y-129944761D01*
X161575714Y-129992380D01*
X161766190Y-129992380D01*
X161861428Y-129944761D01*
X161909047Y-129897142D01*
X161956666Y-129801904D01*
X161956666Y-129563809D01*
X161909047Y-129468571D01*
X161861428Y-129420952D01*
X161766190Y-129373333D01*
X161575714Y-129373333D01*
X161480476Y-129420952D01*
X161432857Y-129468571D01*
X161385238Y-129563809D01*
X133016666Y-74592380D02*
X133016666Y-75306666D01*
X132969047Y-75449523D01*
X132873809Y-75544761D01*
X132730952Y-75592380D01*
X132635714Y-75592380D01*
X133635714Y-75020952D02*
X133540476Y-74973333D01*
X133492857Y-74925714D01*
X133445238Y-74830476D01*
X133445238Y-74782857D01*
X133492857Y-74687619D01*
X133540476Y-74640000D01*
X133635714Y-74592380D01*
X133826190Y-74592380D01*
X133921428Y-74640000D01*
X133969047Y-74687619D01*
X134016666Y-74782857D01*
X134016666Y-74830476D01*
X133969047Y-74925714D01*
X133921428Y-74973333D01*
X133826190Y-75020952D01*
X133635714Y-75020952D01*
X133540476Y-75068571D01*
X133492857Y-75116190D01*
X133445238Y-75211428D01*
X133445238Y-75401904D01*
X133492857Y-75497142D01*
X133540476Y-75544761D01*
X133635714Y-75592380D01*
X133826190Y-75592380D01*
X133921428Y-75544761D01*
X133969047Y-75497142D01*
X134016666Y-75401904D01*
X134016666Y-75211428D01*
X133969047Y-75116190D01*
X133921428Y-75068571D01*
X133826190Y-75020952D01*
X139604761Y-107227619D02*
X139509523Y-107180000D01*
X139414285Y-107084761D01*
X139271428Y-106941904D01*
X139176190Y-106894285D01*
X139080952Y-106894285D01*
X139128571Y-107132380D02*
X139033333Y-107084761D01*
X138938095Y-106989523D01*
X138890476Y-106799047D01*
X138890476Y-106465714D01*
X138938095Y-106275238D01*
X139033333Y-106180000D01*
X139128571Y-106132380D01*
X139319047Y-106132380D01*
X139414285Y-106180000D01*
X139509523Y-106275238D01*
X139557142Y-106465714D01*
X139557142Y-106799047D01*
X139509523Y-106989523D01*
X139414285Y-107084761D01*
X139319047Y-107132380D01*
X139128571Y-107132380D01*
X140509523Y-107132380D02*
X139938095Y-107132380D01*
X140223809Y-107132380D02*
X140223809Y-106132380D01*
X140128571Y-106275238D01*
X140033333Y-106370476D01*
X139938095Y-106418095D01*
X140327142Y-104422380D02*
X139993809Y-103946190D01*
X139755714Y-104422380D02*
X139755714Y-103422380D01*
X140136666Y-103422380D01*
X140231904Y-103470000D01*
X140279523Y-103517619D01*
X140327142Y-103612857D01*
X140327142Y-103755714D01*
X140279523Y-103850952D01*
X140231904Y-103898571D01*
X140136666Y-103946190D01*
X139755714Y-103946190D01*
X141279523Y-104422380D02*
X140708095Y-104422380D01*
X140993809Y-104422380D02*
X140993809Y-103422380D01*
X140898571Y-103565238D01*
X140803333Y-103660476D01*
X140708095Y-103708095D01*
X141755714Y-104422380D02*
X141946190Y-104422380D01*
X142041428Y-104374761D01*
X142089047Y-104327142D01*
X142184285Y-104184285D01*
X142231904Y-103993809D01*
X142231904Y-103612857D01*
X142184285Y-103517619D01*
X142136666Y-103470000D01*
X142041428Y-103422380D01*
X141850952Y-103422380D01*
X141755714Y-103470000D01*
X141708095Y-103517619D01*
X141660476Y-103612857D01*
X141660476Y-103850952D01*
X141708095Y-103946190D01*
X141755714Y-103993809D01*
X141850952Y-104041428D01*
X142041428Y-104041428D01*
X142136666Y-103993809D01*
X142184285Y-103946190D01*
X142231904Y-103850952D01*
X145407142Y-104422380D02*
X145073809Y-103946190D01*
X144835714Y-104422380D02*
X144835714Y-103422380D01*
X145216666Y-103422380D01*
X145311904Y-103470000D01*
X145359523Y-103517619D01*
X145407142Y-103612857D01*
X145407142Y-103755714D01*
X145359523Y-103850952D01*
X145311904Y-103898571D01*
X145216666Y-103946190D01*
X144835714Y-103946190D01*
X145788095Y-103517619D02*
X145835714Y-103470000D01*
X145930952Y-103422380D01*
X146169047Y-103422380D01*
X146264285Y-103470000D01*
X146311904Y-103517619D01*
X146359523Y-103612857D01*
X146359523Y-103708095D01*
X146311904Y-103850952D01*
X145740476Y-104422380D01*
X146359523Y-104422380D01*
X146978571Y-103422380D02*
X147073809Y-103422380D01*
X147169047Y-103470000D01*
X147216666Y-103517619D01*
X147264285Y-103612857D01*
X147311904Y-103803333D01*
X147311904Y-104041428D01*
X147264285Y-104231904D01*
X147216666Y-104327142D01*
X147169047Y-104374761D01*
X147073809Y-104422380D01*
X146978571Y-104422380D01*
X146883333Y-104374761D01*
X146835714Y-104327142D01*
X146788095Y-104231904D01*
X146740476Y-104041428D01*
X146740476Y-103803333D01*
X146788095Y-103612857D01*
X146835714Y-103517619D01*
X146883333Y-103470000D01*
X146978571Y-103422380D01*
X152392142Y-107132380D02*
X152058809Y-106656190D01*
X151820714Y-107132380D02*
X151820714Y-106132380D01*
X152201666Y-106132380D01*
X152296904Y-106180000D01*
X152344523Y-106227619D01*
X152392142Y-106322857D01*
X152392142Y-106465714D01*
X152344523Y-106560952D01*
X152296904Y-106608571D01*
X152201666Y-106656190D01*
X151820714Y-106656190D01*
X152773095Y-106227619D02*
X152820714Y-106180000D01*
X152915952Y-106132380D01*
X153154047Y-106132380D01*
X153249285Y-106180000D01*
X153296904Y-106227619D01*
X153344523Y-106322857D01*
X153344523Y-106418095D01*
X153296904Y-106560952D01*
X152725476Y-107132380D01*
X153344523Y-107132380D01*
X154296904Y-107132380D02*
X153725476Y-107132380D01*
X154011190Y-107132380D02*
X154011190Y-106132380D01*
X153915952Y-106275238D01*
X153820714Y-106370476D01*
X153725476Y-106418095D01*
X138422142Y-131262380D02*
X138088809Y-130786190D01*
X137850714Y-131262380D02*
X137850714Y-130262380D01*
X138231666Y-130262380D01*
X138326904Y-130310000D01*
X138374523Y-130357619D01*
X138422142Y-130452857D01*
X138422142Y-130595714D01*
X138374523Y-130690952D01*
X138326904Y-130738571D01*
X138231666Y-130786190D01*
X137850714Y-130786190D01*
X138803095Y-130357619D02*
X138850714Y-130310000D01*
X138945952Y-130262380D01*
X139184047Y-130262380D01*
X139279285Y-130310000D01*
X139326904Y-130357619D01*
X139374523Y-130452857D01*
X139374523Y-130548095D01*
X139326904Y-130690952D01*
X138755476Y-131262380D01*
X139374523Y-131262380D01*
X139755476Y-130357619D02*
X139803095Y-130310000D01*
X139898333Y-130262380D01*
X140136428Y-130262380D01*
X140231666Y-130310000D01*
X140279285Y-130357619D01*
X140326904Y-130452857D01*
X140326904Y-130548095D01*
X140279285Y-130690952D01*
X139707857Y-131262380D01*
X140326904Y-131262380D01*
X139057142Y-53792380D02*
X138723809Y-53316190D01*
X138485714Y-53792380D02*
X138485714Y-52792380D01*
X138866666Y-52792380D01*
X138961904Y-52840000D01*
X139009523Y-52887619D01*
X139057142Y-52982857D01*
X139057142Y-53125714D01*
X139009523Y-53220952D01*
X138961904Y-53268571D01*
X138866666Y-53316190D01*
X138485714Y-53316190D01*
X139438095Y-52887619D02*
X139485714Y-52840000D01*
X139580952Y-52792380D01*
X139819047Y-52792380D01*
X139914285Y-52840000D01*
X139961904Y-52887619D01*
X140009523Y-52982857D01*
X140009523Y-53078095D01*
X139961904Y-53220952D01*
X139390476Y-53792380D01*
X140009523Y-53792380D01*
X140342857Y-52792380D02*
X140961904Y-52792380D01*
X140628571Y-53173333D01*
X140771428Y-53173333D01*
X140866666Y-53220952D01*
X140914285Y-53268571D01*
X140961904Y-53363809D01*
X140961904Y-53601904D01*
X140914285Y-53697142D01*
X140866666Y-53744761D01*
X140771428Y-53792380D01*
X140485714Y-53792380D01*
X140390476Y-53744761D01*
X140342857Y-53697142D01*
X139057142Y-71572380D02*
X138723809Y-71096190D01*
X138485714Y-71572380D02*
X138485714Y-70572380D01*
X138866666Y-70572380D01*
X138961904Y-70620000D01*
X139009523Y-70667619D01*
X139057142Y-70762857D01*
X139057142Y-70905714D01*
X139009523Y-71000952D01*
X138961904Y-71048571D01*
X138866666Y-71096190D01*
X138485714Y-71096190D01*
X139438095Y-70667619D02*
X139485714Y-70620000D01*
X139580952Y-70572380D01*
X139819047Y-70572380D01*
X139914285Y-70620000D01*
X139961904Y-70667619D01*
X140009523Y-70762857D01*
X140009523Y-70858095D01*
X139961904Y-71000952D01*
X139390476Y-71572380D01*
X140009523Y-71572380D01*
X140866666Y-70905714D02*
X140866666Y-71572380D01*
X140628571Y-70524761D02*
X140390476Y-71239047D01*
X141009523Y-71239047D01*
X152392142Y-74112380D02*
X152058809Y-73636190D01*
X151820714Y-74112380D02*
X151820714Y-73112380D01*
X152201666Y-73112380D01*
X152296904Y-73160000D01*
X152344523Y-73207619D01*
X152392142Y-73302857D01*
X152392142Y-73445714D01*
X152344523Y-73540952D01*
X152296904Y-73588571D01*
X152201666Y-73636190D01*
X151820714Y-73636190D01*
X152773095Y-73207619D02*
X152820714Y-73160000D01*
X152915952Y-73112380D01*
X153154047Y-73112380D01*
X153249285Y-73160000D01*
X153296904Y-73207619D01*
X153344523Y-73302857D01*
X153344523Y-73398095D01*
X153296904Y-73540952D01*
X152725476Y-74112380D01*
X153344523Y-74112380D01*
X154249285Y-73112380D02*
X153773095Y-73112380D01*
X153725476Y-73588571D01*
X153773095Y-73540952D01*
X153868333Y-73493333D01*
X154106428Y-73493333D01*
X154201666Y-73540952D01*
X154249285Y-73588571D01*
X154296904Y-73683809D01*
X154296904Y-73921904D01*
X154249285Y-74017142D01*
X154201666Y-74064761D01*
X154106428Y-74112380D01*
X153868333Y-74112380D01*
X153773095Y-74064761D01*
X153725476Y-74017142D01*
X151757142Y-56332380D02*
X151423809Y-55856190D01*
X151185714Y-56332380D02*
X151185714Y-55332380D01*
X151566666Y-55332380D01*
X151661904Y-55380000D01*
X151709523Y-55427619D01*
X151757142Y-55522857D01*
X151757142Y-55665714D01*
X151709523Y-55760952D01*
X151661904Y-55808571D01*
X151566666Y-55856190D01*
X151185714Y-55856190D01*
X152138095Y-55427619D02*
X152185714Y-55380000D01*
X152280952Y-55332380D01*
X152519047Y-55332380D01*
X152614285Y-55380000D01*
X152661904Y-55427619D01*
X152709523Y-55522857D01*
X152709523Y-55618095D01*
X152661904Y-55760952D01*
X152090476Y-56332380D01*
X152709523Y-56332380D01*
X153566666Y-55332380D02*
X153376190Y-55332380D01*
X153280952Y-55380000D01*
X153233333Y-55427619D01*
X153138095Y-55570476D01*
X153090476Y-55760952D01*
X153090476Y-56141904D01*
X153138095Y-56237142D01*
X153185714Y-56284761D01*
X153280952Y-56332380D01*
X153471428Y-56332380D01*
X153566666Y-56284761D01*
X153614285Y-56237142D01*
X153661904Y-56141904D01*
X153661904Y-55903809D01*
X153614285Y-55808571D01*
X153566666Y-55760952D01*
X153471428Y-55713333D01*
X153280952Y-55713333D01*
X153185714Y-55760952D01*
X153138095Y-55808571D01*
X153090476Y-55903809D01*
X135247142Y-58702380D02*
X134913809Y-58226190D01*
X134675714Y-58702380D02*
X134675714Y-57702380D01*
X135056666Y-57702380D01*
X135151904Y-57750000D01*
X135199523Y-57797619D01*
X135247142Y-57892857D01*
X135247142Y-58035714D01*
X135199523Y-58130952D01*
X135151904Y-58178571D01*
X135056666Y-58226190D01*
X134675714Y-58226190D01*
X135628095Y-57797619D02*
X135675714Y-57750000D01*
X135770952Y-57702380D01*
X136009047Y-57702380D01*
X136104285Y-57750000D01*
X136151904Y-57797619D01*
X136199523Y-57892857D01*
X136199523Y-57988095D01*
X136151904Y-58130952D01*
X135580476Y-58702380D01*
X136199523Y-58702380D01*
X136532857Y-57702380D02*
X137199523Y-57702380D01*
X136770952Y-58702380D01*
X139692142Y-69032380D02*
X139358809Y-68556190D01*
X139120714Y-69032380D02*
X139120714Y-68032380D01*
X139501666Y-68032380D01*
X139596904Y-68080000D01*
X139644523Y-68127619D01*
X139692142Y-68222857D01*
X139692142Y-68365714D01*
X139644523Y-68460952D01*
X139596904Y-68508571D01*
X139501666Y-68556190D01*
X139120714Y-68556190D01*
X140073095Y-68127619D02*
X140120714Y-68080000D01*
X140215952Y-68032380D01*
X140454047Y-68032380D01*
X140549285Y-68080000D01*
X140596904Y-68127619D01*
X140644523Y-68222857D01*
X140644523Y-68318095D01*
X140596904Y-68460952D01*
X140025476Y-69032380D01*
X140644523Y-69032380D01*
X141215952Y-68460952D02*
X141120714Y-68413333D01*
X141073095Y-68365714D01*
X141025476Y-68270476D01*
X141025476Y-68222857D01*
X141073095Y-68127619D01*
X141120714Y-68080000D01*
X141215952Y-68032380D01*
X141406428Y-68032380D01*
X141501666Y-68080000D01*
X141549285Y-68127619D01*
X141596904Y-68222857D01*
X141596904Y-68270476D01*
X141549285Y-68365714D01*
X141501666Y-68413333D01*
X141406428Y-68460952D01*
X141215952Y-68460952D01*
X141120714Y-68508571D01*
X141073095Y-68556190D01*
X141025476Y-68651428D01*
X141025476Y-68841904D01*
X141073095Y-68937142D01*
X141120714Y-68984761D01*
X141215952Y-69032380D01*
X141406428Y-69032380D01*
X141501666Y-68984761D01*
X141549285Y-68937142D01*
X141596904Y-68841904D01*
X141596904Y-68651428D01*
X141549285Y-68556190D01*
X141501666Y-68508571D01*
X141406428Y-68460952D01*
X151757142Y-70302380D02*
X151423809Y-69826190D01*
X151185714Y-70302380D02*
X151185714Y-69302380D01*
X151566666Y-69302380D01*
X151661904Y-69350000D01*
X151709523Y-69397619D01*
X151757142Y-69492857D01*
X151757142Y-69635714D01*
X151709523Y-69730952D01*
X151661904Y-69778571D01*
X151566666Y-69826190D01*
X151185714Y-69826190D01*
X152138095Y-69397619D02*
X152185714Y-69350000D01*
X152280952Y-69302380D01*
X152519047Y-69302380D01*
X152614285Y-69350000D01*
X152661904Y-69397619D01*
X152709523Y-69492857D01*
X152709523Y-69588095D01*
X152661904Y-69730952D01*
X152090476Y-70302380D01*
X152709523Y-70302380D01*
X153185714Y-70302380D02*
X153376190Y-70302380D01*
X153471428Y-70254761D01*
X153519047Y-70207142D01*
X153614285Y-70064285D01*
X153661904Y-69873809D01*
X153661904Y-69492857D01*
X153614285Y-69397619D01*
X153566666Y-69350000D01*
X153471428Y-69302380D01*
X153280952Y-69302380D01*
X153185714Y-69350000D01*
X153138095Y-69397619D01*
X153090476Y-69492857D01*
X153090476Y-69730952D01*
X153138095Y-69826190D01*
X153185714Y-69873809D01*
X153280952Y-69921428D01*
X153471428Y-69921428D01*
X153566666Y-69873809D01*
X153614285Y-69826190D01*
X153661904Y-69730952D01*
X152392142Y-53792380D02*
X152058809Y-53316190D01*
X151820714Y-53792380D02*
X151820714Y-52792380D01*
X152201666Y-52792380D01*
X152296904Y-52840000D01*
X152344523Y-52887619D01*
X152392142Y-52982857D01*
X152392142Y-53125714D01*
X152344523Y-53220952D01*
X152296904Y-53268571D01*
X152201666Y-53316190D01*
X151820714Y-53316190D01*
X152725476Y-52792380D02*
X153344523Y-52792380D01*
X153011190Y-53173333D01*
X153154047Y-53173333D01*
X153249285Y-53220952D01*
X153296904Y-53268571D01*
X153344523Y-53363809D01*
X153344523Y-53601904D01*
X153296904Y-53697142D01*
X153249285Y-53744761D01*
X153154047Y-53792380D01*
X152868333Y-53792380D01*
X152773095Y-53744761D01*
X152725476Y-53697142D01*
X153963571Y-52792380D02*
X154058809Y-52792380D01*
X154154047Y-52840000D01*
X154201666Y-52887619D01*
X154249285Y-52982857D01*
X154296904Y-53173333D01*
X154296904Y-53411428D01*
X154249285Y-53601904D01*
X154201666Y-53697142D01*
X154154047Y-53744761D01*
X154058809Y-53792380D01*
X153963571Y-53792380D01*
X153868333Y-53744761D01*
X153820714Y-53697142D01*
X153773095Y-53601904D01*
X153725476Y-53411428D01*
X153725476Y-53173333D01*
X153773095Y-52982857D01*
X153820714Y-52887619D01*
X153868333Y-52840000D01*
X153963571Y-52792380D01*
X131456666Y-134294761D02*
X131599523Y-134342380D01*
X131837619Y-134342380D01*
X131932857Y-134294761D01*
X131980476Y-134247142D01*
X132028095Y-134151904D01*
X132028095Y-134056666D01*
X131980476Y-133961428D01*
X131932857Y-133913809D01*
X131837619Y-133866190D01*
X131647142Y-133818571D01*
X131551904Y-133770952D01*
X131504285Y-133723333D01*
X131456666Y-133628095D01*
X131456666Y-133532857D01*
X131504285Y-133437619D01*
X131551904Y-133390000D01*
X131647142Y-133342380D01*
X131885238Y-133342380D01*
X132028095Y-133390000D01*
X132361428Y-133342380D02*
X132599523Y-134342380D01*
X132790000Y-133628095D01*
X132980476Y-134342380D01*
X133218571Y-133342380D01*
X134075714Y-133342380D02*
X133599523Y-133342380D01*
X133551904Y-133818571D01*
X133599523Y-133770952D01*
X133694761Y-133723333D01*
X133932857Y-133723333D01*
X134028095Y-133770952D01*
X134075714Y-133818571D01*
X134123333Y-133913809D01*
X134123333Y-134151904D01*
X134075714Y-134247142D01*
X134028095Y-134294761D01*
X133932857Y-134342380D01*
X133694761Y-134342380D01*
X133599523Y-134294761D01*
X133551904Y-134247142D01*
X131532380Y-62991904D02*
X132341904Y-62991904D01*
X132437142Y-62944285D01*
X132484761Y-62896666D01*
X132532380Y-62801428D01*
X132532380Y-62610952D01*
X132484761Y-62515714D01*
X132437142Y-62468095D01*
X132341904Y-62420476D01*
X131532380Y-62420476D01*
X132532380Y-61420476D02*
X132532380Y-61991904D01*
X132532380Y-61706190D02*
X131532380Y-61706190D01*
X131675238Y-61801428D01*
X131770476Y-61896666D01*
X131818095Y-61991904D01*
X160302380Y-120141904D02*
X161111904Y-120141904D01*
X161207142Y-120094285D01*
X161254761Y-120046666D01*
X161302380Y-119951428D01*
X161302380Y-119760952D01*
X161254761Y-119665714D01*
X161207142Y-119618095D01*
X161111904Y-119570476D01*
X160302380Y-119570476D01*
X160397619Y-119141904D02*
X160350000Y-119094285D01*
X160302380Y-118999047D01*
X160302380Y-118760952D01*
X160350000Y-118665714D01*
X160397619Y-118618095D01*
X160492857Y-118570476D01*
X160588095Y-118570476D01*
X160730952Y-118618095D01*
X161302380Y-119189523D01*
X161302380Y-118570476D01*
X159262380Y-80771904D02*
X160071904Y-80771904D01*
X160167142Y-80724285D01*
X160214761Y-80676666D01*
X160262380Y-80581428D01*
X160262380Y-80390952D01*
X160214761Y-80295714D01*
X160167142Y-80248095D01*
X160071904Y-80200476D01*
X159262380Y-80200476D01*
X159262380Y-79819523D02*
X159262380Y-79200476D01*
X159643333Y-79533809D01*
X159643333Y-79390952D01*
X159690952Y-79295714D01*
X159738571Y-79248095D01*
X159833809Y-79200476D01*
X160071904Y-79200476D01*
X160167142Y-79248095D01*
X160214761Y-79295714D01*
X160262380Y-79390952D01*
X160262380Y-79676666D01*
X160214761Y-79771904D01*
X160167142Y-79819523D01*
%LPC*%
D12*
X99060000Y-142240000D03*
D13*
X109220000Y-144660000D03*
D14*
X109220000Y-137160000D03*
X109220000Y-121920000D03*
D13*
X109220000Y-129420000D03*
D15*
X106680000Y-53340000D03*
D16*
X109220000Y-53340000D03*
D15*
X119380000Y-53340000D03*
D16*
X121920000Y-53340000D03*
D15*
X119380000Y-110490000D03*
D16*
X121920000Y-110490000D03*
X121920000Y-96520000D03*
D15*
X119380000Y-96520000D03*
X119380000Y-82550000D03*
D16*
X121920000Y-82550000D03*
X121920000Y-68580000D03*
D15*
X119380000Y-68580000D03*
D16*
X109220000Y-68580000D03*
D15*
X106680000Y-68580000D03*
D16*
X109220000Y-82550000D03*
D15*
X106680000Y-82550000D03*
D16*
X109220000Y-96520000D03*
D15*
X106680000Y-96520000D03*
X106680000Y-110490000D03*
D16*
X109220000Y-110490000D03*
D17*
X99900000Y-53370000D03*
X91600000Y-53370000D03*
D18*
X103000000Y-53370000D03*
D17*
X99900000Y-68610000D03*
X91600000Y-68610000D03*
D18*
X103000000Y-68610000D03*
X103000000Y-82580000D03*
D17*
X91600000Y-82580000D03*
X99900000Y-82580000D03*
X99900000Y-96550000D03*
X91600000Y-96550000D03*
D18*
X103000000Y-96550000D03*
X103000000Y-110520000D03*
D17*
X91600000Y-110520000D03*
X99900000Y-110520000D03*
D19*
X113030000Y-77470000D03*
D20*
X115570000Y-77470000D03*
X113030000Y-80010000D03*
X115570000Y-80010000D03*
X113030000Y-82550000D03*
X115570000Y-82550000D03*
X113030000Y-85090000D03*
X115570000Y-85090000D03*
X113030000Y-87630000D03*
X115570000Y-87630000D03*
X113030000Y-90170000D03*
X115570000Y-90170000D03*
X113030000Y-92710000D03*
X115570000Y-92710000D03*
X113030000Y-95250000D03*
X115570000Y-95250000D03*
X113030000Y-97790000D03*
X115570000Y-97790000D03*
D14*
X99060000Y-135890000D03*
D13*
X101600000Y-135890000D03*
X96520000Y-135890000D03*
D14*
X93980000Y-135890000D03*
X106680000Y-58420000D03*
D13*
X109220000Y-58420000D03*
X109220000Y-134620000D03*
D14*
X109220000Y-132080000D03*
D13*
X109220000Y-119380000D03*
D14*
X109220000Y-116840000D03*
X116205000Y-55880000D03*
D13*
X116205000Y-53340000D03*
D14*
X119380000Y-106045000D03*
D13*
X121920000Y-106045000D03*
X121920000Y-92075000D03*
D14*
X119380000Y-92075000D03*
X119380000Y-86995000D03*
D13*
X121920000Y-86995000D03*
X121920000Y-73660000D03*
D14*
X119380000Y-73660000D03*
X106680000Y-63500000D03*
D13*
X104140000Y-63500000D03*
D14*
X106680000Y-78105000D03*
D13*
X104140000Y-78105000D03*
X109220000Y-91440000D03*
D14*
X106680000Y-91440000D03*
X106680000Y-106045000D03*
D13*
X104140000Y-106045000D03*
X93980000Y-76200000D03*
D14*
X91440000Y-76200000D03*
D13*
X93980000Y-88900000D03*
D14*
X91440000Y-88900000D03*
D13*
X93980000Y-104140000D03*
D14*
X91440000Y-104140000D03*
X91440000Y-116840000D03*
D13*
X93980000Y-116840000D03*
D21*
X104620000Y-125850000D03*
X93420000Y-125850000D03*
D22*
X101520000Y-133350000D03*
X99020000Y-133350000D03*
D23*
X96520000Y-133350000D03*
D24*
X116840000Y-144780000D03*
X116840000Y-139700000D03*
X116840000Y-128270000D03*
X116840000Y-123190000D03*
D20*
X106045000Y-144145000D03*
D19*
X106045000Y-146685000D03*
D25*
X152400000Y-142240000D03*
D14*
X152400000Y-139740000D03*
X152400000Y-132120000D03*
D25*
X152400000Y-134620000D03*
D14*
X152400000Y-58420000D03*
D13*
X152400000Y-65920000D03*
X142875000Y-86480000D03*
D14*
X142875000Y-93980000D03*
X157480000Y-88900000D03*
D13*
X149980000Y-88900000D03*
D19*
X160020000Y-132080000D03*
D20*
X162560000Y-132080000D03*
X160020000Y-134620000D03*
X162560000Y-134620000D03*
X160020000Y-137160000D03*
X162560000Y-137160000D03*
X160020000Y-139700000D03*
X162560000Y-139700000D03*
X160020000Y-142240000D03*
X162560000Y-142240000D03*
D19*
X132080000Y-77470000D03*
D20*
X134620000Y-77470000D03*
X132080000Y-80010000D03*
X134620000Y-80010000D03*
X132080000Y-82550000D03*
X134620000Y-82550000D03*
X132080000Y-85090000D03*
X134620000Y-85090000D03*
X132080000Y-87630000D03*
X134620000Y-87630000D03*
X132080000Y-90170000D03*
X134620000Y-90170000D03*
X132080000Y-92710000D03*
X134620000Y-92710000D03*
X132080000Y-95250000D03*
X134620000Y-95250000D03*
X132080000Y-97790000D03*
X134620000Y-97790000D03*
D26*
X143510000Y-106680000D03*
X142240000Y-106680000D03*
D27*
X144780000Y-106680000D03*
D14*
X142240000Y-101600000D03*
D13*
X139700000Y-101600000D03*
X144780000Y-101600000D03*
D14*
X147320000Y-101600000D03*
X149860000Y-106680000D03*
D13*
X147320000Y-106680000D03*
X135890000Y-130810000D03*
D14*
X133350000Y-130810000D03*
X134620000Y-53340000D03*
D13*
X137160000Y-53340000D03*
D14*
X134620000Y-71120000D03*
D13*
X137160000Y-71120000D03*
D14*
X149860000Y-73660000D03*
D13*
X147320000Y-73660000D03*
D14*
X149860000Y-53340000D03*
D13*
X147320000Y-53340000D03*
X134620000Y-55880000D03*
D14*
X137160000Y-55880000D03*
D13*
X134620000Y-68580000D03*
D14*
X137160000Y-68580000D03*
D13*
X149860000Y-69850000D03*
D14*
X147320000Y-69850000D03*
D13*
X149860000Y-55880000D03*
D14*
X147320000Y-55880000D03*
D22*
X129540000Y-140390000D03*
X129540000Y-135890000D03*
X136040000Y-140390000D03*
X136040000Y-135890000D03*
D25*
X149860000Y-58420000D03*
D13*
X134620000Y-66040000D03*
X147320000Y-58420000D03*
X137160000Y-66040000D03*
X144780000Y-58420000D03*
X139700000Y-66040000D03*
X142240000Y-58420000D03*
X142240000Y-66040000D03*
X139700000Y-58420000D03*
X144780000Y-66040000D03*
X137160000Y-58420000D03*
X147320000Y-66040000D03*
X134620000Y-58420000D03*
X149860000Y-66040000D03*
D28*
X158750000Y-127000000D03*
X158750000Y-111760000D03*
X156210000Y-127000000D03*
X156210000Y-111760000D03*
X153670000Y-127000000D03*
X153670000Y-111760000D03*
X151130000Y-127000000D03*
X151130000Y-111760000D03*
X148590000Y-127000000D03*
X148590000Y-111760000D03*
X146050000Y-127000000D03*
X146050000Y-111760000D03*
X143510000Y-127000000D03*
X143510000Y-111760000D03*
X140970000Y-127000000D03*
X140970000Y-111760000D03*
X138430000Y-127000000D03*
X138430000Y-111760000D03*
X135890000Y-127000000D03*
X135890000Y-111760000D03*
X133350000Y-127000000D03*
X133350000Y-111760000D03*
X130810000Y-127000000D03*
X130810000Y-111760000D03*
D25*
X157480000Y-76200000D03*
D13*
X139700000Y-83820000D03*
X154940000Y-76200000D03*
X142240000Y-83820000D03*
X152400000Y-76200000D03*
X144780000Y-83820000D03*
X149860000Y-76200000D03*
X147320000Y-83820000D03*
X147320000Y-76200000D03*
X149860000Y-83820000D03*
X144780000Y-76200000D03*
X152400000Y-83820000D03*
X142240000Y-76200000D03*
X154940000Y-83820000D03*
X139700000Y-76200000D03*
X157480000Y-83820000D03*
M02*
