M48
; DRILL file {KiCad (5.1.8-0-10_14)} date Friday, March 10, 2023 at 04:16:59 PM
; FORMAT={3:3/ absolute / metric / suppress trailing zeros}
; #@! TF.CreationDate,2023-03-10T16:16:59+09:00
; #@! TF.GenerationSoftware,Kicad,Pcbnew,(5.1.8-0-10_14)
; #@! TF.FileFunction,Plated,1,2,PTH
FMAT,2
METRIC,LZ
T1C0.762
T2C0.800
T3C0.900
T4C1.000
T5C1.100
T6C1.200
T7C1.220
T8C2.000
%
G90
G05
T1
X08509Y-139065
X08509Y-141605
X13208Y-123825
X13208Y-126365
X06604Y-137795
X06604Y-140335
X10541Y-141605
X10795Y-141605
X10541Y-151765
X10795Y-151765
X11176Y-104775
X11176Y-107315
X12192Y-099695
X12446Y-099695
X11176Y-123825
X11176Y-126365
T2
X1143Y-065405
X1143Y-067945
X1143Y-070485
X1143Y-073025
X1143Y-075565
X1143Y-078105
X1143Y-080645
X1143Y-083185
X1143Y-085725
X1143Y-088265
X1143Y-090805
X1143Y-093345
X12954Y-065405
X12954Y-067945
X12954Y-070485
X12954Y-073025
X12954Y-075565
X12954Y-078105
X12954Y-080645
X12954Y-083185
X12954Y-085725
X12954Y-088265
X12954Y-090805
X12954Y-093345
X10541Y-146685
X10541Y-149225
X07874Y-125095
X07874Y-127635
X08763Y-144145
X08763Y-146685
X13085Y-156845
X13335Y-156845
X08509Y-136525
X08763Y-136525
X1143Y-121285
X1143Y-128905
X11684Y-121285
X11684Y-128905
X11938Y-121285
X11938Y-128905
X12192Y-121285
X12192Y-128905
X12446Y-121285
X12446Y-128905
X127Y-121285
X127Y-128905
X12954Y-121285
X12954Y-128905
X127Y-133985
X12954Y-133985
X13716Y-083185
X13716Y-085725
X10668Y-083185
X10668Y-085725
X07874Y-111125
X07874Y-113665
X10414Y-075565
X10668Y-075565
X10795Y-144145
X10795Y-146685
X10795Y-149225
X07874Y-083185
X07874Y-085725
X13208Y-083185
X13208Y-085725
X08001Y-075565
X08255Y-075565
X07874Y-097155
X07874Y-099695
X09525Y-085725
X09779Y-085725
X09525Y-10414
X09779Y-10414
X12323Y-156845
X12573Y-156845
X1143Y-131445
X11684Y-131445
X092075Y-065405
X092075Y-067945
X127Y-118745
X12954Y-118745
X09525Y-11811
X09779Y-11811
X09525Y-09906
X09779Y-09906
X08001Y-11811
X08255Y-11811
X08255Y-103505
X08509Y-103505
X13208Y-078105
X13462Y-078105
X13716Y-078105
X08255Y-070485
X08509Y-070485
X1143Y-118745
X11684Y-118745
X127Y-131445
X12954Y-131445
X1143Y-116205
X11684Y-116205
X1143Y-102235
X1143Y-109855
X11684Y-102235
X11684Y-109855
X11938Y-102235
X11938Y-109855
X12192Y-102235
X12192Y-109855
X12446Y-102235
X12446Y-109855
X127Y-102235
X127Y-109855
X12954Y-102235
X12954Y-109855
X13208Y-102235
X13208Y-109855
X08001Y-09017
X08255Y-09017
X08509Y-144145
X08509Y-146685
X1143Y-133985
X11684Y-133985
X127Y-116205
X12954Y-116205
X06604Y-142875
X06604Y-145415
T3
X08255Y-122555
X08509Y-122555
X09525Y-122555
X09779Y-122555
X08255Y-080645
X08509Y-080645
X09525Y-094615
X09779Y-094615
X08255Y-065405
X08509Y-065405
X08255Y-094615
X08509Y-094615
X09525Y-080645
X09779Y-080645
X09525Y-065405
X09779Y-065405
X08255Y-108585
X08509Y-108585
X09525Y-108585
X09779Y-108585
T4
X07239Y-145415
X07489Y-145415
X07739Y-145415
X11176Y-147955
X11176Y-150495
X11176Y-153035
X11176Y-155575
X11176Y-158115
X1143Y-147955
X1143Y-150495
X1143Y-153035
X1143Y-155575
X1143Y-158115
X09906Y-131445
X09906Y-133985
X09906Y-136525
X09906Y-139065
X09906Y-141605
X09906Y-144145
X09906Y-146685
X09906Y-149225
X09906Y-151765
X09906Y-154305
X13716Y-131445
X13716Y-133985
X13716Y-136525
X13716Y-139065
X13716Y-141605
X13716Y-144145
X13716Y-146685
X13716Y-149225
X13716Y-151765
X13716Y-154305
X06604Y-083185
X06604Y-085725
X06604Y-088265
X06604Y-090805
X06604Y-093345
X06604Y-095885
X06604Y-098425
X06604Y-100965
X06604Y-103505
X06604Y-106045
X10414Y-083185
X10414Y-085725
X10414Y-088265
X10414Y-090805
X10414Y-093345
X10414Y-095885
X10414Y-098425
X10414Y-100965
X10414Y-103505
X10414Y-106045
X081915Y-15621
X081915Y-15875
T5
X10414Y-065255
X10414Y-071755
X10864Y-065255
X10864Y-071755
T6
X11938Y-147955
X11938Y-150495
X11938Y-155575
X11938Y-158115
T7
X07887Y-065435
X07242Y-088135
X07242Y-116075
X07242Y-102105
X07242Y-074165
T3
G00X09176Y-135255
M15
G01X09366Y-135255
M16
G05
G00X09176Y-140335
M15
G01X09366Y-140335
M16
G05
G00X09176Y-151765
M15
G01X09366Y-151765
M16
G05
G00X09176Y-156845
M15
G01X09366Y-156845
M16
G05
T6
G00X06747Y-065835
M15
G01X06747Y-065035
M16
G05
G00X07577Y-065835
M15
G01X07577Y-065035
M16
G05
G00X07282Y-091235
M15
G01X07202Y-091235
M16
G05
G00X07282Y-099535
M15
G01X07202Y-099535
M16
G05
G00X07282Y-119175
M15
G01X07202Y-119175
M16
G05
G00X07282Y-127475
M15
G01X07202Y-127475
M16
G05
G00X07282Y-105205
M15
G01X07202Y-105205
M16
G05
G00X07282Y-113505
M15
G01X07202Y-113505
M16
G05
G00X07282Y-077265
M15
G01X07202Y-077265
M16
G05
G00X07282Y-085565
M15
G01X07202Y-085565
M16
G05
T8
G00X06929Y-138165
M15
G01X06929Y-137665
M16
G05
G00X08049Y-138165
M15
G01X08049Y-137665
M16
G05
T0
M30
